<?xml version="1.0" encoding="utf-8"?>
<!-- Generator: Adobe Illustrator 16.0.0, SVG Export Plug-In . SVG Version: 6.00 Build 0)  -->
<!DOCTYPE svg PUBLIC "-//W3C//DTD SVG 1.1//EN" "http://www.w3.org/Graphics/SVG/1.1/DTD/svg11.dtd">
<svg version="1.1" id="Capa_1" xmlns="http://www.w3.org/2000/svg" xmlns:xlink="http://www.w3.org/1999/xlink" x="0px" y="0px"
	 width="649.793px" height="594.809px" viewBox="0 0 649.793 594.809" enable-background="new 0 0 649.793 594.809"
	 xml:space="preserve">
<g>
	<path fill="none" stroke="#ADD5F7" stroke-width="6" stroke-linecap="round" stroke-linejoin="round" stroke-miterlimit="10" d="
		M79.564,418.997l291.334-168.201c6.676-3.854,16.869-4.277,22.651-0.939l219.424,126.685c5.781,3.338,5.05,9.223-1.627,13.078
		L320.014,557.821c-6.677,3.854-16.87,4.275-22.651,0.938L77.938,432.075C72.156,428.736,72.889,422.851,79.564,418.997z"/>
	<linearGradient id="SVGID_1_" gradientUnits="userSpaceOnUse" x1="57.2168" y1="381.292" x2="616.874" y2="381.292">
		<stop  offset="0" style="stop-color:#DDECF8"/>
		<stop  offset="0.8835" style="stop-color:#A1CFF7"/>
	</linearGradient>
	<path fill="url(#SVGID_1_)" d="M612.973,358.083L393.55,231.398c-1.048-0.604-2.243-1.082-3.532-1.442l-13.288-7.672
		c-5.782-3.338-15.976-2.916-22.652,0.938L62.744,391.424c-6.677,3.854-7.408,9.741-1.627,13.078l219.424,126.685
		c1.047,0.604,2.243,1.082,3.533,1.442l13.288,7.671c5.781,3.339,15.975,2.916,22.651-0.938l291.333-168.201
		C618.023,367.306,618.755,361.421,612.973,358.083z"/>
	<path opacity="0.43" fill="#88BDEB" d="M391.136,419.054l71.061-42.057l-4.774-1.128l-99.65-58.637l-173.814,100.35l53.806,31.85
		c-2.496,0.78-4.848,1.768-6.956,2.986c-11.807,6.816-11.746,17.902,0.135,24.762c11.879,6.859,31.082,6.894,42.888,0.077
		c1.92-1.108,3.521-2.331,4.813-3.629l10.142,6.004l56.22-33.274c5.725,8.241,21.784,14.178,40.715,14.178
		c23.728,0,42.963-9.324,42.963-20.824C428.682,429.097,412.305,420.347,391.136,419.054z"/>
	<path fill="#4265C2" d="M186.408,419.999l-0.47-0.061c-1.408-0.182-2.402-1.469-2.222-2.877l10.101-78.595
		c0.181-1.408,1.468-2.402,2.876-2.221l0.471,0.06c1.408,0.181,2.402,1.469,2.221,2.876l-10.1,78.596
		C189.104,419.186,187.815,420.181,186.408,419.999z"/>
	<path fill="#4265C2" d="M288.633,480.856L288.633,480.856c1.53-0.132,2.663-1.479,2.531-3.008l-10.92-126.795
		c-0.133-1.53-1.479-2.663-3.009-2.531l0,0c-1.53,0.132-2.663,1.479-2.53,3.008l10.92,126.795
		C285.757,479.854,287.104,480.988,288.633,480.856z"/>
	<polygon fill="#2C4482" points="280.223,414.688 285.512,411.071 284.001,395.841 278.367,396.72 	"/>
	<path fill="#2C4482" d="M460.668,378.331l0.668-0.115c1.068-0.185,1.787-1.2,1.604-2.27l-14.052-81.599
		c-0.184-1.069-1.2-1.787-2.269-1.603l-0.668,0.115c-1.07,0.185-1.788,1.201-1.604,2.27l14.051,81.598
		C458.582,377.797,459.599,378.515,460.668,378.331z"/>
	<g>
		<rect x="446.272" y="285.188" fill="#D7E8F7" width="14.741" height="8.561"/>
		<rect x="178.244" y="339.929" fill="#D7E8F7" width="14.741" height="8.562"/>
		<path fill="#D7E8F7" d="M277.063,401.765l182.069-105.119c2.855-1.647,2.496-4.526-0.799-6.429l-84.957-49.05
			c-3.296-1.903-8.281-2.11-11.137-0.462L180.171,345.823c-2.854,1.648-2.497,4.526,0.8,6.429l84.957,49.049
			C269.224,403.206,274.209,403.412,277.063,401.765z"/>
		<path fill="#FDFFFF" d="M277.063,393.552l182.069-105.118c2.855-1.647,2.496-4.526-0.799-6.429l-84.957-49.05
			c-3.296-1.903-8.281-2.11-11.137-0.462L180.171,337.611c-2.854,1.648-2.497,4.527,0.8,6.43l84.957,49.05
			C269.224,394.993,274.209,395.2,277.063,393.552z"/>
	</g>
	<polygon fill="#2C4482" points="191.28,358.205 189.332,373.369 194.614,376.308 196.549,361.247 	"/>
	<path fill="#2C4482" d="M335.77,418.593l13.215,2.695l1.778,4.586c0.426,3.288,0.402,5.037-1.778,6.771
		c-1.834,1.459-5.574,0.333-7.527-0.577l-8.487-5.104c-6.292-3.469-5.816-6.037-5.138-8.156l0,0
		C328.84,416.433,331.749,416.983,335.77,418.593z"/>
	<path fill="#2C4482" d="M360.849,407.146l12.034,2.447l1.621,4.172c0.389,2.992,0.368,4.583-1.617,6.162
		c-1.67,1.327-5.074,0.305-6.854-0.523l-7.73-4.641c-5.73-3.152-5.299-5.488-4.682-7.418l0,0
		C354.537,405.185,357.187,405.683,360.849,407.146z"/>
	<path opacity="0.4" fill="#A8C4E5" d="M282.075,320.699l64.79-37.407c2.652-1.531,2.97-3.791,0.708-5.049l-14.457-8.042
		c-2.261-1.257-6.243-1.036-8.895,0.495l-64.792,37.407c-2.651,1.531-2.968,3.791-0.707,5.048l14.457,8.042
		C275.441,322.451,279.424,322.229,282.075,320.699z"/>
	<g>
		<g>
			<g>
				<path fill="#9BB7D3" d="M295.95,297.244c0,0,0.358,0.199,0.386,0.231c0.012,0.015,0.138,0.153,0.195,0.206
					c0.042,0.039,0.184,0.155,0.209,0.174c0.075,0.057,15.939,9.814,15.939,9.814l0.008,2.611l-15.696-9.649
					c-0.087-0.053-0.167-0.108-0.243-0.164c-0.025-0.02-0.047-0.04-0.072-0.06c-0.047-0.038-0.095-0.076-0.138-0.115
					c0,0-0.001,0-0.001-0.001c-0.058-0.052-0.108-0.105-0.156-0.161c-0.013-0.015-0.025-0.029-0.038-0.044
					c-0.015-0.017-0.03-0.033-0.044-0.05c-0.012-0.016-0.02-0.031-0.031-0.047c-0.032-0.044-0.063-0.089-0.09-0.134
					c-0.009-0.015-0.021-0.03-0.031-0.045c-0.007-0.013-0.012-0.025-0.018-0.038c-0.021-0.04-0.039-0.08-0.057-0.121
					c-0.008-0.019-0.02-0.039-0.027-0.058c-0.004-0.01-0.005-0.021-0.009-0.03c-0.014-0.04-0.022-0.079-0.033-0.118
					c-0.005-0.022-0.015-0.044-0.019-0.067c-0.002-0.007-0.002-0.016-0.004-0.023c-0.007-0.042-0.01-0.084-0.015-0.126
					c-0.001-0.023-0.006-0.045-0.007-0.068c0-0.011-0.001-0.022-0.001-0.033L295.95,297.244z"/>
				<path fill="#D7E8F7" d="M312.744,307.705c0.105,0.062,0.217,0.119,0.331,0.172c0.034,0.016,0.07,0.032,0.106,0.047
					c0.127,0.055,0.256,0.105,0.391,0.15c0.007,0.002,0.015,0.005,0.021,0.008c0.113,0.037,0.229,0.069,0.346,0.099
					c0.017,0.004,0.034,0.007,0.053,0.011c0.1,0.024,0.202,0.047,0.305,0.066c0.014,0.002,0.027,0.003,0.04,0.006
					c0.134,0.023,0.269,0.042,0.405,0.057c0.05,0.005,0.1,0.009,0.15,0.014c0.079,0.007,0.158,0.013,0.237,0.016
					c0.057,0.002,0.113,0.005,0.169,0.006c0.069,0.001,0.139,0.002,0.206,0.001c0.06,0,0.119-0.001,0.179-0.003
					c0.063-0.003,0.127-0.006,0.189-0.011c0.061-0.004,0.121-0.008,0.182-0.014c0.063-0.005,0.125-0.013,0.188-0.021
					c0.06-0.007,0.119-0.015,0.178-0.024c0.066-0.01,0.133-0.022,0.199-0.034c0.055-0.01,0.109-0.021,0.164-0.032
					c0.08-0.018,0.16-0.038,0.238-0.059c0.043-0.012,0.088-0.022,0.131-0.035c0.141-0.041,0.277-0.086,0.41-0.138
					c0.066-0.025,0.131-0.054,0.194-0.082c0.033-0.014,0.066-0.027,0.099-0.042c0.098-0.046,0.192-0.095,0.283-0.148l12.165-7.023
					c0.752-0.434,1.126-0.209,1.125-0.776l0.007,1.817c0.001,0.567-0.372,1.136-1.124,1.57l-12.165,7.023
					c-0.092,0.053-0.187,0.101-0.283,0.147c-0.032,0.015-0.066,0.029-0.1,0.043c-0.055,0.024-0.11,0.05-0.168,0.073
					c-0.008,0.003-0.018,0.005-0.025,0.008c-0.133,0.052-0.27,0.098-0.41,0.139c-0.009,0.002-0.018,0.006-0.026,0.009
					c-0.034,0.01-0.071,0.017-0.105,0.025c-0.078,0.021-0.157,0.041-0.237,0.059c-0.019,0.004-0.035,0.009-0.054,0.013
					c-0.036,0.008-0.074,0.012-0.11,0.019c-0.067,0.013-0.133,0.024-0.199,0.035c-0.022,0.003-0.045,0.009-0.067,0.012
					c-0.036,0.005-0.074,0.008-0.11,0.013c-0.063,0.008-0.124,0.015-0.188,0.021c-0.024,0.002-0.049,0.006-0.072,0.008
					c-0.037,0.003-0.073,0.003-0.109,0.005c-0.064,0.004-0.127,0.008-0.19,0.011c-0.024,0.001-0.05,0.003-0.076,0.004
					c-0.033,0-0.067-0.001-0.103,0c-0.068,0-0.137,0-0.205-0.001c-0.027,0-0.056,0-0.082,0c-0.029-0.001-0.058-0.004-0.087-0.006
					c-0.079-0.003-0.159-0.009-0.237-0.016c-0.032-0.002-0.064-0.003-0.096-0.006c-0.02-0.002-0.037-0.005-0.056-0.008
					c-0.137-0.015-0.271-0.033-0.405-0.056c-0.01-0.002-0.021-0.002-0.031-0.005c-0.003,0-0.005-0.001-0.007-0.001
					c-0.104-0.019-0.206-0.041-0.307-0.065c-0.018-0.004-0.036-0.007-0.052-0.011c-0.117-0.029-0.233-0.062-0.346-0.099
					c-0.001,0-0.004,0-0.004-0.001c-0.007-0.002-0.012-0.005-0.018-0.006c-0.135-0.044-0.265-0.095-0.391-0.149
					c-0.037-0.016-0.071-0.032-0.106-0.048c-0.115-0.053-0.226-0.109-0.331-0.171c-0.013-0.007-0.027-0.013-0.04-0.021
					c-0.008-0.005-0.017-0.01-0.024-0.015l-0.008-2.611C312.701,307.682,312.724,307.693,312.744,307.705z"/>
				<g>
					
						<linearGradient id="SVGID_2_" gradientUnits="userSpaceOnUse" x1="2917.3672" y1="298.9189" x2="2952.8447" y2="298.9189" gradientTransform="matrix(-1 0 0 1 3248.7949 0)">
						<stop  offset="0.0394" style="stop-color:#FFFFFF"/>
						<stop  offset="0.3172" style="stop-color:#FCFDFE"/>
						<stop  offset="0.5068" style="stop-color:#F3F7FB"/>
						<stop  offset="0.6701" style="stop-color:#E4EDF7"/>
						<stop  offset="0.8186" style="stop-color:#CEDEF0"/>
						<stop  offset="0.9557" style="stop-color:#B3CBE8"/>
						<stop  offset="1" style="stop-color:#A8C4E5"/>
					</linearGradient>
					<path fill="url(#SVGID_2_)" d="M297.073,295.784c-1.461,0.844-1.501,2.207-0.091,3.074l15.697,9.649
						c1.47,0.903,3.938,0.922,5.459,0.044l12.165-7.023c1.521-0.878,1.495-2.308-0.059-3.163l-16.606-9.123
						c-1.493-0.82-3.847-0.802-5.308,0.042L297.073,295.784z"/>
				</g>
			</g>
			<polygon opacity="0.4" fill="#A8C4E5" points="323.785,294.805 306.643,304.797 302.6,302.373 319.508,292.537 			"/>
			<polygon fill="#9BB7D3" points="306.643,304.797 306.643,306.564 301.535,303.424 301.535,301.8 			"/>
		</g>
		<linearGradient id="SVGID_3_" gradientUnits="userSpaceOnUse" x1="260.6777" y1="293.1421" x2="271.3779" y2="293.1421">
			<stop  offset="0" style="stop-color:#DDECF8"/>
			<stop  offset="0.8835" style="stop-color:#A1CFF7"/>
		</linearGradient>
		<path fill="url(#SVGID_3_)" d="M260.678,269.022c0-0.002,0-0.004,0-0.007c0-0.027,0-0.055,0-0.083
			c0.002-0.027,0.002-0.055,0.004-0.083c0.001-0.003,0.001-0.008,0.001-0.011c0.001-0.004,0.001-0.008,0.001-0.011
			c0.002-0.02,0.003-0.039,0.005-0.058c0.002-0.027,0.005-0.054,0.009-0.082c0.002-0.013,0.004-0.025,0.006-0.039
			c0-0.006,0.001-0.011,0.002-0.017c0.001-0.009,0.002-0.017,0.004-0.026c0.004-0.027,0.009-0.055,0.014-0.082
			c0.005-0.026,0.011-0.052,0.016-0.077c0-0.001,0-0.002,0-0.002c0.002-0.001,0.002-0.002,0.002-0.003
			c0.006-0.027,0.012-0.055,0.019-0.082c0.007-0.027,0.014-0.054,0.021-0.081c0.002-0.008,0.005-0.015,0.007-0.021
			c0.001-0.005,0.003-0.011,0.004-0.016c0.004-0.015,0.008-0.029,0.013-0.043c0.008-0.026,0.017-0.052,0.024-0.078
			c0.007-0.02,0.014-0.039,0.021-0.059c0.001-0.002,0.002-0.005,0.003-0.008c0.001-0.002,0.002-0.006,0.003-0.009
			c0.01-0.024,0.018-0.049,0.027-0.073c0.009-0.023,0.019-0.046,0.029-0.07c0.003-0.01,0.008-0.02,0.013-0.029
			c0.001-0.005,0.003-0.009,0.005-0.013c0.004-0.009,0.007-0.018,0.012-0.027c0.01-0.024,0.021-0.048,0.033-0.072
			c0.011-0.024,0.021-0.047,0.034-0.071c0.001-0.002,0.002-0.004,0.003-0.007c0.003-0.003,0.005-0.007,0.006-0.01
			c0.013-0.025,0.026-0.051,0.039-0.075c0.013-0.023,0.025-0.046,0.039-0.069c0.009-0.016,0.017-0.031,0.026-0.046
			c0.004-0.007,0.007-0.015,0.011-0.022c0.023-0.037,0.046-0.073,0.07-0.109c0.007-0.012,0.015-0.024,0.021-0.036
			c0.003-0.001,0.003-0.004,0.005-0.005c0.029-0.045,0.062-0.091,0.094-0.135c0.004-0.006,0.01-0.012,0.015-0.018
			c0.004-0.006,0.008-0.012,0.013-0.017c0.011-0.015,0.022-0.03,0.034-0.045c0.019-0.024,0.038-0.049,0.059-0.073
			c0.007-0.009,0.016-0.018,0.022-0.027c0.004-0.005,0.009-0.01,0.013-0.014c0.007-0.008,0.015-0.017,0.022-0.026
			c0.019-0.022,0.038-0.044,0.059-0.065c0.015-0.017,0.03-0.033,0.047-0.049c0.002-0.003,0.005-0.006,0.008-0.009
			c0.003-0.002,0.005-0.005,0.008-0.008c0.021-0.022,0.043-0.044,0.065-0.065c0.022-0.022,0.047-0.043,0.069-0.065l0.002,0
			c0-0.001,0-0.001,0-0.001c0.024-0.021,0.047-0.041,0.069-0.06c0.025-0.021,0.049-0.041,0.074-0.06
			c0.003-0.002,0.006-0.005,0.009-0.007c0.004-0.002,0.007-0.005,0.011-0.008c0.018-0.014,0.036-0.028,0.055-0.041
			c0.023-0.018,0.049-0.036,0.073-0.053c0.008-0.005,0.014-0.009,0.021-0.014c0.002-0.001,0.005-0.004,0.008-0.005
			c0-0.001,0-0.001,0-0.001c0.016-0.01,0.031-0.02,0.045-0.03c0.025-0.016,0.051-0.031,0.076-0.046
			c0.006-0.003,0.403-0.231,0.408-0.235l2.24,1.213c0,0-0.535,0.31-0.56,0.326c-0.025,0.016-0.05,0.032-0.075,0.049
			c-0.025,0.017-0.051,0.035-0.074,0.053c-0.025,0.018-0.049,0.037-0.074,0.057c-0.01,0.008-0.02,0.016-0.03,0.024
			c-0.038,0.031-0.077,0.063-0.114,0.098l0,0l0,0c-0.038,0.034-0.076,0.07-0.112,0.105c-0.004,0.005-0.008,0.01-0.014,0.014
			c-0.034,0.035-0.067,0.071-0.101,0.107c-0.006,0.006-0.011,0.011-0.015,0.017c-0.032,0.036-0.063,0.073-0.095,0.111
			c-0.006,0.007-0.011,0.014-0.016,0.021c-0.031,0.038-0.061,0.076-0.09,0.115c-0.014,0.021-0.027,0.041-0.042,0.062
			c-0.019,0.024-0.036,0.05-0.053,0.075c-0.019,0.03-0.037,0.06-0.056,0.089c-0.012,0.019-0.024,0.038-0.036,0.058
			c-0.01,0.017-0.02,0.035-0.03,0.052c-0.018,0.031-0.034,0.062-0.051,0.093c-0.006,0.009-0.01,0.018-0.014,0.026
			c-0.021,0.043-0.044,0.086-0.064,0.13c-0.001,0.003-0.004,0.007-0.006,0.011c-0.021,0.046-0.041,0.093-0.061,0.141
			c-0.002,0.004-0.004,0.009-0.006,0.014c-0.018,0.046-0.035,0.093-0.052,0.139c-0.003,0.005-0.005,0.011-0.007,0.018
			c-0.016,0.045-0.03,0.091-0.044,0.137c-0.002,0.007-0.004,0.014-0.006,0.021c-0.013,0.046-0.025,0.091-0.036,0.137
			c-0.002,0.007-0.004,0.014-0.005,0.021c-0.011,0.046-0.02,0.092-0.028,0.138c-0.001,0.007-0.002,0.013-0.004,0.02
			c-0.007,0.046-0.015,0.093-0.02,0.139c-0.001,0.006-0.002,0.012-0.002,0.018c-0.006,0.046-0.01,0.094-0.013,0.14
			c-0.001,0.023-0.002,0.046-0.003,0.069c-0.002,0.027-0.002,0.055-0.002,0.083c0,0.028,0.002,0.057,0.003,0.085
			c0.001,0.029,0.003,0.057,0.005,0.085c0.002,0.031,0.006,0.062,0.01,0.092c0.003,0.024,0.006,0.047,0.01,0.071
			c0,0,0.008,0.047,0.021,0.127l7.741,47.844c0.036,0.227,0.918,1.683,0.719,1.567l-2.117-1.794
			c-0.448-0.38-0.745-0.907-0.839-1.487l-7.597-46.945c-0.036-0.228-0.092-0.569-0.092-0.569c-0.004-0.023-0.007-0.047-0.011-0.07
			c-0.002-0.021-0.004-0.041-0.006-0.061c0-0.001-0.001-0.002-0.001-0.004c0-0.002,0-0.005,0-0.008
			c-0.001-0.007-0.002-0.013-0.002-0.02c-0.002-0.029-0.005-0.057-0.005-0.086c-0.002-0.022-0.002-0.046-0.002-0.068
			C260.678,269.03,260.678,269.026,260.678,269.022z"/>
		<g>
			
				<linearGradient id="SVGID_4_" gradientUnits="userSpaceOnUse" x1="2900.1387" y1="272.3613" x2="2986.041" y2="272.3613" gradientTransform="matrix(-1 0 0 1 3248.7949 0)">
				<stop  offset="0.0394" style="stop-color:#FFFFFF"/>
				<stop  offset="0.3172" style="stop-color:#FCFDFE"/>
				<stop  offset="0.5068" style="stop-color:#F3F7FB"/>
				<stop  offset="0.6701" style="stop-color:#E4EDF7"/>
				<stop  offset="0.8186" style="stop-color:#CEDEF0"/>
				<stop  offset="0.9557" style="stop-color:#B3CBE8"/>
				<stop  offset="1" style="stop-color:#A8C4E5"/>
			</linearGradient>
			<path fill="url(#SVGID_4_)" d="M264.293,267.615c-1.008,0.583-1.686,1.921-1.512,2.992l7.854,48.54
				c0.172,1.07,1.13,1.465,2.14,0.883l74.342-42.921c1.009-0.583,1.687-1.921,1.513-2.991l-7.854-48.541
				c-0.173-1.07-1.13-1.465-2.139-0.883L264.293,267.615z"/>
		</g>
		<linearGradient id="SVGID_5_" gradientUnits="userSpaceOnUse" x1="261.5811" y1="239.7139" x2="339.3359" y2="239.7139">
			<stop  offset="0" style="stop-color:#DDECF8"/>
			<stop  offset="0.4104" style="stop-color:#A3D0F7"/>
			<stop  offset="0.8835" style="stop-color:#A1CFF7"/>
		</linearGradient>
		<path fill="url(#SVGID_5_)" d="M261.717,260.938l1.619,0.941c0.085,0.05,0.189,0.05,0.273,0l73.799-42.607l0,0l0.408-0.235
			c0.02-0.012,0.038-0.022,0.059-0.033c0.024-0.014,0.05-0.027,0.076-0.039c0.061-0.031,0.123-0.057,0.184-0.081
			c0.006-0.002,0.011-0.004,0.018-0.006c0.057-0.021,0.114-0.04,0.172-0.055c0.004-0.001,0.008-0.003,0.014-0.004
			c0.059-0.015,0.115-0.026,0.172-0.034c0.004,0,0.008-0.001,0.012-0.002c0.053-0.008,0.106-0.011,0.158-0.013
			c0.01,0,0.02-0.001,0.029-0.001c0.052,0,0.102,0.001,0.151,0.006c0.014,0.002,0.026,0.004,0.04,0.006
			c0.035,0.005,0.07,0.011,0.105,0.019c0.029,0.007,0.058,0.015,0.086,0.023c0.023,0.007,0.048,0.015,0.07,0.023
			c0.06,0.022,0.118,0.048,0.174,0.08l-2.164-1.257c-0.057-0.033-0.115-0.059-0.177-0.082c-0.006-0.001-0.01-0.004-0.015-0.007
			c-0.004-0.001-0.008-0.001-0.011-0.003c-0.047-0.016-0.096-0.029-0.146-0.04c-0.003,0-0.006-0.002-0.009-0.002
			c-0.013-0.003-0.027-0.004-0.041-0.006c-0.024-0.004-0.05-0.008-0.075-0.011c-0.005,0-0.01-0.002-0.016-0.002
			c-0.019-0.001-0.037-0.001-0.057-0.002c-0.016,0-0.031-0.002-0.047-0.002c-0.004,0-0.007,0-0.011,0
			c-0.034,0-0.07,0.001-0.104,0.004h-0.002c-0.002,0-0.006,0-0.008,0c-0.029,0.002-0.06,0.005-0.09,0.009
			c-0.007,0.001-0.016,0.002-0.023,0.003c-0.01,0.002-0.02,0.004-0.03,0.005c-0.013,0.002-0.025,0.004-0.038,0.006
			c-0.023,0.005-0.049,0.01-0.072,0.016c-0.004,0-0.006,0.001-0.009,0.001v0c-0.002,0-0.003,0-0.005,0.001
			c-0.028,0.006-0.057,0.015-0.086,0.023c-0.026,0.008-0.053,0.017-0.08,0.026c-0.026,0.009-0.054,0.02-0.08,0.03
			c-0.025,0.01-0.052,0.021-0.078,0.033c-0.024,0.011-0.051,0.023-0.076,0.036s-0.051,0.025-0.076,0.04
			c-0.012,0.006-0.11,0.063-0.195,0.111v0l-0.11,0.063c-0.001,0-0.004,0.003-0.004,0.003l0,0l-73.684,42.542
			C261.536,260.571,261.535,260.833,261.717,260.938z M336.129,218.057L336.129,218.057L336.129,218.057L336.129,218.057z"/>
		<linearGradient id="SVGID_6_" gradientUnits="userSpaceOnUse" x1="259.7695" y1="287.0835" x2="270.4697" y2="287.0835">
			<stop  offset="0" style="stop-color:#DDECF8"/>
			<stop  offset="0.8835" style="stop-color:#A1CFF7"/>
		</linearGradient>
		<path fill="url(#SVGID_6_)" d="M259.77,263.367c0-0.002,0-0.005,0-0.008c0-0.027,0-0.055,0.001-0.082s0.002-0.055,0.004-0.083
			c0-0.004,0-0.008,0.001-0.012c0-0.003,0-0.007,0-0.011c0.002-0.02,0.003-0.039,0.006-0.059c0.002-0.026,0.005-0.054,0.008-0.081
			c0.002-0.013,0.004-0.025,0.006-0.038c0.002-0.006,0.002-0.011,0.002-0.017c0.002-0.009,0.003-0.018,0.004-0.026
			c0.005-0.027,0.009-0.055,0.015-0.082c0.005-0.025,0.011-0.051,0.016-0.077l0.001-0.002c0,0,0-0.002,0-0.002
			c0.006-0.027,0.013-0.055,0.019-0.082c0.007-0.027,0.015-0.054,0.022-0.081c0.002-0.007,0.004-0.015,0.006-0.022
			c0.001-0.005,0.003-0.01,0.004-0.015c0.004-0.015,0.009-0.029,0.013-0.044c0.009-0.025,0.017-0.052,0.025-0.077
			c0.006-0.02,0.013-0.039,0.021-0.059c0.001-0.002,0.001-0.005,0.002-0.008c0.001-0.002,0.002-0.005,0.003-0.009
			c0.01-0.024,0.019-0.048,0.028-0.073c0.009-0.024,0.018-0.047,0.028-0.07c0.004-0.01,0.009-0.02,0.013-0.03
			c0.001-0.004,0.003-0.008,0.005-0.012c0.005-0.01,0.008-0.019,0.012-0.028c0.011-0.024,0.022-0.048,0.033-0.072
			c0.012-0.024,0.023-0.048,0.034-0.072c0.002-0.002,0.002-0.004,0.004-0.007c0.002-0.003,0.004-0.007,0.006-0.011
			c0.013-0.025,0.025-0.05,0.039-0.075c0.012-0.023,0.025-0.046,0.038-0.069c0.009-0.016,0.017-0.031,0.026-0.046
			c0.004-0.007,0.008-0.014,0.013-0.021c0.021-0.037,0.045-0.073,0.068-0.109c0.008-0.012,0.015-0.024,0.022-0.036
			c0.002-0.002,0.003-0.003,0.004-0.005c0.03-0.046,0.062-0.091,0.094-0.134c0.006-0.006,0.01-0.012,0.015-0.019
			c0.004-0.005,0.009-0.011,0.013-0.017c0.012-0.015,0.023-0.03,0.034-0.045c0.019-0.024,0.039-0.049,0.059-0.073
			c0.009-0.009,0.016-0.018,0.022-0.026c0.005-0.005,0.009-0.009,0.013-0.014c0.008-0.008,0.015-0.017,0.022-0.025
			c0.02-0.022,0.039-0.044,0.06-0.066c0.015-0.016,0.03-0.032,0.046-0.048c0.003-0.003,0.006-0.006,0.008-0.009
			c0.004-0.003,0.006-0.006,0.008-0.008c0.021-0.022,0.043-0.043,0.065-0.065c0.022-0.022,0.047-0.043,0.07-0.065l0.001-0.001
			l0.002-0.001c0.022-0.02,0.046-0.04,0.068-0.06c0.024-0.021,0.049-0.041,0.073-0.06c0.003-0.002,0.007-0.004,0.01-0.007
			c0.003-0.003,0.007-0.005,0.011-0.008c0.018-0.014,0.035-0.027,0.054-0.041c0.024-0.018,0.049-0.036,0.074-0.053
			c0.007-0.005,0.015-0.009,0.021-0.014c0.004-0.001,0.006-0.003,0.008-0.005l0.001-0.001c0.016-0.01,0.03-0.02,0.046-0.029
			c0.023-0.016,0.049-0.031,0.075-0.046c0.005-0.004,1.794-1.037,1.8-1.04l2.209,1.334c0,0-1.896,0.993-1.921,1.009
			c-0.024,0.016-0.05,0.032-0.075,0.049c-0.025,0.018-0.05,0.035-0.074,0.053c-0.025,0.019-0.049,0.037-0.074,0.056
			c-0.009,0.008-0.02,0.017-0.029,0.025c-0.039,0.031-0.078,0.063-0.114,0.098l0,0h-0.001c-0.037,0.034-0.075,0.069-0.111,0.106
			c-0.005,0.004-0.009,0.009-0.014,0.013c-0.035,0.035-0.068,0.071-0.102,0.108c-0.005,0.005-0.01,0.011-0.015,0.017
			c-0.032,0.036-0.063,0.073-0.094,0.11c-0.007,0.007-0.012,0.014-0.017,0.021c-0.03,0.038-0.06,0.076-0.089,0.115
			c-0.015,0.021-0.028,0.041-0.043,0.061c-0.018,0.025-0.035,0.05-0.052,0.075c-0.02,0.029-0.038,0.06-0.057,0.089
			c-0.012,0.019-0.023,0.039-0.035,0.059c-0.011,0.017-0.021,0.035-0.03,0.052c-0.017,0.031-0.035,0.062-0.052,0.093
			c-0.004,0.009-0.008,0.017-0.014,0.025c-0.021,0.043-0.043,0.087-0.064,0.131c-0.001,0.004-0.003,0.007-0.005,0.011
			c-0.021,0.047-0.042,0.093-0.061,0.14c-0.002,0.004-0.005,0.01-0.007,0.015c-0.018,0.046-0.035,0.092-0.052,0.138
			c-0.002,0.006-0.004,0.012-0.007,0.018c-0.016,0.046-0.029,0.092-0.043,0.138c-0.002,0.007-0.004,0.014-0.007,0.021
			c-0.013,0.045-0.024,0.091-0.035,0.137c-0.002,0.007-0.003,0.014-0.005,0.021c-0.011,0.046-0.021,0.092-0.028,0.138
			c-0.001,0.007-0.003,0.014-0.005,0.021c-0.007,0.046-0.014,0.093-0.02,0.139c-0.001,0.006-0.001,0.012-0.002,0.018
			c-0.005,0.047-0.01,0.094-0.013,0.14c-0.001,0.023-0.002,0.047-0.003,0.07c-0.001,0.028-0.001,0.055-0.001,0.083
			c0,0.029,0.001,0.058,0.002,0.085c0.001,0.029,0.003,0.058,0.005,0.085c0.004,0.031,0.007,0.062,0.01,0.092
			c0.003,0.024,0.008,0.048,0.011,0.071c0,0,0.007,0.046,0.021,0.127l7.741,47.844c0.036,0.228,0.918,1.683,0.719,1.567
			l-2.116-1.794c-0.448-0.38-0.746-0.907-0.84-1.487l-7.596-46.945c-0.037-0.228-0.092-0.569-0.092-0.569
			c-0.005-0.023-0.008-0.047-0.011-0.071c-0.002-0.02-0.005-0.04-0.007-0.06c0-0.001-0.001-0.002-0.001-0.003
			c0-0.003,0-0.005,0-0.008c-0.001-0.006-0.002-0.013-0.002-0.02c-0.002-0.028-0.004-0.057-0.005-0.085
			c-0.001-0.022-0.001-0.045-0.002-0.068C259.77,263.373,259.77,263.37,259.77,263.367z"/>
		<g>
			<g>
				<path fill="#283D75" d="M263.473,261.959c-1.009,0.582-1.687,1.921-1.513,2.991l7.854,48.54c0.172,1.071,1.132,1.465,2.14,0.883
					l74.342-42.921c1.01-0.583,1.687-1.921,1.514-2.992l-7.854-48.541c-0.173-1.07-1.13-1.465-2.139-0.883L263.473,261.959z"/>
			</g>
		</g>
		<g>
			<g>
				<path fill="#7EC0F7" d="M266.128,265.083c-0.957,0.542-1.606,1.709-1.45,2.606l7.105,40.723
					c0.155,0.898,1.058,1.186,2.015,0.644l70.514-39.946c0.956-0.542,1.604-1.708,1.448-2.606l-7.103-40.723
					c-0.156-0.898-1.058-1.186-2.015-0.644L266.128,265.083z"/>
			</g>
		</g>
		<path fill="#FFFFFF" d="M299.908,243.711c0,0.468,0.33,0.656,0.737,0.42c0.408-0.234,0.737-0.804,0.737-1.272
			c0-0.467-0.33-0.655-0.737-0.42C300.238,242.674,299.908,243.244,299.908,243.711z"/>
	</g>
	<g>
		<path opacity="0.28" fill="#FFFFFF" d="M276.183,305.298l64.131-37.026c1.06-0.612,1.729-2.264,1.498-3.69l-5.573-34.202
			c-0.232-1.426-1.28-2.086-2.34-1.475l-64.131,37.027c-1.061,0.611-1.73,2.263-1.498,3.689l5.573,34.202
			C274.075,305.249,275.123,305.91,276.183,305.298z"/>
		<path fill="#283D75" d="M268.893,273.44l-0.682-4.179c-0.199-1.228,0.637-2.798,1.867-3.509l63.51-36.667
			c1.23-0.711,2.392-0.292,2.591,0.936l0.682,4.179L268.893,273.44z"/>
		<path fill="#97CBFF" d="M331.292,234.294c0.091,0.554,0.614,0.744,1.171,0.422c0.556-0.321,0.934-1.031,0.843-1.585
			c-0.09-0.555-0.614-0.744-1.171-0.423S331.201,233.74,331.292,234.294z"/>
		<path fill="#D84177" d="M327.223,236.643c0.091,0.555,0.615,0.744,1.171,0.422c0.557-0.321,0.935-1.031,0.844-1.585
			c-0.09-0.555-0.614-0.744-1.171-0.423S327.133,236.089,327.223,236.643z"/>
		<path fill="#6271F0" d="M323.154,238.993c0.091,0.554,0.614,0.743,1.171,0.422c0.556-0.321,0.934-1.031,0.844-1.585
			c-0.091-0.555-0.614-0.744-1.171-0.423C323.441,237.728,323.064,238.438,323.154,238.993z"/>
	</g>
	<path opacity="0.34" fill="#283D75" d="M317.59,248.296l13.375-7.722c0.682-0.394,1.354,0.031,1.505,0.948l3.938,24.173
		c0.15,0.917-0.281,1.979-0.962,2.372l-13.376,7.722c-0.681,0.394-1.354-0.031-1.503-0.948l-3.939-24.173
		C316.479,249.751,316.909,248.689,317.59,248.296z"/>
	<g>
		<path fill="#FFFFFF" d="M325.29,277.053l13.376-7.722c0.681-0.394,1.112-1.456,0.963-2.373l-3.939-24.173
			c-0.149-0.917-0.823-1.341-1.504-0.948l-13.375,7.722c-0.682,0.394-1.113,1.456-0.964,2.372l3.939,24.173
			C323.936,277.021,324.609,277.446,325.29,277.053z"/>
		<path fill="#C64832" d="M323.322,254.969l10.394-6.001c0.496-0.286,0.809-1.058,0.7-1.723l0,0
			c-0.108-0.667-0.598-0.975-1.094-0.689l-10.393,6.001c-0.496,0.286-0.809,1.058-0.7,1.724l0,0
			C322.338,254.946,322.827,255.254,323.322,254.969z"/>
		<polygon fill="#A7D1E8" points="323.109,259.675 334.953,252.837 334.642,250.928 322.797,257.766 		"/>
		<polygon fill="#A7D1E8" points="323.822,264.049 335.665,257.211 335.354,255.302 323.511,262.14 		"/>
		<polygon fill="#A7D1E8" points="324.535,268.423 336.378,261.585 336.067,259.676 324.224,266.514 		"/>
		<polygon fill="#A7D1E8" points="331.301,269.042 337.053,265.721 336.741,263.813 330.99,267.133 		"/>
	</g>
	<g>
		<path fill="#FFFFFF" d="M280.355,299.221l36.093-20.838c0.681-0.394,1.111-1.456,0.962-2.373l-3.939-24.173
			c-0.149-0.917-0.822-1.341-1.504-0.948l-36.092,20.838c-0.681,0.394-1.111,1.455-0.963,2.373l3.939,24.173
			C279.001,299.19,279.674,299.614,280.355,299.221z"/>
		<g>
			<path fill="#C64832" d="M278.876,276.854l32.134-18.552c0.495-0.286,0.809-1.057,0.699-1.724l0,0
				c-0.108-0.667-0.598-0.975-1.092-0.688l-32.134,18.552c-0.495,0.286-0.809,1.057-0.7,1.723l0,0
				C277.892,276.832,278.381,277.141,278.876,276.854z"/>
			<path fill="#97CBFF" d="M279.79,280.91l12.53-7.233c0.391-0.227,0.639-0.837,0.553-1.364l0,0
				c-0.086-0.527-0.473-0.771-0.865-0.545l-12.529,7.234c-0.391,0.227-0.639,0.837-0.554,1.364l0,0
				C279.012,280.892,279.398,281.136,279.79,280.91z"/>
			<path fill="#97CBFF" d="M298.85,269.906l12.53-7.234c0.392-0.226,0.639-0.836,0.553-1.364l0,0
				c-0.085-0.527-0.473-0.771-0.864-0.545l-12.529,7.234c-0.392,0.226-0.641,0.836-0.554,1.364l0,0
				C298.071,269.888,298.458,270.132,298.85,269.906z"/>
			<polygon fill="#A7D1E8" points="279.794,285.693 293.741,277.641 293.431,275.732 279.483,283.785 			"/>
			<polygon fill="#A7D1E8" points="298.854,274.689 312.801,266.637 312.49,264.728 298.543,272.78 			"/>
			<polygon fill="#A7D1E8" points="280.507,290.068 294.454,282.015 294.143,280.107 280.195,288.159 			"/>
			<polygon fill="#A7D1E8" points="299.566,279.064 313.514,271.011 313.203,269.103 299.256,277.155 			"/>
			<polygon fill="#A7D1E8" points="308.438,278.467 314.188,275.146 313.877,273.238 308.127,276.558 			"/>
			<polygon fill="#A7D1E8" points="289.377,289.471 295.128,286.151 294.817,284.242 289.066,287.563 			"/>
		</g>
	</g>
	<path fill="#C2E3FF" d="M362.719,397.024c2.898,2.264,9.116,8.732,11.103,5.555c0.127,1.684,0.226,3.369,0.277,5.053
		c0.211,6.867-10.464,7.478-10.675,0.585C363.383,406.858,362.81,398.384,362.719,397.024z"/>
	<path fill="#C2E3FF" d="M380.977,382.892c-3.518-2.492-7.243-4.933-11.384-6.239c-1.836-0.579-2.887-0.85-4.409-0.912
		c-0.689-0.028-1.383-0.02-2.071,0.03c-1.543,0.111,0.492-0.193-0.828,0.162c-0.267,0.072-2.497,0.912-1.331,0.368
		c-0.543,0.253-1.057,0.563-1.567,0.876c-1.499,0.916,0.728-0.765-0.572,0.422c-0.446,0.406-0.866,0.833-1.276,1.274
		c-0.484,0.58-0.527,0.614-0.129,0.101c-0.244,0.336-0.478,0.678-0.698,1.026c-0.326,0.544-0.652,1.082-0.946,1.645
		c-0.014,0.029-0.817,1.831-0.407,0.81c-0.291,0.725-0.532,1.471-0.753,2.221c-1.336,4.523-1.681,9.297-2.41,14.635
		c-0.804,5.877-1.788,13.451-1.379,20c0.221,3.525-3.16,6.534-6.535,6.534c-3.72,0-5.302-2.948-5.523-6.485
		c-0.509-8.166-0.146-16.572,0.99-24.634c0.233-1.657,0.48-3.313,0.727-4.97c0.085-0.566,0.154-1.139,0.252-1.703
		c0.219-1.254-0.268,1.615-0.096,0.703c0.811-4.322,1.326-8.183,3.159-12.246c2.97-6.58,8.718-11.993,15.96-13.369
		c10.063-1.914,19.809,2.789,27.825,8.467c2.875,2.038,4.235,5.706,2.344,8.941C388.254,383.391,383.871,384.942,380.977,382.892
		L380.977,382.892z"/>
	<circle fill="#2C4482" cx="421.924" cy="444.254" r="4.839"/>
	<circle fill="#2C4482" cx="418.381" cy="420.956" r="4.84"/>
	<circle fill="#2C4482" cx="361.297" cy="420.638" r="4.84"/>
	<circle fill="#2C4482" cx="356.082" cy="444.743" r="4.84"/>
	<circle fill="#2C4482" cx="387.998" cy="457.443" r="4.84"/>
	<path fill="#DCEFFF" d="M376.64,405.62c2.091,1.207,5.493,1.2,7.597-0.014c2.105-1.215,2.115-3.18,0.024-4.387
		s-5.492-1.201-7.597,0.014C374.56,402.449,374.549,404.412,376.64,405.62z"/>
	<polygon fill="#D7E8F7" points="382.123,400.481 380.309,425.274 394.192,425.274 392.272,399.153 	"/>
	<path fill="#D7E8F7" d="M356.154,444.333l30.124-17.43l-2.434-3.55l-32.42,17.674c-1.178,0.682-1.077,1.983,0.224,2.892l0,0
		C352.949,444.828,354.978,445.014,356.154,444.333z"/>
	<path fill="#D7E8F7" d="M389.132,427.159l31.722-8.453c1.394-0.372,1.571-1.641,0.396-2.82l0,0
		c-1.177-1.18-3.279-1.841-4.673-1.469l-29.328,7.816L389.132,427.159z"/>
	<path fill="#D7E8F7" d="M425.235,439.149l-33.333-15.858l-3.381,4.237l31.694,15.079c1.62,0.771,3.995,0.681,5.276-0.202
		l0.361-0.248C427.136,441.274,426.855,439.921,425.235,439.149z"/>
	<path fill="#D7E8F7" d="M392.053,425.116l-27.31-10.053c-1.748-0.643-4.278-0.533-5.625,0.244l-0.382,0.221
		c-1.348,0.777-1.02,1.939,0.729,2.582l28.354,10.438L392.053,425.116z"/>
	<path fill="#D7E8F7" d="M391.707,455.355l-0.365-31.76l-6.289,0.493l0.355,31.016c0.021,1.67,1.453,3.09,3.185,3.158l0,0
		C390.325,458.331,391.727,457.022,391.707,455.355z"/>
	<path fill="#2C4482" d="M338.202,385.771l-0.046-3.809l5.244-0.178l41.044-23.696c2.362-1.365,6.528-1.192,9.258,0.383
		l35.334,20.401l3.304-0.113l0.086,3.785l-0.003,0.001c0.003,0.872-0.515,1.708-1.588,2.327l-44.693,25.803
		c-2.364,1.365-6.53,1.192-9.258-0.383l-36.47-21.056c-1.265-0.73-2-1.64-2.197-2.541h-0.003v-0.016
		C338.148,386.373,338.14,386.067,338.202,385.771z"/>
	<path fill="#3C5CB0" d="M386.142,406.294l44.693-25.805c2.363-1.363,2.063-3.77-0.665-5.344l-36.468-21.056
		c-2.729-1.575-6.896-1.748-9.258-0.383l-44.694,25.805c-2.363,1.363-2.063,3.77,0.664,5.344l36.47,21.055
		C379.611,407.485,383.777,407.659,386.142,406.294z"/>
	<path fill="#4C73DB" d="M364.326,391.202l17.797-10.275c0.941-0.543,0.822-1.5-0.264-2.129l-14.521-8.383
		c-1.087-0.628-2.746-0.696-3.688-0.153l-17.797,10.275c-0.941,0.544-0.821,1.502,0.266,2.129l14.521,8.385
		C361.727,391.677,363.386,391.745,364.326,391.202z"/>
	<path fill="#4C73DB" d="M385.631,404.755l17.797-10.275c0.941-0.544,0.821-1.502-0.265-2.129l-14.521-8.385
		c-1.087-0.627-2.745-0.695-3.687-0.152l-17.797,10.275c-0.941,0.543-0.822,1.501,0.264,2.128l14.522,8.386
		C383.03,405.229,384.689,405.298,385.631,404.755z"/>
	<path fill="#C2E3FF" d="M399.145,383.28c-6.355-4.205-13.377-7.931-20.21-11.302c-5.379-2.654-11.113-4.771-16.895-6.359
		c-3.538-0.972-4.875-3.926-4.579-6.759l9.411-5.46c6.133,1.782,12.159,4.186,17.909,6.931c7.105,3.393,14.391,7.32,20.96,11.666
		C412.725,376.616,406.188,387.939,399.145,383.28L399.145,383.28z"/>
	<g>
		<g>
			<path fill="#5D5D87" d="M429.521,347.49c-8.559-4.69-17.118-9.379-25.677-14.068c-4.72-2.585-14.921-7.396-19.605-1.97
				c-2.967,3.437-2.914,8.993-3.136,13.273c-0.282,5.461-0.023,10.925,0.006,16.387c0.017,3.118,4.853,3.119,4.836,0
				c-0.044-8.075-0.976-16.672,1.004-24.581c1.797-7.179,16.047,1.939,19.407,3.78c6.908,3.785,13.816,7.569,20.724,11.355
				C429.816,353.165,432.256,348.989,429.521,347.49L429.521,347.49z"/>
		</g>
	</g>
	<path fill="#8AACCE" d="M312.895,322.891l48.216-27.837c0.275-0.159,0.616-0.158,0.89,0.005l14.639,8.638
		c0.582,0.344,0.578,1.188-0.008,1.526l-48.053,27.743c-0.273,0.158-0.609,0.158-0.883,0l-14.801-8.545
		C312.307,324.082,312.307,323.231,312.895,322.891z"/>
	<path fill="#FFFFFF" d="M328.455,330.83l48.053-27.743c0.586-0.338,0.59-1.182,0.008-1.526l-14.639-8.639
		c-0.273-0.163-0.614-0.164-0.89-0.004l-48.216,27.837c-0.588,0.34-0.588,1.19,0,1.53l14.801,8.545
		C327.846,330.987,328.182,330.987,328.455,330.83z"/>
	<path fill="#A8C4E5" d="M359.496,297.239c0.077,0.045,0.236,0.027,0.353-0.041l3.241-1.871c0.117-0.067,0.149-0.159,0.071-0.204
		l-2.146-1.241c-0.079-0.045-0.236-0.026-0.353,0.041l-3.242,1.871c-0.117,0.067-0.15,0.159-0.071,0.204L359.496,297.239z"/>
	<path fill="#A8C4E5" d="M355.735,302.825c0.078,0.045,0.234,0.027,0.354-0.041l3.241-1.871c0.117-0.067,0.148-0.158,0.07-0.203
		l-2.149-1.242c-0.076-0.043-0.233-0.026-0.351,0.042l-3.241,1.871c-0.118,0.068-0.149,0.159-0.071,0.203L355.735,302.825z"/>
	<path fill="#A8C4E5" d="M357.637,305.143c0.077,0.046,0.234,0.026,0.352-0.041l3.242-1.871c0.115-0.066,0.149-0.158,0.072-0.203
		l-2.148-1.241c-0.076-0.044-0.236-0.024-0.353,0.042l-3.242,1.871c-0.116,0.067-0.147,0.159-0.071,0.203L357.637,305.143z"/>
	<path fill="#A8C4E5" d="M362.78,305.591c0.076,0.044,0.234,0.026,0.351-0.041l3.242-1.871c0.116-0.067,0.147-0.159,0.071-0.203
		l-2.149-1.241c-0.076-0.045-0.235-0.026-0.352,0.04l-3.241,1.872c-0.116,0.066-0.147,0.158-0.071,0.203L362.78,305.591z"/>
	<path fill="#A8C4E5" d="M366.111,307.515c0.078,0.045,0.265,0.01,0.42-0.079l4.246-2.451c0.152-0.088,0.215-0.197,0.138-0.242
		l-2.522-1.457c-0.076-0.043-0.267-0.009-0.418,0.079l-4.247,2.451c-0.154,0.089-0.214,0.198-0.139,0.242L366.111,307.515z"/>
	<path fill="#A8C4E5" d="M338.209,323.64c0.065,0.037,0.213,0.012,0.329-0.055l3.239-1.87c0.119-0.067,0.162-0.153,0.098-0.191
		l-0.933-0.538c-0.063-0.037-0.213-0.012-0.331,0.056l-3.238,1.87c-0.117,0.067-0.159,0.153-0.096,0.19L338.209,323.64z"/>
	<path fill="#A8C4E5" d="M333.879,326.205c0.064,0.037,0.212,0.012,0.328-0.055l3.239-1.87c0.118-0.068,0.162-0.154,0.098-0.191
		l-0.933-0.539c-0.064-0.037-0.213-0.013-0.331,0.056l-3.239,1.87c-0.116,0.067-0.159,0.153-0.096,0.19L333.879,326.205z"/>
	<path fill="#A8C4E5" d="M329.287,328.794c0.062,0.036,0.207,0.01,0.324-0.057l3.24-1.87c0.116-0.067,0.163-0.152,0.102-0.188
		l-0.898-0.519c-0.062-0.036-0.21-0.009-0.326,0.059l-3.24,1.87c-0.116,0.067-0.161,0.152-0.1,0.188L329.287,328.794z"/>
	<path fill="#A8C4E5" d="M332.111,325.216c0.062,0.036,0.207,0.01,0.324-0.058l3.24-1.87c0.117-0.067,0.163-0.152,0.102-0.188
		l-0.898-0.52c-0.063-0.035-0.21-0.009-0.326,0.058l-3.24,1.87c-0.117,0.067-0.162,0.152-0.1,0.187L332.111,325.216z"/>
	<path fill="#A8C4E5" d="M343.813,320.381c0.078,0.045,0.236,0.025,0.354-0.042l21.096-12.174c0.115-0.066,0.149-0.159,0.072-0.204
		l-2.522-1.457c-0.076-0.044-0.238-0.025-0.353,0.042l-21.095,12.174c-0.118,0.067-0.149,0.16-0.073,0.204L343.813,320.381z"/>
	<path fill="#A8C4E5" d="M345.974,318.536c0.004,0.003,0.085-0.039,0.179-0.093l16.789-9.689c0.092-0.053,0.165-0.1,0.16-0.103
		l-0.156-0.09c-0.006-0.003-0.087,0.04-0.178,0.092l-16.79,9.689c-0.093,0.054-0.166,0.1-0.16,0.103L345.974,318.536z"/>
	<path fill="#A8C4E5" d="M358.336,308.153c0.077,0.044,0.235,0.026,0.353-0.042l3.241-1.871c0.115-0.066,0.149-0.159,0.072-0.204
		l-2.148-1.241c-0.076-0.044-0.237-0.025-0.353,0.041l-3.241,1.871c-0.117,0.068-0.148,0.159-0.072,0.204L358.336,308.153z"/>
	<path fill="#A8C4E5" d="M353.873,310.729c0.076,0.044,0.236,0.025,0.351-0.041l3.241-1.871c0.116-0.067,0.149-0.159,0.072-0.204
		l-2.147-1.241c-0.077-0.044-0.237-0.026-0.354,0.041l-3.241,1.871c-0.115,0.066-0.147,0.159-0.07,0.203L353.873,310.729z"/>
	<path fill="#A8C4E5" d="M349.409,313.305c0.077,0.044,0.235,0.026,0.352-0.041l3.241-1.871c0.115-0.066,0.148-0.158,0.071-0.202
		l-2.147-1.241c-0.078-0.044-0.237-0.026-0.353,0.041l-3.242,1.871c-0.116,0.066-0.147,0.159-0.069,0.203L349.409,313.305z"/>
	<path fill="#A8C4E5" d="M344.945,315.881c0.076,0.044,0.235,0.027,0.352-0.041l3.242-1.871c0.116-0.068,0.148-0.159,0.071-0.204
		l-2.147-1.241c-0.077-0.045-0.236-0.026-0.354,0.041l-3.241,1.871c-0.117,0.067-0.148,0.159-0.071,0.204L344.945,315.881z"/>
	<path fill="#A8C4E5" d="M340.481,318.457c0.077,0.044,0.237,0.025,0.354-0.042l3.24-1.87c0.116-0.067,0.148-0.159,0.071-0.203
		l-2.147-1.241c-0.077-0.044-0.236-0.026-0.353,0.041l-3.24,1.87c-0.117,0.067-0.15,0.16-0.072,0.205L340.481,318.457z"/>
	<path fill="#A8C4E5" d="M336.018,321.031c0.076,0.044,0.235,0.026,0.352-0.041l3.24-1.87c0.117-0.068,0.15-0.159,0.072-0.204
		l-2.147-1.241c-0.077-0.044-0.237-0.026-0.353,0.042l-3.241,1.871c-0.116,0.066-0.148,0.159-0.071,0.203L336.018,321.031z"/>
	<path fill="#A8C4E5" d="M325.963,326.833c0.078,0.044,0.236,0.026,0.352-0.041l8.833-5.097c0.116-0.067,0.148-0.159,0.071-0.204
		l-2.147-1.241c-0.077-0.044-0.236-0.027-0.353,0.041l-8.832,5.097c-0.117,0.067-0.148,0.159-0.071,0.204L325.963,326.833z"/>
	<path fill="#A8C4E5" d="M353.194,307.705c0.078,0.045,0.233,0.027,0.351-0.041l3.242-1.871c0.115-0.067,0.149-0.158,0.07-0.203
		l-2.148-1.241c-0.076-0.044-0.233-0.025-0.351,0.042l-3.242,1.87c-0.117,0.068-0.146,0.158-0.071,0.202L353.194,307.705z"/>
	<path fill="#A8C4E5" d="M348.729,310.281c0.078,0.045,0.236,0.025,0.351-0.041l3.244-1.871c0.115-0.067,0.147-0.158,0.069-0.203
		l-2.147-1.241c-0.076-0.044-0.234-0.026-0.35,0.041l-3.244,1.871c-0.115,0.067-0.147,0.159-0.071,0.203L348.729,310.281z"/>
	<path fill="#A8C4E5" d="M344.267,312.857c0.077,0.045,0.235,0.025,0.352-0.042l3.241-1.871c0.115-0.066,0.15-0.158,0.073-0.203
		l-2.149-1.242c-0.076-0.043-0.237-0.024-0.353,0.042l-3.241,1.871c-0.115,0.067-0.148,0.159-0.072,0.203L344.267,312.857z"/>
	<path fill="#A8C4E5" d="M339.803,315.433c0.078,0.045,0.235,0.026,0.352-0.041l3.24-1.871c0.117-0.067,0.15-0.158,0.072-0.203
		l-2.148-1.241c-0.076-0.044-0.234-0.025-0.351,0.042l-3.241,1.871c-0.116,0.066-0.148,0.158-0.072,0.202L339.803,315.433z"/>
	<path fill="#A8C4E5" d="M335.338,318.007c0.078,0.045,0.235,0.026,0.352-0.041l3.242-1.872c0.117-0.067,0.149-0.158,0.071-0.203
		l-2.149-1.241c-0.076-0.044-0.232-0.026-0.35,0.041l-3.243,1.872c-0.116,0.067-0.147,0.158-0.071,0.203L335.338,318.007z"/>
	<path fill="#A8C4E5" d="M330.875,320.583c0.078,0.044,0.235,0.026,0.352-0.042l3.24-1.87c0.117-0.068,0.15-0.159,0.072-0.203
		l-2.148-1.242c-0.075-0.043-0.234-0.025-0.352,0.042l-3.24,1.87c-0.117,0.067-0.148,0.158-0.072,0.202L330.875,320.583z"/>
	<path fill="#A8C4E5" d="M326.412,323.158c0.078,0.045,0.234,0.026,0.351-0.041l3.242-1.872c0.116-0.067,0.148-0.157,0.071-0.202
		l-2.148-1.241c-0.076-0.044-0.234-0.026-0.35,0.04l-3.244,1.872c-0.114,0.067-0.146,0.158-0.07,0.203L326.412,323.158z"/>
	<path fill="#A8C4E5" d="M351.291,305.386c0.08,0.045,0.237,0.027,0.354-0.041l3.241-1.871c0.115-0.067,0.146-0.158,0.068-0.203
		l-2.147-1.241c-0.076-0.044-0.234-0.025-0.35,0.041l-3.242,1.871c-0.116,0.068-0.148,0.159-0.072,0.203L351.291,305.386z"/>
	<path fill="#A8C4E5" d="M346.829,307.961c0.078,0.045,0.237,0.027,0.353-0.04l3.242-1.871c0.115-0.067,0.147-0.159,0.069-0.204
		l-2.147-1.241c-0.076-0.044-0.234-0.025-0.352,0.042l-3.241,1.871c-0.116,0.066-0.147,0.158-0.071,0.202L346.829,307.961z"/>
	<path fill="#A8C4E5" d="M342.365,310.538c0.079,0.045,0.236,0.027,0.354-0.041l3.241-1.87c0.116-0.066,0.148-0.158,0.07-0.203
		l-2.149-1.241c-0.076-0.044-0.234-0.026-0.35,0.041l-3.241,1.871c-0.118,0.068-0.149,0.159-0.073,0.203L342.365,310.538z"/>
	<path fill="#A8C4E5" d="M337.902,313.113c0.078,0.045,0.235,0.028,0.352-0.04l3.243-1.871c0.116-0.067,0.149-0.159,0.07-0.204
		l-2.148-1.241c-0.076-0.044-0.235-0.025-0.352,0.042l-3.241,1.871c-0.117,0.068-0.148,0.159-0.071,0.202L337.902,313.113z"/>
	<path fill="#A8C4E5" d="M333.438,315.688c0.078,0.045,0.235,0.027,0.351-0.039l3.242-1.871c0.117-0.068,0.148-0.158,0.07-0.204
		l-2.148-1.241c-0.076-0.044-0.234-0.026-0.352,0.042l-3.242,1.871c-0.114,0.066-0.146,0.158-0.07,0.202L333.438,315.688z"/>
	<path fill="#A8C4E5" d="M328.973,318.264c0.078,0.045,0.237,0.026,0.355-0.042l3.241-1.871c0.114-0.066,0.147-0.158,0.068-0.203
		l-2.147-1.241c-0.076-0.043-0.236-0.025-0.351,0.042l-3.241,1.871c-0.118,0.068-0.149,0.159-0.073,0.203L328.973,318.264z"/>
	<path fill="#A8C4E5" d="M324.511,320.839c0.078,0.045,0.237,0.027,0.353-0.04l3.241-1.871c0.117-0.067,0.148-0.158,0.07-0.204
		l-2.147-1.241c-0.076-0.044-0.235-0.026-0.352,0.041l-3.242,1.871c-0.115,0.067-0.147,0.158-0.071,0.202L324.511,320.839z"/>
	<path fill="#A8C4E5" d="M360.198,300.249c0.078,0.045,0.237,0.027,0.354-0.041l5.497-3.173c0.117-0.067,0.148-0.158,0.069-0.203
		l-2.147-1.241c-0.076-0.044-0.234-0.026-0.352,0.042l-5.496,3.172c-0.117,0.068-0.148,0.159-0.072,0.203L360.198,300.249z"/>
	<path fill="#A8C4E5" d="M317.09,321.707c0.077,0.045,0.234,0.026,0.352-0.041l5.496-3.172c0.116-0.066,0.149-0.159,0.071-0.204
		l-2.147-1.24c-0.077-0.045-0.236-0.025-0.352,0.041l-5.496,3.172c-0.117,0.067-0.149,0.159-0.071,0.204L317.09,321.707z"/>
	<path fill="#A8C4E5" d="M362.101,302.567c0.078,0.045,0.233,0.026,0.352-0.042l6.553-3.781c0.117-0.067,0.15-0.158,0.072-0.203
		l-2.149-1.241c-0.074-0.044-0.233-0.025-0.35,0.042l-6.553,3.781c-0.118,0.068-0.149,0.159-0.073,0.203L362.101,302.567z"/>
	<path fill="#A8C4E5" d="M367.242,303.016c0.076,0.044,0.235,0.026,0.352-0.042l4.369-2.521c0.117-0.068,0.148-0.159,0.072-0.204
		l-2.148-1.241c-0.076-0.045-0.236-0.026-0.353,0.041l-4.368,2.521c-0.117,0.067-0.148,0.159-0.072,0.204L367.242,303.016z"/>
	<path fill="#A8C4E5" d="M355.033,299.814c0.078,0.044,0.235,0.026,0.354-0.042l3.239-1.869c0.116-0.067,0.149-0.159,0.071-0.204
		l-2.147-1.241c-0.078-0.045-0.235-0.026-0.353,0.042l-3.239,1.869c-0.119,0.068-0.15,0.159-0.071,0.204L355.033,299.814z"/>
	<path fill="#A8C4E5" d="M350.59,302.377c0.076,0.044,0.235,0.026,0.352-0.042l3.243-1.871c0.115-0.066,0.147-0.159,0.071-0.203
		l-2.148-1.24c-0.078-0.046-0.236-0.026-0.353,0.041l-3.241,1.871c-0.117,0.067-0.149,0.159-0.072,0.204L350.59,302.377z"/>
	<path fill="#A8C4E5" d="M346.128,304.951c0.077,0.045,0.233,0.027,0.351-0.04l3.241-1.871c0.117-0.067,0.148-0.159,0.071-0.204
		l-2.147-1.24c-0.077-0.045-0.236-0.026-0.353,0.041l-3.24,1.871c-0.118,0.067-0.148,0.157-0.07,0.202L346.128,304.951z"/>
	<path fill="#A8C4E5" d="M341.662,307.528c0.078,0.045,0.236,0.026,0.354-0.041l3.239-1.87c0.118-0.068,0.149-0.159,0.071-0.204
		l-2.147-1.241c-0.077-0.045-0.235-0.027-0.353,0.042l-3.24,1.869c-0.115,0.067-0.149,0.159-0.071,0.204L341.662,307.528z"/>
	<path fill="#A8C4E5" d="M337.2,310.103c0.078,0.045,0.233,0.027,0.352-0.041l3.24-1.87c0.118-0.068,0.149-0.159,0.072-0.204
		l-2.147-1.24c-0.078-0.045-0.236-0.027-0.353,0.041l-3.241,1.87c-0.117,0.068-0.147,0.158-0.069,0.203L337.2,310.103z"/>
	<path fill="#A8C4E5" d="M332.734,312.678c0.078,0.045,0.236,0.027,0.352-0.04l3.243-1.872c0.116-0.067,0.147-0.158,0.069-0.203
		l-2.147-1.241c-0.078-0.045-0.234-0.026-0.351,0.04l-3.243,1.872c-0.114,0.066-0.148,0.158-0.069,0.203L332.734,312.678z"/>
	<path fill="#A8C4E5" d="M328.271,315.254c0.077,0.045,0.235,0.026,0.353-0.041l3.242-1.871c0.116-0.068,0.149-0.16,0.071-0.205
		l-2.146-1.24c-0.078-0.045-0.237-0.026-0.354,0.042l-3.241,1.871c-0.117,0.067-0.149,0.158-0.072,0.204L328.271,315.254z"/>
	<path fill="#A8C4E5" d="M323.809,317.829c0.078,0.045,0.234,0.027,0.351-0.04l3.244-1.872c0.115-0.066,0.146-0.158,0.069-0.203
		l-2.148-1.24c-0.077-0.045-0.234-0.026-0.35,0.04l-3.244,1.872c-0.115,0.067-0.146,0.157-0.068,0.202L323.809,317.829z"/>
	<path fill="#A8C4E5" d="M321.213,320.101c0.054-0.031,0.12-0.054,0.189-0.062c0.069-0.008,0.124,0,0.16,0.021l2.147,1.241
		c0.037,0.021,0.054,0.053,0.04,0.093c-0.016,0.04-0.055,0.079-0.107,0.11l-0.847,0.488l2.817,1.627
		c0.036,0.021,0.051,0.054,0.036,0.093c-0.014,0.04-0.054,0.078-0.108,0.11l-2.184,1.26c-0.055,0.032-0.122,0.056-0.191,0.064
		c-0.068,0.008-0.126,0-0.161-0.021l-5.107-2.95c-0.035-0.021-0.05-0.053-0.035-0.093c0.014-0.041,0.054-0.079,0.108-0.111
		L321.213,320.101z"/>
	<path opacity="0.4" fill="#A8C4E5" d="M312.042,341.244l6.903,4.731c2.544,1.744,6.396,1.518,8.56-0.502l0,0
		c2.163-2.02,1.851-5.1-0.694-6.844l-6.903-4.731c-2.545-1.744-6.396-1.518-8.56,0.501l0,0
		C309.186,336.42,309.497,339.5,312.042,341.244z"/>
	<path fill="#283D75" d="M313.77,339.653l6.902,4.73c2.546,1.744,6.396,1.519,8.56-0.501l0,0c2.163-2.02,1.852-5.1-0.693-6.844
		l-6.903-4.731c-2.545-1.744-6.396-1.518-8.56,0.501l0,0C310.912,334.829,311.225,337.909,313.77,339.653z"/>
	<g>
		<g>
			<path fill="#A8C4E5" d="M315.033,333.584c0.61,0.157,1.159,0.423,1.64,0.834c0.614,0.525,1.51-0.363,0.891-0.892
				c-0.646-0.552-1.369-0.946-2.194-1.158C314.581,332.167,314.247,333.382,315.033,333.584L315.033,333.584z"/>
		</g>
	</g>
	<path fill="#C2E3FF" d="M378.599,392.052c-5.469-3.12-11.368-5.551-17.067-8.216c-4.848-2.267-8.537-2.515-13.487-3.44
		c-3.561-0.664-5.582-4.964-4.682-8.244c1.027-3.735,4.675-5.348,8.244-4.681c2.586,0.483,4.682,0.608,7.319,1.151
		c2.896,0.596,5.592,1.88,8.257,3.119c6.071,2.822,12.362,5.417,18.181,8.736C392.856,384.751,386.111,396.335,378.599,392.052
		L378.599,392.052z"/>
	<path fill="#FFC2B0" d="M407.307,334.37c-4.655,0.128-4.607-4.028-5.202-7.315c0.01,0.056-0.167-1.275-0.056-0.959
		c0.296,0.33,0.654,0.556,1.073,0.677c-1.226,0.043-2.449,0-3.669-0.13c-4.102-0.38-7.982-1.625-11.679-3.408
		c-5.17-2.493-11.968-10.066-17.97-9.478c-5.382,0.528-5.346-7.884,0-8.409c5.482-0.538,10.141,3.08,14.432,5.962
		c3.088,2.074,6.241,4.181,9.74,5.504c3.696,1.398,7.555,0.686,11.158,1.79c3.379,1.035,5.278,4.161,5.314,7.64
		c0.004,0.482,0.306,1.405,0.114,1.845c-0.357,0.826-4.966-0.155-4.776-1.928c0.061-0.556,2.13-2.327,2.502-2.767
		C410.193,321.135,413.028,334.213,407.307,334.37z"/>
	<path fill="#2C4482" d="M418.363,311.379c2.473,2.674,2.423,6.472,2.724,10.267c0.294,3.71-1.9,7.036-5.4,8.207l-34.874,11.662
		c0,0-9.754-13.559,1.695-18.48c5.955-2.56,9.986-6.097,14.449-9.194C403.512,309.292,412.652,305.202,418.363,311.379z"/>
	<path fill="#2C4482" d="M425.344,378.015c2.561-0.912-1.688-37.148-4.727-61.428l-41.284,21.164
		c2.976,15.753,2.015,27.922,1.452,43.948c-0.271,7.74,9.547,13.686,16.483,10.244L425.344,378.015z"/>
	<path fill="#FFC2B0" d="M379.492,338.922c-6.174,5.642-11.986,16.31-21.271,16.776c-11.037,0.554-20.852-8.824-31.113-11.641
		c-5.212-1.431-3-9.545,2.234-8.108c9.082,2.493,16.939,9.406,26.15,11.122c3.698,0.69,5.386-0.807,7.779-3.395
		c3.377-3.653,6.592-7.333,10.273-10.699C377.534,329.332,383.497,335.262,379.492,338.922L379.492,338.922z"/>
	<path fill="#2C4482" d="M387.347,335.072l-16.096,15.704c-5.231,3.832-12.104-5.801-8.047-9.312l15.671-16.403
		c2.603-2.234,6.119-2.223,8.134,0.027l0,0C389.107,327.432,389.771,332.4,387.347,335.072z"/>
	<path opacity="0.46" fill="#FFFFFF" d="M382.241,286.358l0.022,1.509c0,0,0.033,4.553,4.384,1.976s3.923-8.235,3.923-8.235
		S387.151,281.381,382.241,286.358z"/>
	<path fill="#513554" d="M386.564,289.188c-4.224,2.476-4.271-1.468-4.271-1.468l-0.025-1.307c4.759-4.588,8.084-4.583,8.084-4.583
		S390.786,286.712,386.564,289.188z"/>
	<path fill="#513554" d="M391.143,281.861l0.6-0.312c0.326-0.17,0.607-0.652,0.626-1.077l0,0c0.019-0.425-0.23-0.633-0.559-0.462
		l-0.599,0.312c-0.328,0.169-0.608,0.652-0.627,1.078l0,0C390.564,281.824,390.814,282.031,391.143,281.861z"/>
	<path fill="#FCFEFF" d="M389.813,284.214L389.813,284.214c0.136-0.18,0.169-0.402,0.075-0.496l-1.094-1.088
		c-0.094-0.093-0.279-0.023-0.415,0.157l0,0c-0.135,0.18-0.169,0.402-0.075,0.495l1.094,1.088
		C389.492,284.463,389.678,284.393,389.813,284.214z"/>
	<path fill="#FFC2B0" d="M403.848,311.903l-5.455-13.417l-7.547,7.14l4.678,12.264C396.117,319.909,405.251,316.535,403.848,311.903
		z"/>
	<path fill="#FFC2B0" d="M397.194,280.501c0,0,8.964-4.747,8.09,8.49c-0.607,9.208-6.91,16.777-14.908,19.819
		c-4.979,1.895-10.666-1.39-10.602-5.991c-0.668-6.767-0.235-13.018,2.399-18.237c0.078-5.549,3.834-3.306,10.595-3.184
		L397.194,280.501z"/>
	<path fill="#2C4482" d="M401.477,306.909c2.982-1.253,3.87-3.597,6.351-13.051c3.156-12.027-6.229-17.006-13.481-17.598
		c-9.281-0.756-18.426,9.083-9.906,10.888c1.665,0.353,0.58,4.774,0.81,6.362c0.409,2.823,2.043,4.306,2.491,7.046
		c0.425,2.593,5.473,6.081,7.834,6.793C398.372,308.192,400.623,307.267,401.477,306.909z"/>
	<path fill="#FFC2B0" d="M385.766,297.671c-0.351,2.218,0.653,4.22,2.242,4.471c0.174,0.027,0.347,0.033,0.52,0.018
		c1.398-0.123,2.681-1.604,2.992-3.578c0.351-2.218-0.652-4.22-2.241-4.471S386.117,295.453,385.766,297.671z"/>
	<path fill="#FFFFFF" d="M387.831,319.961c10.283-2.046,17.525-0.548,18.938-10.887l0,0c-1.625-0.863-3.543-0.318-4.408,1.19
		c-1.519,2.647-5.159,4.448-9.428,4.133c-1.278-0.094-2.455,0.54-3.029,1.63L387.831,319.961z"/>
	<path fill="#4C73DB" d="M389.663,385.098c-6.471-3.546-12.94-7.091-19.411-10.635c-3.078-1.687-6.119-3.508-9.299-5.001
		c-2.406-1.13-7.878-3.431-10.263-1.038c-1.901,1.909-1.534,7.437-1.628,9.857c-0.153,3.958-0.026,7.913-0.013,11.871
		c0.012,3.173-4.918,3.177-4.929,0c-0.018-4.841-0.199-9.683,0.153-14.519c0.269-3.67,0.451-9.22,3.929-11.466
		c6.404-4.137,14.522,0.552,20.223,3.675c7.909,4.333,15.817,8.667,23.726,12.999C394.935,382.366,392.449,386.624,389.663,385.098
		L389.663,385.098z"/>
	<path fill="#4C73DB" d="M432.414,377.933l14.565-45.916c1.199-3.781-2.998-6.984-6.328-4.83l-41.72,26.994
		c-1.537,0.994-2.639,2.535-3.082,4.311l-11.955,47.848L432.414,377.933z"/>
	<path fill="#4C73DB" d="M437.471,362.433l14.939-47.093c1.23-3.878-3.075-7.164-6.49-4.953l-44.115,28.622
		c-1.575,1.02-2.941,2.691-3.396,4.512l-10.833,43.676L437.471,362.433z"/>
	<path fill="#3D62C4" d="M447.061,312.61l-43.013,27.908c-1.536,0.994-2.868,2.623-3.312,4.398l-11.57,41.491l-5.271,19.932
		l-2.105-1.279c-0.813-0.596-0.692-3.145-0.448-4.121l4.455-17.824l10.561-42.578c0.444-1.775,1.775-3.404,3.312-4.398
		l43.013-27.908c2.988-1.934,9.589,0.538,9.448,3.779C451.412,312.035,449.736,310.549,447.061,312.61z"/>
	<g>
		<g>
			<g>
				<path fill="#FFC2B0" d="M222.927,374.436c6.471-5.58,7.766-15.484,10.297-23.177c1.433-4.354-5.412-6.204-6.834-1.884
					c-2.122,6.451-3.069,15.389-8.475,20.049C214.448,372.413,219.484,377.403,222.927,374.436L222.927,374.436z"/>
			</g>
		</g>
		<g>
			<path fill="#FF5C97" d="M231.938,320.71c-2.418,10.176-3.657,20.492-7.801,30.175c-2.528,5.909,6.168,11.06,8.72,5.097
				c4.537-10.605,6.169-21.438,8.817-32.587C243.176,317.077,233.442,314.38,231.938,320.71L231.938,320.71z"/>
		</g>
		<g>
			<g>
				<path fill="#FFC2B0" d="M239.819,375.737c-2,27.447-1.668,54.866-1.791,82.357c-0.027,6.095,9.422,6.092,9.449,0
					c0.123-27.491-0.209-54.91,1.791-82.357C249.712,369.654,240.26,369.697,239.819,375.737L239.819,375.737z"/>
			</g>
		</g>
		<g>
			<path fill="#2C4482" d="M240.965,463.647l1.613,4.944c0.553,0.829,2.387,2.235,3.295,1.823
				c3.766-1.711,13.857-5.354,12.147-9.798c-2.151-5.591-16.406,1.001-16.406,1.001L240.965,463.647z"/>
			<path fill="#FFC2B0" d="M244.646,458.7c0,0,5.68-0.766,8.309,1.148c1.033,0.753,0.078,1.916-1.788,2.795
				c-3.677,1.733-7.916,1.236-9.947-1.59l-1.308-0.784L244.646,458.7z"/>
			<path fill="#2C4482" d="M236.108,459.613l1.371,11.683c0.044,0.377,0.243,0.718,0.55,0.94l0,0
				c0.872,0.634,2.098,0.049,2.154-1.026l0.517-9.729c0.02-0.377-0.118-0.744-0.379-1.016l-1.888-1.953
				C237.531,457.577,235.956,458.323,236.108,459.613z"/>
			<path fill="#2C4482" d="M237.458,456.741c0,0-3.415,2.473-0.338,9.738c0.04,0.099,0.062,0.385,0.127,0.297
				c3.016-4.006,5.331,0.001,5.331,0.001l8.483-3.603c0,0-5.574,1.42-10.097-3.262C239.764,458.673,237.458,456.741,237.458,456.741
				z"/>
		</g>
		<path fill="#2C4482" d="M252.745,470.38l1.612,4.943c0.553,0.83,2.388,2.236,3.295,1.822c3.767-1.709,13.859-5.352,12.148-9.797
			c-2.15-5.59-16.405,1.002-16.405,1.002L252.745,470.38z"/>
		<path fill="#FFC2B0" d="M256.426,465.433c0,0,5.68-0.767,8.31,1.148c1.033,0.752,0.078,1.915-1.788,2.795
			c-3.676,1.732-7.916,1.234-9.946-1.591l-1.308-0.784L256.426,465.433z"/>
		<g>
			<g>
				<path fill="#FFC2B0" d="M255.02,383.183c0.389,27.567-1.061,54.564-5.668,81.732c-1.011,5.958,8.095,8.51,9.111,2.512
					c4.751-28.016,6.407-55.812,6.006-84.244C264.383,377.095,254.934,377.086,255.02,383.183L255.02,383.183z"/>
			</g>
		</g>
		<path fill="#BC4073" d="M261.938,390.81c-7.264,13.793-13.497,7.143-22.007,0.863c-8.512-6.281-9.36-18.693-4.843-29.065
			c0,0,12.69-14.777,21.201-8.496S270.373,374.795,261.938,390.81z"/>
		<path fill="#FF5C97" d="M232.801,329.981c0,0,3.754,29.988,4.369,32.51c0,0,3.047,8.669,24.664,0.475l5.974-26.772
			L232.801,329.981z"/>
		<path fill="#FF5C97" d="M267.536,346.327c0.829-0.507,2.018-7.648,2.018-7.648c-0.442-8.504-4.928-7.369-10.314-15.845
			c-0.866-1.362-7.15-5.062-16.007-6.663c-4.293-0.776-8.537,1.614-10.27,5.618c-1.013,2.341-0.023,9.327-0.023,9.329
			c2.654,12.817,3.303,7.935,4.136,14.501c0.515,4.097,0.88,7.06,0.914,7.476c0.001,0.019,0.003,0.046,0.003,0.051l15.359,12.11
			l8.083-14.596l0,0L267.536,346.327z"/>
		<path fill="#BC4073" d="M234.68,376.493c0,0,0.957,42.813,1.319,43.396c2.266,3.642,3.384,11.024,26.219,5.669
			c2.632-0.616,3.65-3.478,3.531-5.772l0.372-44.049l-10.938,4.691L234.68,376.493z"/>
		<path fill="#283D75" d="M234.811,362.318L234.811,362.318c-0.121,0.659,0.133,1.326,0.66,1.738
			c1.908,1.485,7.012,4.651,15.033,3.782c6.865-0.744,10.884-2.25,12.818-3.186c0.834-0.403,1.232-1.365,0.913-2.235l-0.194-0.532
			c-0.352-0.958-1.428-1.433-2.368-1.037c-3.631,1.527-12.273,4.665-18.34,2.846c-2.799-0.838-4.597-1.729-5.753-2.529
			C236.513,360.427,235.045,361.041,234.811,362.318z"/>
		<path fill="#FFC2B0" d="M245.33,318.668l3.079-13.716l8.366,5.63l-2.4,10.701C254.13,323.311,244.727,323.327,245.33,318.668z"/>
		<path fill="#FFC2B0" d="M251.286,288.375c0,0-7.337-7.236-8.583,4.521c-0.867,8.178,3.857,15.827,10.877,19.774
			c4.37,2.458,10.211,0.484,10.868-3.564c1.682-5.832,2.251-11.387,0.597-16.388c0.793-4.882-3.077-3.514-9.43-4.487
			L251.286,288.375z"/>
		<path fill="#715154" d="M244.131,313.356c0,0-8.684-4.206-6.614-16.79c2.239-13.618,11.071-11.335,18.144-11.335
			c3.13,0,8.629,2.662,9.995,5.667c1.608,3.542,1.286,5.723-2.894,5.699c-1.656-0.009-1.329,4.49-1.806,5.977
			c-0.85,2.644-2.658,3.803-3.53,6.361c-0.827,2.42-4.852,5.954-7.252,6C245.898,315.019,244.131,313.356,244.131,313.356z"/>
		<path fill="#FFC2B0" d="M260.183,305.914c-0.022,2.261-1.354,4.08-2.974,4.064c-0.177-0.001-0.351-0.025-0.519-0.069
			c-1.368-0.356-2.393-2.04-2.373-4.054c0.023-2.26,1.354-4.08,2.974-4.064C258.91,301.807,260.205,303.653,260.183,305.914z"/>
		<g>
			<path fill="#FFFFFF" d="M244.891,316.366c0.612,2.271,2.387,4.141,4.744,4.606c2.543,0.501,5.553-0.241,8.097-0.499
				c1.615-0.164,1.604,2.362,0,2.524c-3.263,0.332-7.007,1.263-10.153-0.041c-2.553-1.058-4.406-3.268-5.123-5.919
				C242.033,315.467,244.467,314.797,244.891,316.366L244.891,316.366z"/>
		</g>
		<g>
			<g>
				<path fill="#715154" d="M258.838,295.413c0.871,4.241,1.631,9.252-0.262,13.299c-2.064,4.413-1.672,5.122,0.083,9.604
					c0.546,1.395,2.822,0.788,2.27-0.625c0.147,0.377-1.383-3.178-1.3-2.705c-0.318-1.798,0.415-3.497,0.979-5.085
					c0.52-1.46,1.089-2.593,1.299-4.162c0.485-3.59-0.075-7.422-0.8-10.95C260.804,293.305,258.533,293.932,258.838,295.413
					L258.838,295.413z"/>
			</g>
		</g>
		<path fill="#2C4482" d="M247.889,466.345l1.371,11.684c0.045,0.377,0.244,0.717,0.551,0.939l0,0
			c0.871,0.634,2.097,0.049,2.154-1.026l0.516-9.728c0.021-0.377-0.117-0.744-0.379-1.016l-1.887-1.955
			C249.311,464.31,247.737,465.054,247.889,466.345z"/>
		<path fill="#2C4482" d="M249.238,463.472c0,0-3.414,2.475-0.339,9.74c0.042,0.098,0.063,0.383,0.128,0.297
			c3.017-4.006,5.33,0,5.33,0l8.485-3.604c0,0-5.575,1.421-10.098-3.26C251.545,465.403,249.238,463.472,249.238,463.472z"/>
		<g>
			<g>
				<path fill="#FFC2B0" d="M258.036,328.798c0.035,7.428,0.729,14.605,3.642,21.5c1.674,3.96,3.707,7.742,5.732,11.532
					c1.091,2.042,2.936,4.801,5.403,5.33c12.527,2.683,12.484-25.958,12.615-32.78c0.087-4.573-7-4.564-7.088,0
					c-0.104,5.475-0.537,10.918-1.485,16.314c-0.42,2.388-1.019,4.737-1.782,7.037c-0.29,0.872-0.696,1.643-1.156,2.432
					c-0.578,0.99,1.624,0.764,0.758-0.088c-1.851-1.821-2.925-5.151-4.105-7.435c-1.228-2.375-2.345-4.784-3.257-7.297
					c-1.929-5.314-2.163-10.95-2.19-16.545C265.101,324.229,258.014,324.227,258.036,328.798L258.036,328.798z"/>
			</g>
		</g>
		<g>
			<path fill="#FF7DAC" d="M255.918,328.798c0.168,12.761,5.237,22.362,10.193,33.791c2.578,5.946,11.28,0.81,8.719-5.096
				c-4.213-9.715-8.672-17.85-8.814-28.695C265.931,322.305,255.833,322.287,255.918,328.798L255.918,328.798z"/>
		</g>
		<ellipse fill="#FFFFFF" cx="244.322" cy="293.656" rx="5.111" ry="4.899"/>
		<path fill="#715154" d="M241.942,291.862c2.536-0.506,4.992,1.183,5.559,3.707c0.83,3.698,1.491,10.864-2.61,19.23
			c-5.999,12.239,4.438,29.232-0.891,36.781c0,0-1.264-4.915-5.294-12.464c-4.03-7.548-5.272-20.543-4.441-29.425
			c0.824-8.819,5.226-16.591,5.226-16.591C240.129,292.486,240.688,292.112,241.942,291.862z"/>
		<path fill="#FFC2B0" d="M283.068,336.998L283.068,336.998c2.641-0.237,4.606-2.59,4.37-5.23l0,0
			c-0.237-2.64-2.591-4.606-5.229-4.369l0,0c-2.641,0.236-4.606,2.589-4.369,5.229l0,0
			C278.075,335.268,280.429,337.234,283.068,336.998z"/>
		<path fill="#FFC2B0" d="M280.751,334.183l0.548-0.049c0.587-0.053,1.023-0.575,0.971-1.161l-1.053-11.749
			c-0.053-0.586-0.575-1.023-1.162-0.971l-0.548,0.05c-0.586,0.053-1.023,0.575-0.972,1.161l1.054,11.749
			C279.642,333.799,280.164,334.236,280.751,334.183z"/>
		<path fill="#FFC2B0" d="M219.19,374.833h0.372c2.196,0,3.994-1.798,3.994-3.996v-2.987c0-2.197-1.798-3.995-3.994-3.995h-0.372
			c-2.198,0-3.996,1.798-3.996,3.995v2.987C215.194,373.035,216.992,374.833,219.19,374.833z"/>
		<path fill="#99345E" d="M234.898,385.845c0,0,3.988,4.813,5.557,5.857c0,0-5.438-0.953-5.467-2.178L234.898,385.845z"/>
	</g>
	<g>
		<path fill="#2C4482" d="M118.515,356.782c-7.091,4.096-18.623,4.076-25.759-0.043c-7.135-4.119-7.172-10.778-0.08-14.873
			c7.09-4.096,18.622-4.076,25.758,0.043C125.569,346.028,125.605,352.687,118.515,356.782z"/>
		<polygon fill="#4367C7" points="131.447,338.172 79.574,338.992 79.574,283.863 131.447,283.863 		"/>
		<path fill="#4367C7" d="M123.878,349.304c-10.122,5.899-26.55,5.937-36.688,0.083c-10.141-5.854-10.155-15.382-0.031-21.281
			c10.121-5.9,26.548-5.938,36.688-0.083C133.986,333.876,134,343.404,123.878,349.304z"/>
		<path fill="#2C4482" d="M131.531,298.872c-0.367-0.232-0.744-0.461-1.132-0.685c-13.823-7.98-36.165-8.018-49.9-0.084
			c-0.287,0.166-0.565,0.334-0.84,0.504v27.708c0.324,0.203,0.655,0.404,0.997,0.602c13.823,7.98,36.164,8.018,49.9,0.084
			c0.334-0.193,0.656-0.389,0.975-0.588V298.872z"/>
		<path fill="#4367C7" d="M130.473,321.648c-13.736,7.933-36.077,7.896-49.9-0.084c-13.823-7.98-13.895-20.88-0.158-28.814
			c13.736-7.933,36.077-7.896,49.9,0.084S144.209,313.715,130.473,321.648z"/>
		<rect x="70.16" y="294.807" fill="#4367C7" width="70.568" height="13.008"/>
		<path fill="#FFFFFF" d="M130.473,309.256c-13.736,7.934-36.077,7.896-49.9-0.084c-13.823-7.979-13.895-20.88-0.158-28.813
			c13.736-7.933,36.077-7.896,49.9,0.084C144.138,288.423,144.209,301.323,130.473,309.256z"/>
		<g opacity="0.66">
			<g>
				<linearGradient id="SVGID_7_" gradientUnits="userSpaceOnUse" x1="42.0039" y1="234.3584" x2="168.8828" y2="234.3584">
					<stop  offset="0" style="stop-color:#DDECF8"/>
					<stop  offset="0.8835" style="stop-color:#A1CFF7"/>
				</linearGradient>
				<path fill="url(#SVGID_7_)" d="M168.883,219.816c0-32.198-28.403-58.299-63.439-58.299s-63.439,26.102-63.439,58.299
					c0,17.63,8.516,33.432,21.974,44.123c7.363,8.095,10.728,18.055,12.264,25.261c1.487,6.979,6.506,12.626,13.255,14.946
					c10.928,3.756,21.475,4.217,31.531,0.43c6.384-2.404,11.063-7.958,12.428-14.641c1.378-6.735,4.607-16.439,12.187-24.771
					c0.217-0.239,0.412-0.472,0.591-0.7C160.079,253.77,168.883,237.739,168.883,219.816z"/>
			</g>
		</g>
		<path fill="#7EC0F7" d="M120.381,297.148c-8.537,4.932-22.425,4.907-31.017-0.053c-8.593-4.96-8.637-12.979-0.099-17.911
			c8.539-4.931,22.426-4.907,31.019,0.053C128.875,284.198,128.919,292.217,120.381,297.148z"/>
		<g>
			<path fill="#7EC0F7" d="M108.584,292.939c-0.91,0-1.648-0.738-1.648-1.647l-0.008-43.108c-0.189-0.03-0.378-0.062-0.567-0.095
				c-2.074-0.366-4.118-0.919-6.1-1.643v41.079c0,0.909-0.737,1.647-1.647,1.647s-1.647-0.738-1.647-1.647v-42.467
				c-3.384-1.623-6.509-3.757-9.194-6.311c-4.563-4.341-7.485-9.483-8.017-14.105c-0.518-4.494,1.339-7.99,5.092-9.594
				c3.583-1.53,6.698-1.471,9.261,0.179c5.825,3.749,6.143,14.519,6.152,14.976c0.001,0.012,0.001,0.025,0.001,0.038v12.696
				c2.063,0.833,4.29,1.488,6.673,1.909c0.073,0.013,0.146,0.026,0.219,0.038c1.021-11.595,3.528-18.476,7.642-20.996
				c2.216-1.357,4.781-1.42,7.624-0.187c5.861,2.542,8.67,7.867,7.153,13.566c-1.52,5.712-7.671,11.314-17.813,11.315
				c-0.502,0-1.014-0.013-1.536-0.042l0.01,42.752C110.231,292.201,109.493,292.938,108.584,292.939z M110.429,245.25
				c9.209,0.486,14.704-4.113,15.959-8.832c1.089-4.096-0.935-7.811-5.28-9.696c-1.826-0.792-3.328-0.8-4.592-0.026
				C114.315,228.043,111.548,232.393,110.429,245.25z M89.664,217.239c-1.046,0-2.215,0.279-3.523,0.838
				c-3.013,1.287-3.356,4.075-3.113,6.187c0.598,5.19,5.563,12.604,13.938,17.124V230.26c-0.069-2.643-1.036-9.947-4.646-12.266
				C91.538,217.491,90.656,217.239,89.664,217.239z"/>
		</g>
		<path opacity="0.51" fill="#FFFFFF" d="M92.336,205.853c0,11.464-7.875,23.164-17.59,26.13
			c-9.716,2.967-17.592-3.921-17.592-15.385s7.876-23.163,17.592-26.131C84.461,187.5,92.336,194.389,92.336,205.853z"/>
	</g>
	<g>
		<path fill="#2C4482" d="M458.047,285.474l-44.261-25.554c-2.868-1.655-5.214-6.139-5.214-9.962v-21.726
			c0-3.824,2.346-5.598,5.214-3.942l44.261,25.553c2.867,1.656,5.213,6.14,5.213,9.963v21.726
			C463.26,285.356,460.914,287.129,458.047,285.474z"/>
		<path fill="#ADD5F7" d="M456.243,287.277l-44.261-25.554c-2.867-1.655-5.213-6.139-5.213-9.963v-21.726
			c0-3.824,2.346-5.598,5.213-3.942l44.261,25.553c2.868,1.656,5.215,6.139,5.215,9.963v21.726
			C461.458,287.159,459.111,288.933,456.243,287.277z"/>
		<path fill="#FFFFFF" d="M437.559,254.876l-24.794-14.315c-0.63-0.363-1.145-1.348-1.145-2.187l0,0
			c0-0.839,0.515-1.229,1.145-0.865l24.794,14.315c0.63,0.364,1.145,1.348,1.145,2.187l0,0
			C438.703,254.851,438.188,255.24,437.559,254.876z"/>
		<path fill="#FFFFFF" d="M437.559,263.617l-24.794-14.315c-0.63-0.364-1.145-1.348-1.145-2.187l0,0
			c0-0.839,0.515-1.229,1.145-0.865l24.794,14.315c0.63,0.364,1.145,1.348,1.145,2.188l0,0
			C438.703,263.591,438.188,263.98,437.559,263.617z"/>
		<path fill="#FFFFFF" d="M454.093,264.422l-9.398-5.426c-0.629-0.363-1.144-1.348-1.144-2.187l0,0c0-0.839,0.515-1.229,1.144-0.865
			l9.398,5.426c0.629,0.364,1.145,1.348,1.145,2.187l0,0C455.237,264.396,454.722,264.785,454.093,264.422z"/>
		<path fill="#ADD5F7" d="M410.392,259.47l-0.505,11.624c-0.026,0.94,1.384,2.091,2.196,1.792l9.997-5.283L410.392,259.47z"/>
	</g>
	<g>
		<path fill="#2C4482" d="M180.871,303.344l42.716-24.662c2.768-1.598,5.032-5.925,5.032-9.615v-20.968
			c0-3.69-2.265-5.402-5.032-3.804l-42.716,24.662c-2.768,1.598-5.032,5.925-5.032,9.615v20.968
			C175.839,303.23,178.104,304.942,180.871,303.344z"/>
		<path fill="#ADD5F7" d="M182.611,305.084l42.715-24.662c2.768-1.598,5.032-5.925,5.032-9.615v-20.968
			c0-3.69-2.265-5.402-5.032-3.804l-42.715,24.661c-2.768,1.598-5.031,5.925-5.031,9.616v20.968
			C177.58,304.97,179.844,306.682,182.611,305.084z"/>
		<path fill="#FFFFFF" d="M200.644,273.814l23.93-13.815c0.607-0.351,1.104-1.3,1.104-2.111l0,0c0-0.81-0.497-1.186-1.104-0.835
			l-23.93,13.815c-0.607,0.351-1.104,1.301-1.104,2.11l0,0C199.539,273.789,200.036,274.165,200.644,273.814z"/>
		<path fill="#FFFFFF" d="M185.146,290.815L209.074,277c0.607-0.351,1.104-1.301,1.104-2.11l0,0c0-0.811-0.496-1.186-1.104-0.835
			l-23.929,13.815c-0.608,0.351-1.105,1.3-1.105,2.111l0,0C184.04,290.79,184.537,291.166,185.146,290.815z"/>
		<path fill="#FFFFFF" d="M184.688,283.027l9.069-5.237c0.607-0.351,1.104-1.3,1.104-2.111l0,0c0-0.81-0.497-1.186-1.104-0.834
			l-9.069,5.236c-0.607,0.351-1.105,1.301-1.105,2.111l0,0C183.582,283.001,184.08,283.377,184.688,283.027z"/>
		<path fill="#ADD5F7" d="M226.863,278.248l0.486,11.218c0.026,0.908-1.334,2.019-2.119,1.73l-9.647-5.099L226.863,278.248z"/>
	</g>
	<path fill="#B6D1ED" d="M362.488,260.944c3.774,2.179,9.912,2.168,13.71-0.025c3.798-2.192,3.817-5.736,0.043-7.916
		c-3.773-2.179-9.912-2.168-13.71,0.024C358.733,255.222,358.713,258.765,362.488,260.944z"/>
	<polygon fill="#B6D1ED" points="383.591,243.381 379.028,257.367 359.74,257.683 355.336,244.205 	"/>
	<path fill="#9DBEE3" d="M360.817,243.936l4.402,13.426h0.003c0.25,1.989,1.163,2.513,2.745,3.427
		c1.145,0.661,2.508,1.231,3.956,1.479c-3.258,0.548-6.886-0.068-9.436-1.54c-1.584-0.915-2.496-1.377-2.746-3.366h-0.002
		l-4.404-13.426H360.817z"/>
	<path fill="#FFFFFF" d="M359.206,248.356c5.575,3.219,14.644,3.203,20.255-0.037c5.609-3.239,5.638-8.474,0.063-11.693
		s-14.644-3.203-20.254,0.036C353.658,239.902,353.63,245.138,359.206,248.356z"/>
	<path fill="#353559" d="M360.744,247.259c4.785,2.763,12.568,2.749,17.385-0.032c4.816-2.78,4.841-7.274,0.055-10.037
		s-12.569-2.749-17.385,0.031C355.982,240.001,355.958,244.496,360.744,247.259z"/>
	<g>
		<path fill="#4C73DB" d="M369.794,238.204c0.56-11.141,8.892-29.897,8.892-29.897c-11.919,4.322-12.007,16.36-12.007,16.36
			L369.794,238.204z"/>
		<path fill="#4C73DB" d="M366.467,228.583c0.622-11.137-5.903-30.613-5.903-30.613c11.395,5.558,10.209,17.538,10.209,17.538
			L366.467,228.583z"/>
		<path fill="#4C73DB" d="M384.265,214.13c-9.991,2.888-15.059,20.978-15.059,20.978v0.036
			c-1.716-22.568-16.342-27.709-16.342-27.709c5.549,7.128,12.014,35.712,12.014,35.712c2.752,2.702,5.997,2.345,9.534,0.182
			C373.976,234.772,384.265,214.13,384.265,214.13z"/>
	</g>
	<g>
		<path fill="#3D62C4" d="M244.07,157.815l25.408-14.709c1.045-0.603,1.974-0.605,2.666-0.131l0.004-0.004l4.307,2.421
			c0,0-1.676,2.537-2.913,5.522v22.946c0,2.912-1.809,6.293-3.991,7.554l-20.705,11.948c-1.93,3.249-3.346,5.375-3.346,5.375
			l-4.112-2.308v-0.007c0-0.417-1.236-1.578-1.236-3.287V165.37C240.151,162.458,241.887,159.077,244.07,157.815z"/>
		<path fill="#4C73DB" d="M248.42,198.682l25.477-14.71c2.185-1.26,3.955-4.643,3.955-7.554v-27.766c0-2.911-1.771-4.25-3.955-2.989
			l-25.477,14.71c-2.184,1.26-3.953,4.643-3.953,7.554v27.765C244.467,198.604,246.236,199.942,248.42,198.682z"/>
		<path opacity="0.56" fill="#ADD5F7" d="M251.771,200.136l25.478-14.709c2.183-1.261,3.953-4.643,3.953-7.555v-27.765
			c0-2.912-1.771-4.25-3.953-2.989l-25.478,14.709c-2.185,1.26-3.954,4.642-3.954,7.554v27.766
			C247.817,200.058,249.587,201.396,251.771,200.136z"/>
		<g>
			<g>
				<polygon fill="#FFFFFF" points="268.164,177.357 274.92,165.705 267.563,161.51 266.144,164.001 270.989,166.765 
					265.684,175.918 				"/>
			</g>
			<g>
				<polygon fill="#FFFFFF" points="254.793,184.478 256.213,181.986 251.436,179.263 256.813,169.987 254.332,168.55 
					247.506,180.323 				"/>
			</g>
			<g>
				
					<rect x="259.455" y="163.689" transform="matrix(-0.9652 0.2614 -0.2614 -0.9652 558.0179 272.4655)" fill="#FFFFFF" width="2.867" height="19.312"/>
			</g>
		</g>
	</g>
	<g>
		<path fill="#66A1D1" d="M297.367,185.855l25.089-14.505c1.03-0.595,1.963-0.597,2.646-0.129l0.011-0.003l4.184,2.386
			c0,0-1.717,2.501-2.938,5.446v22.627c0,2.871-1.714,6.206-3.867,7.449l-20.382,11.781c-1.904,3.204-3.352,5.301-3.352,5.301
			l-4.105-2.276v-0.007c0-0.411-1.219-1.556-1.219-3.242v-27.379C293.435,190.434,295.214,187.099,297.367,185.855z"/>
		<linearGradient id="SVGID_8_" gradientUnits="userSpaceOnUse" x1="297.8262" y1="200.0132" x2="330.7461" y2="200.0132">
			<stop  offset="0" style="stop-color:#DDECF8"/>
			<stop  offset="0.8835" style="stop-color:#A1CFF7"/>
		</linearGradient>
		<path fill="url(#SVGID_8_)" d="M301.725,226.153l25.123-14.504c2.152-1.244,3.898-4.578,3.898-7.449v-27.38
			c0-2.871-1.746-4.19-3.898-2.947l-25.123,14.505c-2.154,1.243-3.898,4.578-3.898,7.449v27.379
			C297.826,226.077,299.57,227.396,301.725,226.153z"/>
		<path opacity="0.56" fill="#ADD5F7" d="M305.851,227.349l25.123-14.505c2.153-1.244,3.898-4.578,3.898-7.449v-27.379
			c0-2.871-1.745-4.19-3.898-2.947l-25.123,14.505c-2.152,1.243-3.898,4.578-3.898,7.449v27.379
			C301.952,227.272,303.698,228.592,305.851,227.349z"/>
		<path fill="#FFFFFF" d="M302.001,206.998v0.822c0,1.598,1.129,2.242,2.522,1.438l0,0c1.23-0.71,1.846,0.641,0.977,2.142l0,0
			c-0.984,1.699-0.984,3.531,0,4.093l0.506,0.289c0.985,0.562,2.582-0.361,3.567-2.06c0.869-1.5,2.357-1.652,2.357-0.24
			c0,1.598,1.129,2.242,2.521,1.438l0.717-0.414c1.393-0.804,2.522-2.752,2.522-4.35l0,0c0-1.411,1.486-2.978,2.357-2.481l0,0
			c0.984,0.562,2.581-0.361,3.566-2.059l0.506-0.875c0.985-1.698,0.985-3.531,0-4.092l0,0c-0.869-0.496-0.253-2.559,0.977-3.269
			c1.394-0.804,2.521-2.751,2.521-4.35v-0.823c0-1.598-1.128-2.242-2.521-1.438l0,0c-1.229,0.71-1.846-0.641-0.977-2.141l0,0
			c0.985-1.699,0.985-3.531,0-4.093l-0.506-0.289c-0.985-0.561-2.582,0.36-3.566,2.059l0,0c-0.871,1.5-2.357,1.652-2.357,0.241l0,0
			c0-1.598-1.13-2.242-2.522-1.438l-0.717,0.414c-1.393,0.804-2.521,2.751-2.521,4.35l0,0c0,1.412-1.488,2.978-2.357,2.481l0,0
			c-0.985-0.561-2.582,0.361-3.567,2.059l-0.506,0.875c-0.984,1.698-0.984,3.531,0,4.092l0,0c0.869,0.496,0.254,2.559-0.977,3.269
			l0,0C303.13,203.452,302.001,205.399,302.001,206.998z M308.553,203.626c0-3.966,2.802-8.799,6.258-10.795
			c3.457-1.996,6.259-0.398,6.259,3.568s-2.802,8.799-6.259,10.795C311.354,209.19,308.553,207.593,308.553,203.626z"/>
	</g>
	<g>
		<path fill="#A01127" d="M251.138,209.995l25.146-14.504c1.03-0.595,1.991-0.598,2.674-0.129l0.025-0.004l4.079,2.387
			c0,0-1.822,2.501-3.042,5.446v22.627c0,2.871-1.602,6.206-3.756,7.449l-20.325,11.781c-1.904,3.204-3.436,5.301-3.436,5.301
			l-4.188-2.276v-0.007c0-0.411-1.221-1.556-1.221-3.242v-27.38C247.094,214.573,248.985,211.238,251.138,209.995z"/>
		<path fill="#C64832" d="M255.607,250.292l25.123-14.505c2.153-1.243,3.898-4.578,3.898-7.449v-27.379
			c0-2.871-1.745-4.19-3.898-2.948l-25.123,14.505c-2.152,1.243-3.898,4.578-3.898,7.449v27.379
			C251.709,250.216,253.455,251.536,255.607,250.292z"/>
		<path opacity="0.32" fill="#A01127" d="M259.137,252.583l25.123-14.505c2.152-1.243,3.898-4.578,3.898-7.449v-27.379
			c0-2.871-1.746-4.19-3.898-2.948l-25.123,14.505c-2.154,1.243-3.898,4.578-3.898,7.449v27.379
			C255.238,252.505,256.982,253.825,259.137,252.583z"/>
		<g>
			<path fill="#FFFFFF" d="M265.534,237.16l-1.462,0.844c-2.044,1.18-2.972,0.81-2.972-2.067c0-1.892,0.231-3.011,0.231-4.689
				c0-0.933-0.486-1.637-1.996-0.819v-2.291c1.51-0.925,1.996-2.191,1.996-3.124c0-1.678-0.231-2.53-0.231-4.421
				c0-2.877,0.928-4.319,2.972-5.499l1.462-0.844v2.078l-0.44,0.254c-0.977,0.563-1.23,1.11-1.23,2.575
				c0,1.438,0.093,2.664,0.093,4.289c0,2.024-0.558,3.119-1.718,4.108v0.106c1.16-0.351,1.718,0.1,1.718,2.125
				c0,1.625-0.093,2.958-0.093,4.396c0,1.465,0.254,1.717,1.23,1.154l0.44-0.254V237.16z"/>
		</g>
		<g>
			<path fill="#FFFFFF" d="M272.787,230.895l0.441-0.255c0.976-0.563,1.23-1.11,1.23-2.575c0-1.438-0.094-2.664-0.094-4.289
				c0-2.024,0.558-3.119,1.719-4.109v-0.106c-1.161,0.35-1.719-0.1-1.719-2.125c0-1.625,0.094-2.957,0.094-4.396
				c0-1.465-0.255-1.717-1.23-1.155l-0.441,0.254v-2.078l1.463-0.844c2.043-1.18,2.971-0.81,2.971,2.067
				c0,1.891-0.231,3.011-0.231,4.689c0,0.932,0.487,1.636,1.996,0.819v2.291c-1.509,0.925-1.996,2.191-1.996,3.124
				c0,1.678,0.231,2.53,0.231,4.421c0,2.877-0.928,4.319-2.971,5.499l-1.463,0.844V230.895z"/>
		</g>
	</g>
	<ellipse opacity="0.43" fill="#88BDEB" cx="103.961" cy="389.964" rx="21.018" ry="10.43"/>
	<g>
		<path fill="#B6D4ED" d="M612.909,370.142l-106.831-65.61c-6.44-3.719-11.662-13.696-11.662-22.284V57.462
			c0-8.588,5.222-12.535,11.662-8.816l107.53,62.082c6.44,3.719,11.661,13.696,11.661,22.284l0.002,223.722
			c0,5.65-1.761,6.688-5.316,8.741L612.909,370.142z"/>
		<path fill="#DBEFFF" d="M545.137,154.07c0,0-50.769,136.543-50.769,127.956l-2.629-232.052l7.087-2.388
			c1.983-0.935,4.485-0.731,7.205,0.838l107.527,62.082c3.146,1.816,6,5.124,8.098,9.034L545.137,154.07z"/>
		<path fill="#2C4482" d="M603.732,370.985l-107.265-62.082c-6.441-3.719-11.399-13.696-11.399-22.284V61.835
			c0-8.588,5.086-12.536,11.527-8.816L603.801,115.1c6.441,3.719,11.338,13.696,11.338,22.284v224.784
			C615.139,370.757,610.174,374.704,603.732,370.985z"/>
		<path fill="#2C4482" d="M619.743,153.873v12.839c0,0.894,0.534,1.308,1.204,0.921l-0.159-0.11c0.67-0.387,0.868-1.435,0.868-2.328
			v-12.839c0-0.894-0.206-1.308-0.876-0.921l-0.004,0.11C620.106,151.931,619.743,152.979,619.743,153.873z"/>
		<path fill="#2C4482" d="M619.743,176.348v12.839c0,0.894,0.534,1.308,1.204,0.921l-0.159-0.109
			c0.67-0.387,0.868-1.435,0.868-2.328v-12.839c0-0.894-0.206-1.309-0.876-0.922l-0.004,0.11
			C620.106,174.407,619.743,175.455,619.743,176.348z"/>
		<path fill="#97CBFF" d="M600.758,332.571l-104.584-60.381c-1.088-0.628-1.758-1.789-1.758-3.044V79.316
			c0-2.706,2.93-4.397,5.273-3.044l104.584,60.382c1.088,0.627,1.758,1.788,1.758,3.044v189.829
			C606.031,332.232,603.102,333.924,600.758,332.571z"/>
		<path fill="#5366C4" d="M568.928,108.208l-33.167-19.15c-1.163-0.672-2.116-2.491-2.116-4.043l0,0
			c0-1.551,0.953-2.271,2.116-1.599l33.167,19.15c1.164,0.671,2.117,2.491,2.117,4.042l0,0
			C571.045,108.16,570.092,108.88,568.928,108.208z"/>
	</g>
	
		<line fill="none" stroke="#FFFFFF" stroke-width="1.0424" stroke-linecap="round" stroke-linejoin="round" stroke-miterlimit="10" x1="502.618" y1="263.534" x2="590.699" y2="315.408"/>
	<polygon fill="#4C73DB" points="528.101,268.638 502.618,253.925 502.618,208.116 528.101,222.828 	"/>
	<polygon fill="#FFFFFF" points="559.332,286.669 533.85,271.957 533.85,242.003 559.332,256.716 	"/>
	<polygon fill="#C64832" points="591.521,305.254 566.039,290.542 566.039,230.484 591.521,245.197 	"/>
	<g>
		
			<line fill="none" stroke="#FFFFFF" stroke-width="1.1849" stroke-miterlimit="10" x1="506.771" y1="98.839" x2="588.467" y2="146.007"/>
		
			<line fill="none" stroke="#FFFFFF" stroke-width="1.1849" stroke-miterlimit="10" x1="507.279" y1="143.509" x2="588.977" y2="190.676"/>
		
			<line fill="none" stroke="#FFFFFF" stroke-width="1.1849" stroke-miterlimit="10" x1="507.79" y1="188.178" x2="589.486" y2="235.346"/>
		<path fill="none" stroke="#FFFFFF" stroke-width="1.1849" stroke-miterlimit="10" d="M589.996,280.016"/>
		<polygon fill="none" stroke="#FFFFFF" stroke-width="1.1849" stroke-miterlimit="10" points="548.128,167.092 507.279,143.509 
			506.771,98.839 547.619,122.423 		"/>
		<polygon fill="none" stroke="#FFFFFF" stroke-width="1.1849" stroke-miterlimit="10" points="588.977,190.676 548.128,167.092 
			547.619,122.423 588.467,146.007 		"/>
		<polygon fill="none" stroke="#FFFFFF" stroke-width="1.1849" stroke-miterlimit="10" points="548.639,211.762 507.79,188.178 
			507.279,143.509 548.128,167.092 		"/>
		<polygon fill="none" stroke="#FFFFFF" stroke-width="1.1849" stroke-miterlimit="10" points="589.486,235.346 548.639,211.762 
			548.128,167.092 588.977,190.676 		"/>
		
			<line fill="none" stroke="#FFFFFF" stroke-width="1.1849" stroke-miterlimit="10" x1="548.639" y1="211.762" x2="507.79" y2="188.178"/>
		
			<line fill="none" stroke="#FFFFFF" stroke-width="1.1849" stroke-miterlimit="10" x1="548.639" y1="211.762" x2="589.486" y2="235.346"/>
	</g>
</g>
</svg>
