<?xml version="1.0" encoding="utf-8"?>
<!-- Generator: Adobe Illustrator 16.0.0, SVG Export Plug-In . SVG Version: 6.00 Build 0)  -->
<!DOCTYPE svg PUBLIC "-//W3C//DTD SVG 1.1//EN" "http://www.w3.org/Graphics/SVG/1.1/DTD/svg11.dtd">
<svg version="1.1" id="Capa_1" xmlns="http://www.w3.org/2000/svg" xmlns:xlink="http://www.w3.org/1999/xlink" x="0px" y="0px"
	 width="767.584px" height="638.707px" viewBox="0 0 767.584 638.707" enable-background="new 0 0 767.584 638.707"
	 xml:space="preserve">
<g>
	<path fill="none" stroke="#ADD5F7" stroke-width="6" stroke-linecap="round" stroke-linejoin="round" stroke-miterlimit="10" d="
		M742.719,438.869L537.383,320.316c-1.487-0.858-3.293-1.441-5.25-1.775c-0.605-0.938-1.524-1.802-2.791-2.533L324.006,197.456
		c-5.411-3.124-14.95-2.729-21.198,0.879L30.179,355.736c-6.248,3.607-6.933,9.115-1.521,12.239l205.336,118.552
		c0.168,0.096,0.351,0.18,0.525,0.27c0.295,0.27,0.68,0.545,1.167,0.826L447.37,609.387c5.411,3.125,14.95,2.729,21.197-0.877
		l272.63-157.402C747.445,447.5,748.13,441.992,742.719,438.869z"/>
	<linearGradient id="SVGID_1_" gradientUnits="userSpaceOnUse" x1="23.7393" y1="382.6836" x2="745.1021" y2="382.6836">
		<stop  offset="0" style="stop-color:#DDECF8"/>
		<stop  offset="0.8835" style="stop-color:#A1CFF7"/>
	</linearGradient>
	<path fill="url(#SVGID_1_)" d="M741.452,418.131L536.116,299.578c-1.487-0.858-3.293-1.441-5.25-1.775
		c-0.605-0.938-1.524-1.803-2.791-2.533L322.738,176.718c-5.41-3.124-14.949-2.729-21.197,0.879L28.911,334.998
		c-6.247,3.607-6.932,9.114-1.521,12.238l205.336,118.553c0.168,0.096,0.352,0.18,0.526,0.27c0.296,0.27,0.679,0.545,1.167,0.826
		l211.685,121.764c5.411,3.125,14.949,2.729,21.197-0.879l272.63-157.4C746.178,426.762,746.863,421.254,741.452,418.131z"/>
	<g>
		<path opacity="0.4" fill="#A8C4E5" d="M341.966,209.953c-13.469-9.202-37.578-10.482-53.848-2.859
			c-16.273,7.623-18.545,21.262-5.078,30.465c13.471,9.201,37.58,10.481,53.852,2.859
			C353.161,232.794,355.435,219.154,341.966,209.953z"/>
		<g>
			<path fill="#4264BF" d="M345.876,214.363c0.262,1.455-0.492,7.577-1.209,9.14c-1.436,4.984-5.934,9.709-13.35,13.184
				c-16.27,7.622-40.379,6.342-53.85-2.86c-6.275-4.289-9.133-9.543-8.746-14.701c-0.064-0.48,0.434-6.883,0.434-6.883
				c0.58-1.789,1.559-3.543,2.93-5.213c2.287-3.292,6.025-6.316,11.184-8.732c16.271-7.623,40.379-6.342,53.848,2.859
				C342.786,205.031,345.657,209.695,345.876,214.363z"/>
			<path fill="#DBEFFF" d="M336.792,199.418c-13.469-9.203-37.576-10.482-53.848-2.859c-16.271,7.621-18.545,21.262-5.078,30.464
				c13.471,9.202,37.58,10.482,53.852,2.86C347.989,222.259,350.259,208.621,336.792,199.418z"/>
			<path fill="#FFFFFF" d="M328.907,203.113c-9.863-6.741-27.521-7.678-39.438-2.096c-11.918,5.583-13.582,15.572-3.717,22.313
				c9.863,6.74,27.521,7.678,39.439,2.096C337.11,219.841,338.771,209.851,328.907,203.113z"/>
			<g>
				<path fill="#353559" d="M291.218,217.091c-1.926-1.609-3.496-3.873-3.523-5.9l6.383-0.377c0.375,2.025,1.217,3.521,3.012,4.717
					c2.094,1.396,3.955,1.561,5.807,0.643c4.148-2.053-5.807-8.59,1.443-12.177c3.947-1.954,8.855-1.864,13.135,0.099l4.148-2.053
					l3.629,2.417l-4.066,2.013c2.031,1.773,2.463,3.557,2.27,5.348l-6.148-0.171c-0.02-1.554-0.494-2.665-2.066-3.712
					c-1.795-1.195-3.533-1.465-5.344-0.567c-3.826,1.894,6.371,8.311-1.324,12.118c-3.863,1.912-8.826,2.067-13.564-0.06
					l-4.191,2.073l-3.627-2.418L291.218,217.091z"/>
			</g>
		</g>
		<g>
			<path fill="#4264BF" d="M346.704,201.444c0.262,1.455-0.492,7.577-1.209,9.14c-1.434,4.984-5.932,9.708-13.348,13.183
				c-16.271,7.623-40.381,6.343-53.85-2.859c-6.277-4.289-9.133-9.542-8.748-14.701c-0.064-0.481,0.434-6.884,0.434-6.884
				c0.58-1.791,1.561-3.543,2.93-5.213c2.287-3.293,6.025-6.316,11.182-8.731c16.271-7.624,40.381-6.343,53.85,2.859
				C343.616,192.112,346.485,196.775,346.704,201.444z"/>
			<path fill="#DBEFFF" d="M337.622,186.5c-13.471-9.204-37.58-10.484-53.852-2.86c-16.27,7.622-18.541,21.263-5.074,30.465
				c13.469,9.202,37.578,10.482,53.848,2.859C348.819,209.339,351.089,195.701,337.622,186.5z"/>
			<path fill="#FFFFFF" d="M329.735,190.193c-9.863-6.74-27.521-7.678-39.438-2.096c-11.916,5.584-13.58,15.572-3.717,22.313
				s27.521,7.678,39.439,2.094C337.937,206.921,339.601,196.931,329.735,190.193z"/>
			<g>
				<path fill="#353559" d="M292.046,204.171c-1.926-1.609-3.494-3.871-3.521-5.9l6.381-0.377c0.377,2.026,1.217,3.521,3.012,4.717
					c2.094,1.396,3.955,1.56,5.809,0.644c4.148-2.054-5.807-8.59,1.441-12.178c3.947-1.954,8.855-1.862,13.135,0.1l4.15-2.054
					l3.627,2.416l-4.066,2.013c2.029,1.774,2.463,3.559,2.27,5.349l-6.15-0.171c-0.018-1.554-0.492-2.665-2.064-3.712
					c-1.795-1.195-3.531-1.465-5.344-0.567c-3.826,1.894,6.369,8.312-1.322,12.119c-3.867,1.911-8.828,2.067-13.566-0.061
					l-4.189,2.073l-3.629-2.418L292.046,204.171z"/>
			</g>
		</g>
		<g>
			<path fill="#4264BF" d="M347.724,185.542c0.262,1.454-0.492,7.578-1.209,9.139c-1.436,4.983-5.934,9.71-13.348,13.184
				c-16.273,7.623-40.381,6.342-53.85-2.86c-6.279-4.289-9.133-9.542-8.748-14.7c-0.064-0.48,0.434-6.884,0.434-6.884
				c0.58-1.79,1.559-3.544,2.93-5.212c2.287-3.293,6.025-6.315,11.182-8.732c16.271-7.623,40.381-6.343,53.85,2.859
				C344.636,176.211,347.505,180.874,347.724,185.542z"/>
			<path fill="#DBEFFF" d="M338.64,170.597c-13.469-9.201-37.576-10.482-53.85-2.859c-16.271,7.623-18.541,21.262-5.072,30.464
				c13.467,9.204,37.576,10.483,53.848,2.86S352.108,179.799,338.64,170.597z"/>
			<path fill="#F4EDB3" d="M330.755,174.291c-9.863-6.74-27.52-7.678-39.436-2.096c-11.92,5.584-13.582,15.574-3.719,22.313
				c9.865,6.741,27.521,7.679,39.438,2.096C338.956,191.019,340.62,181.031,330.755,174.291z"/>
		</g>
	</g>
	<g>
		<polygon opacity="0.43" fill="#88BDEB" points="249.03,409.992 287.852,432.584 314.903,417.686 274.823,394.545 		"/>
		<path opacity="0.43" fill="#88BDEB" d="M578.092,446.162l-221.718-128.01c-7.62-4.4-21.055-3.843-29.854,1.237l-74.935,43.264
			c-8.8,5.081-9.765,12.837-2.145,17.237l143.441,82.816l-26.369,15.791l38.822,22.592l27.651-15.229l39.744,22.945L578.092,446.162
			z"/>
	</g>
	<polygon fill="#88BDEB" points="565.533,394.056 487.865,438.219 433.539,399.101 511.206,354.938 	"/>
	<path fill="#A01127" d="M514.351,322.631l-27.34,21.121c-4.465,2.734-7.817,0.021-7.813-4.678l-0.521-7.648
		c0.004-4.697,3.661-10.778,8.126-13.512l27.568-16.879c4.465-2.733,8.114-1.127,8.11,3.571l-0.005,4.513
		C522.473,313.817,518.815,319.897,514.351,322.631z"/>
	<g>
		<g>
			<path fill="#FFC2B0" d="M522.067,275.119c-2.641,5.36-5.971,9.743-10.108,14.008c-3.017,3.11-5.312,6.363-6.989,10.367
				c-1.788,4.267-3.641,7.981-7.197,11.013c-3.854,3.284-7.66,6.308-11.071,10.099c-2.69,2.988,1.719,7.426,4.422,4.422
				c5.936-6.595,13.751-10.869,17.797-18.994c2.504-5.03,4.237-9.16,8.211-13.255c4.231-4.364,7.643-9.034,10.337-14.502
				C529.244,274.671,523.85,271.501,522.067,275.119L522.067,275.119z"/>
		</g>
	</g>
	<path fill="#3856A6" d="M509.586,279.912l-7.269,18.489c-0.845,5.741,11.991,8.033,13.111,3.404l5.441-18.359
		c0.702-2.964-0.957-5.978-3.837-6.97l0,0C514.031,275.442,510.748,276.957,509.586,279.912z"/>
	<path fill="#283D75" d="M565.382,394.281L565.382,394.281c0.884-0.132,1.495-0.955,1.363-1.84l-6.58-44.363
		c-0.132-0.885-0.955-1.495-1.839-1.364l0,0c-0.885,0.131-1.495,0.954-1.364,1.839l6.581,44.364
		C563.674,393.802,564.497,394.412,565.382,394.281z"/>
	<path fill="#C64832" d="M513.325,320.52l13.813-36.537c2.271-6.011,8.591-8.639,13.685-5.692l20.37,11.782
		c3.67,2.123,5.724,6.632,5.133,11.272l-6.049,47.561L513.325,320.52z"/>
	<path fill="#A01127" d="M523.91,364.938l-39.121-22.587c-3.626-2.093-2.158-6.685,3.261-10.203l14.062-9.13
		c5.419-3.519,12.819-4.685,16.444-2.592l39.121,22.587c3.626,2.093,2.158,6.685-3.261,10.202l-14.063,9.131
		C534.936,365.864,527.535,367.03,523.91,364.938z"/>
	<path fill="#4264BF" d="M505.745,328.363c0.979,1.493,8.186-17.878,4.146-44.722l36.059,17.304
		c-1.006,17.438-6.741,23.196-11.225,44.53L505.745,328.363z"/>
	<path fill="#3856A6" d="M525.594,337.98c0.965,1.341,19.867-11.674,17.042-33.506c-0.358-2.775-2.319-2.138,0.496-1.305
		l3.373-2.201c0.733,14.169,6.43,14.957,0.633,34.213c-1.329,4.418-8.62,12.909-12.979,10.294L525.594,337.98z"/>
	<path fill="#4264BF" d="M511.927,277.078c-1.777,1.746-1.913,4.169-2.035,6.563c-0.184,3.62,1.636,8.557,4.992,9.928l35.626,13.999
		c0,0,4.773-11.611-1.742-16.515c-3.509-2.642-11.464-8.627-15.729-11.944C526.774,274.236,517.587,271.515,511.927,277.078z"/>
	<path fill="#424268" d="M539.043,287.751l-15.064-4.539l3.55-8.365c5.317,0.51,8.857,2.632,12.977,6.178L539.043,287.751z"/>
	<path fill="#FFFFFF" d="M532.265,285.739c0,0-4.336-0.516-4.281-8.158l-2.842-0.734c-0.436,0.271-1.245-0.039-1.924,2.441
		c-0.403,1.476-0.476,3.022-0.277,4.54l0.577,4.427c0.13,0.992,1.262,1.568,2.14,1.088L532.265,285.739z"/>
	<path fill="#FFC2B0" d="M528.904,282.39l-3.616-13.339l9.168,2.538l2.941,10.892C538.031,284.254,531.561,289.191,528.904,282.39z"
		/>
	<path fill="#FFC2B0" d="M528.515,279.724l-2.602,0.087c-4.008,0.134-7.396-3.036-7.53-7.044l-0.442-13.232
		c-0.134-4.008,3.036-7.396,7.044-7.529l2.602-0.087c4.008-0.134,7.396,3.035,7.53,7.043l0.441,13.232
		C535.691,276.201,532.522,279.59,528.515,279.724z"/>
	<path fill="#283D75" d="M526.63,262.442c-2.369,0.816-5.035,1.1-7.469,0.16c-3.275-1.263-5.591-5.864-3.021-8.256
		c1.39-1.292,4.95-2.459,7.91-3.659c8.396-3.407,17.497,0.896,17.816,10.482c0,0,1.403,11.85-5.22,14.536
		c-0.529,0.214-1.137,0.071-1.551-0.321l-0.05-0.046c-0.466-0.442-0.586-1.128-0.327-1.716c0.607-1.384,1.165-4.049-2.154-6.055
		c-0.693-0.419-1.043-1.191-1.181-2.106C531.044,263.196,528.797,261.696,526.63,262.442z"/>
	<path fill="#FFC2B0" d="M537.026,272.478c-1.168,0.971-2.504,0.636-2.984-0.749c-0.48-1.384,0.077-3.293,1.244-4.264
		c1.168-0.971,2.504-0.636,2.984,0.749C538.751,269.598,538.193,271.507,537.026,272.478z"/>
	<path fill="#EA8A6C" d="M528.073,279.738c0,0,3.756-1.924,3.771-1.959c0,0-1.283,2.733-3.149,3.801L528.073,279.738z"/>
	<path fill="#FFFFFF" d="M530.073,285.133c0,0,4.747,2.268,10.432-4.108l2.756,4.366c0.214,0.645,0.239,0.722-0.319,1.205
		l-7.299,6.295c-0.854,0.739-2.251,0.483-2.639-0.484L530.073,285.133z"/>
	<path fill="#C64832" d="M553.092,356.485l-27.567,16.879c-4.466,2.733-7.917,1.451-7.67-2.852l0.237-4.133
		c0.247-4.302,4.102-10.059,8.566-12.792l27.568-16.879c4.465-2.734,7.916-1.451,7.67,2.852l-0.237,4.132
		C561.412,347.995,557.557,353.751,553.092,356.485z"/>
	<path fill="#2C4482" d="M241.68,375.606l-0.683-0.127c-1.092-0.202-1.813-1.252-1.611-2.345l15.46-83.359
		c0.203-1.093,1.253-1.814,2.345-1.611l0.683,0.126c1.093,0.203,1.813,1.253,1.61,2.346l-15.459,83.359
		C243.821,375.088,242.772,375.809,241.68,375.606z"/>
	<path fill="#A8C4E5" d="M529.002,343.851l-0.009-1.269l-1.632,0.632l-0.35-0.806l-40.849-23.584
		c-0.492-0.284-1.359-0.248-1.928,0.08l-17.586,10.153v-0.282l-3.253,1.306v1.348h0.022c0.042,0.131,0.143,0.252,0.31,0.349
		l42.508,24.541c0.491,0.284,1.359,0.248,1.927-0.08l20.369-11.76C528.842,344.3,529,344.069,529.002,343.851L529.002,343.851z"/>
	<path fill="#E1EAF4" d="M506.212,354.978l-42.508-24.541c-0.491-0.284-0.43-0.785,0.139-1.113l20.369-11.76
		c0.567-0.328,1.436-0.364,1.927-0.08l42.508,24.542c0.492,0.284,0.43,0.784-0.139,1.112l-20.368,11.76
		C507.571,355.226,506.704,355.262,506.212,354.978z"/>
	<path fill="#A8C4E5" d="M509.116,339.171l-10.287-5.939c-0.119-0.068-0.104-0.19,0.033-0.27l4.93-2.846
		c0.138-0.079,0.347-0.088,0.466-0.02l10.288,5.939c0.119,0.068,0.104,0.189-0.034,0.27l-4.929,2.846
		C509.445,339.231,509.235,339.239,509.116,339.171z"/>
	<path fill="#FFFFFF" d="M505.128,327.359c-0.173-1.119-1.049-2.444-1.958-2.961l-42.201-23.983
		c-0.377-0.214-0.697-0.253-0.934-0.148l-0.003-0.002l-0.006,0.005c-0.084,0.039-0.157,0.094-0.218,0.169l-1.397,1.467l1.271-0.112
		l4.011,25.933c0.173,1.119,1.049,2.444,1.958,2.961l39.904,22.679l1.289,1.448l0.16,0.356c0.807,0.174,2.739-1.198,2.739-1.198
		L505.128,327.359z"/>
	<g>
		<path fill="#A01127" d="M402.238,256.553l-27.34,21.121c-4.465,2.734-7.817,0.021-7.813-4.678l-0.521-7.648
			c0.004-4.698,3.661-10.778,8.126-13.512l27.568-16.879c4.465-2.734,8.114-1.127,8.11,3.57l-0.004,4.514
			C410.36,247.738,406.703,253.819,402.238,256.553z"/>
		<path fill="#283D75" d="M453.27,328.202L453.27,328.202c0.885-0.131,1.495-0.954,1.364-1.839l-6.581-44.364
			c-0.131-0.884-0.955-1.495-1.839-1.363l0,0c-0.885,0.131-1.495,0.954-1.364,1.839l6.581,44.364
			C451.562,327.723,452.385,328.334,453.27,328.202z"/>
		<path fill="#C64832" d="M402.341,255.594l13.813-36.537c2.271-6.011,8.591-8.639,13.685-5.692l20.37,11.782
			c3.67,2.123,5.724,6.632,5.133,11.272l-5.794,41.195L402.341,255.594z"/>
		<path fill="#A01127" d="M411.798,298.858l-39.121-22.586c-3.626-2.094-2.158-6.685,3.261-10.203L390,256.938
			c5.418-3.519,12.818-4.685,16.443-2.591l39.121,22.586c3.626,2.094,2.158,6.685-3.261,10.203l-14.062,9.131
			C422.823,299.786,415.423,300.952,411.798,298.858z"/>
		<path fill="#C64832" d="M440.979,290.406l-27.567,16.88c-4.465,2.733-7.917,1.45-7.67-2.852l0.237-4.133
			c0.247-4.302,4.102-10.059,8.567-12.792l27.567-16.879c4.465-2.734,7.917-1.451,7.67,2.851l-0.237,4.133
			C449.3,281.916,445.445,287.673,440.979,290.406z"/>
		<g>
			<path fill="#715154" d="M411.973,199.456c-1.427,2.53-3.076,8.675-1.749,11.708c0.214,0.488,4.395,11.97,4.87,11.686
				c0.475-0.284,6.229-2.04,6.637-2.413c1.217-1.111,9.739,6.426,10.977,5.339c1.678-1.473,2.384-22.806,2.454-25.036
				c0.09-2.845-14.155-2.712-15.909-4.953c-0.343-0.439-0.746-0.835-1.03-1.314l0,0c-0.411-0.696-0.614-2-1.636-1.839
				c-0.819,0.129-1.41,1.397-1.833,1.977C413.532,196.281,413.25,197.193,411.973,199.456z"/>
		</g>
		<g>
			<path fill="#FFC2B0" d="M405.811,222.155c-0.754,4.805-1.661,9.555-3.949,13.889c-1.943,3.682-4.229,8.557-7.502,11.158
				c-3.156,2.509-7.247,3.562-10.678,5.624c-4.417,2.653-7.604,6.4-10.007,10.922c-2.103,3.956,3.908,7.479,6.015,3.516
				c2.845-5.352,6.633-8.209,12.013-10.697c3.742-1.73,7.278-3.542,9.91-6.823c5.967-7.439,9.454-16.416,10.915-25.736
				C413.216,219.621,406.505,217.732,405.811,222.155L405.811,222.155z"/>
		</g>
		<g>
			<g>
				<path fill="#97CBF2" d="M406.266,220.443c-1.453,4.236-2.479,8.653-4.047,12.844c-1.195,3.192-3.35,5.742-5.572,8.282
					c-3.921,4.481,2.623,11.076,6.568,6.567c2.983-3.41,5.781-6.831,7.465-11.075c1.82-4.591,2.939-9.478,4.542-14.148
					C417.166,217.247,408.197,214.813,406.266,220.443L406.266,220.443z"/>
			</g>
		</g>
		<path fill="#4264BF" d="M404.887,257.556c-15.925,10.098-25.645,19.331-25.04,23.666c0,0,7.934-4.397,14.156-0.783
			c9.224,5.356,0.561,10.317,0.561,10.317s33.797,2.003,35.575-16.539c1.127-11.75,0-11.114,0-11.114
			S413.543,268.859,404.887,257.556z"/>
		<g>
			<g>
				<path fill="#D0E7F4" d="M435.274,222.636c-3.677-4.089-10.76-6.295-16.087-6.565c-1.493-0.076-1.489,2.246,0,2.322
					c4.731,0.24,11.192,2.268,14.445,5.885C434.635,225.391,436.272,223.744,435.274,222.636L435.274,222.636z"/>
			</g>
		</g>
		<path fill="#DBEFFF" d="M409.516,224.373c0,0-6.073,8.434-5.741,13.75c0.212,3.384,2.418,7.302,2.71,8.397
			c2.392,8.972,0.637,11.545,0.81,13.999c0,0,2.931,4.986,22.575,1.76l10.148-25.005L409.516,224.373z"/>
		<path fill="#DBEFFF" d="M438.166,242.778c0.788-0.423,1.048-1.658,1.048-1.658c0.787-4.517,3.406-6.438-1.093-14.507
			c-0.723-1.296-11.222-7.527-19.27-9.465c-3.901-0.939-7.925,1.03-9.728,4.615c-1.054,2.097-2.199,6.297-2.199,6.299
			c-0.868,8.327,3.462-2.424,3.783,2.221c-0.013-0.112-0.035-0.228-0.045-0.339c0,0,0.56,7.847,0.978,13.92
			c0.256,3.789,0.435,6.53,0.444,6.913c0,0.018,0.001,0.043,0,0.047l13.465,11.933l8.194-12.976l0,0L438.166,242.778z"/>
		<path fill="#FFC2B0" d="M420.936,217.321c-1.018-0.213-2.059,0.183-2.719,0.986c-1.836,2.232-4.81,7.059-0.504,11.139
			c5.818,5.514,16.896-5.422,16.896-5.422C429.904,220.688,425.317,218.237,420.936,217.321z"/>
		<path fill="#FFC2B0" d="M421.556,222.021l-0.67-13.891l7.714,4.335l0.537,11.34C429.363,225.684,422.625,229.266,421.556,222.021z
			"/>
		<path fill="#EA8A6C" d="M421.496,218.492c0,0,4.101-1.126,4.122-1.158c0,0-1.828,2.433-3.888,3.103L421.496,218.492z"/>
		<path fill="#DBEFFF" d="M436.078,240.276c-0.78,1.531-1.857,3.09-3.132,4.637c-3.278,3.982-8.629,5.551-13.567,4.063
			c-7.253-2.185-14.492-6.345-14.492-6.345s2.596,10.407,1.142,16.301c-0.674,2.733,1.026,0.658,1.026,0.658
			c0.004,2.649,3.475,2.823,3.475,2.823c9.142,3.428,19.34-0.135,19.34-0.135l7.048-17.303L436.078,240.276z"/>
		<g>
			<path fill="#283D75" d="M403.871,257.256L403.871,257.256c-0.221,0.576-0.104,1.222,0.306,1.683
				c1.477,1.664,5.562,5.383,12.961,5.943c6.334,0.479,10.221-0.21,12.128-0.731c0.822-0.225,1.344-1.027,1.201-1.867l-0.088-0.515
				c-0.156-0.925-1.051-1.535-1.968-1.335c-3.539,0.772-11.882,2.16-17.063-0.503c-2.39-1.228-3.867-2.335-4.778-3.252
				C405.728,255.832,404.298,256.141,403.871,257.256z"/>
		</g>
		<g>
			<path fill="#FFFFFF" d="M417.489,216.767c-1.329,2.199-1.981,5.149-2.526,7.628c-0.538,2.453-0.269,3.897,1.944,5.468
				c6.177,4.385,13.405-1.001,18.091-5.046c1.134-0.979-0.515-2.614-1.642-1.643c-3.393,2.929-9.325,7.733-14.036,5.36
				c-3.135-1.578-2.21-3.442-1.428-6.116c0.429-1.467,0.805-3.16,1.602-4.479C420.27,216.656,418.262,215.487,417.489,216.767
				L417.489,216.767z"/>
		</g>
		<path fill="#FFC2B0" d="M420.159,218.146l-2.518-0.738c-3.876-1.138-6.117-5.24-4.979-9.117l3.757-12.801
			c1.138-3.876,5.24-6.117,9.116-4.979l2.518,0.738c3.876,1.138,6.117,5.24,4.979,9.117l-3.756,12.801
			C428.139,217.042,424.035,219.283,420.159,218.146z"/>
		<g>
			<path fill="#FFC2B0" d="M434.143,238.386c0.986,6.169,2.502,12.267,3.31,18.461c0.765,5.86,2.232,12.043-2.995,16.088
				c-7.712,5.967-17.381,7.967-19.545,18.926c-0.864,4.379,5.848,6.253,6.717,1.853c2.168-10.981,15.996-11.127,21.367-19.816
				c3.285-5.314,2.089-11.833,1.337-17.694c-0.848-6.605-2.423-13.094-3.474-19.668
				C440.153,232.119,433.439,233.993,434.143,238.386L434.143,238.386z"/>
		</g>
		<g>
			<g>
				<path fill="#DBEFFF" d="M431.225,233.426c4.229,10.673,5.976,21.012,5.829,32.475c-0.075,5.979,9.212,5.981,9.288,0
					c0.155-12.223-1.649-23.555-6.161-34.944C438.006,225.464,429.02,227.857,431.225,233.426L431.225,233.426z"/>
			</g>
		</g>
		<path fill="#715154" d="M426.478,201.189c-1.899-4.155-8.106-1.384-10.61-3.172c-2.717-1.94-0.894-4.776,1.797-6.752
			c1.445-1.061,3.132-1.834,6.191-2.17c8.565-0.939,15.547,4.378,13.568,13.282c0,0,0.218,13.45-7.286,13.42l-0.274-4.634
			c0,0,2.855-1.852-0.789-5.571c-0.851-0.868-0.893-0.898-0.423-2.342C429.127,201.79,427.116,202.587,426.478,201.189z"/>
		<path fill="#715154" d="M426.175,200.646c0,0,5.173,12.224,2.755,18.729c-1.998,5.377-8.907,7.348-12.127,15.422
			c-0.669,1.68,1.341,3.176,2.772,2.07c1.799-1.391,4.063-2.836,6.569-3.745c6.127-2.221,8.794-5.884,9.017-8.787
			c0.224-2.904,2.534-23.628,2.534-23.628l-11.662-4.272L426.175,200.646z"/>
		<path fill="#715154" d="M412.175,204.521c0,0,1.162-4.026,12.234-6.829c11.071-2.803,0.502-0.132,0.502-0.132l-9.065-4.655
			C415.846,192.904,410.93,196.241,412.175,204.521z"/>
		<path fill="#FFC2B0" d="M431.162,213.826c-1.381,0.66-2.603,0.003-2.73-1.468c-0.127-1.471,0.889-3.197,2.269-3.857
			s2.603-0.003,2.729,1.468C433.558,211.439,432.542,213.167,431.162,213.826z"/>
	</g>
	<g>
		<rect x="242.661" y="282.448" fill="#D7E8F7" width="15.095" height="8.767"/>
		<rect x="517.104" y="338.499" fill="#D7E8F7" width="15.095" height="8.767"/>
		<path fill="#D7E8F7" d="M431.015,401.814L244.587,294.181c-2.923-1.688-2.557-4.635,0.818-6.583l86.99-50.225
			c3.375-1.948,8.479-2.16,11.402-0.473l186.428,107.634c2.923,1.688,2.556,4.635-0.818,6.583l-86.991,50.225
			C439.042,403.29,433.937,403.501,431.015,401.814z"/>
		<path fill="#FDFFFF" d="M431.015,393.405L244.587,285.771c-2.923-1.688-2.557-4.635,0.818-6.583l86.99-50.224
			c3.375-1.948,8.479-2.16,11.402-0.473l186.428,107.634c2.923,1.688,2.556,4.635-0.818,6.583l-86.991,50.224
			C439.042,394.881,433.937,395.093,431.015,393.405z"/>
	</g>
	<g>
		<path fill="#4265C2" d="M577.061,451.586l0.481-0.063c1.441-0.186,2.46-1.504,2.274-2.945l-10.342-80.477
			c-0.186-1.441-1.504-2.46-2.945-2.275l-0.481,0.063c-1.441,0.185-2.46,1.504-2.274,2.945l10.342,80.477
			C574.301,450.752,575.619,451.771,577.061,451.586z"/>
		<path fill="#4265C2" d="M472.39,513.898L472.39,513.898c-1.566-0.135-2.727-1.514-2.592-3.08l11.182-129.829
			c0.136-1.566,1.515-2.727,3.08-2.592l0,0c1.566,0.135,2.727,1.514,2.592,3.08L475.47,511.309
			C475.335,512.873,473.956,514.033,472.39,513.898z"/>
		<polygon fill="#2C4482" points="481.001,446.148 475.585,442.443 477.133,426.848 482.901,427.75 		"/>
		<g>
			<rect x="295.883" y="313.548" fill="#D7E8F7" width="15.095" height="8.767"/>
			<rect x="570.326" y="369.599" fill="#D7E8F7" width="15.094" height="8.766"/>
			<path fill="#D7E8F7" d="M484.235,432.914L297.808,325.279c-2.922-1.687-2.556-4.634,0.819-6.583l86.99-50.224
				c3.375-1.948,8.479-2.16,11.402-0.473l186.428,107.634c2.923,1.688,2.556,4.635-0.818,6.583l-86.991,50.225
				C492.263,434.391,487.158,434.602,484.235,432.914z"/>
			<path fill="#FDFFFF" d="M484.235,424.506L297.808,316.871c-2.922-1.688-2.556-4.635,0.819-6.583l86.99-50.224
				c3.375-1.949,8.479-2.16,11.402-0.473l186.428,107.634c2.923,1.687,2.556,4.634-0.818,6.583l-86.991,50.225
				C492.263,425.98,487.158,426.193,484.235,424.506z"/>
		</g>
	</g>
	<polygon opacity="0.53" fill="#A8C4E5" points="517.842,350.585 492.204,365.174 448.895,340.973 474.906,325.777 	"/>
	<g>
		<path fill="#A8C4E5" d="M528.832,344.055l-0.01-1.268l-1.632,0.632l-0.35-0.807l-40.848-23.583
			c-0.492-0.284-1.359-0.248-1.928,0.079l-17.587,10.154v-0.283l-3.252,1.307v1.347h0.021c0.042,0.131,0.144,0.253,0.311,0.349
			l42.507,24.542c0.492,0.284,1.359,0.248,1.928-0.08l20.368-11.76C528.672,344.504,528.83,344.273,528.832,344.055L528.832,344.055
			z"/>
		<path fill="#E1EAF4" d="M506.041,355.183l-42.507-24.542c-0.492-0.284-0.43-0.784,0.139-1.112l20.368-11.76
			c0.568-0.328,1.436-0.364,1.928-0.08l42.507,24.541c0.492,0.284,0.43,0.785-0.138,1.113l-20.369,11.76
			C507.4,355.431,506.533,355.467,506.041,355.183z"/>
		<path fill="#A8C4E5" d="M508.945,339.376l-10.287-5.939c-0.119-0.069-0.104-0.19,0.033-0.27l4.93-2.847
			c0.138-0.079,0.348-0.088,0.467-0.019l10.287,5.939c0.119,0.068,0.104,0.189-0.033,0.269l-4.93,2.847
			C509.274,339.436,509.064,339.444,508.945,339.376z"/>
		<path fill="#FFFFFF" d="M504.958,327.563c-0.173-1.118-1.05-2.444-1.958-2.96l-42.202-23.983
			c-0.376-0.214-0.697-0.253-0.934-0.149l-0.002-0.001l-0.007,0.005c-0.084,0.038-0.157,0.094-0.218,0.168l-1.397,1.468l1.271-0.113
			l4.011,25.934c0.173,1.119,1.05,2.444,1.958,2.96l39.905,22.679l1.288,1.448l0.16,0.356c0.808,0.175,2.74-1.197,2.74-1.197
			L504.958,327.563z"/>
	</g>
	<path fill="#283D75" d="M506.354,356.235l-42.202-23.983c-0.908-0.516-1.784-1.842-1.957-2.96l-4.056-26.22
		c-0.173-1.119,0.423-1.607,1.331-1.092l42.202,23.984c0.909,0.516,1.785,1.841,1.958,2.96l4.056,26.22
		C507.859,356.264,507.264,356.752,506.354,356.235z"/>
	<path fill="#FFFFFF" d="M484.9,328.978c0.216,1.393-1.048,1.704-2.821,0.696c-1.774-1.008-3.387-2.954-3.603-4.348
		c-0.215-1.393,1.048-1.704,2.822-0.696C483.072,325.638,484.686,327.584,484.9,328.978z"/>
	<g>
		<g>
			<path fill="#FFC2B0" d="M546.017,319.956c0.004,3.454-0.115,7.711-3.177,9.978c-2.691,1.992-6.632,2.196-9.832,2.512
				c-8.32,0.82-16.283,1.654-23.87,5.465c-3.605,1.811-0.438,7.205,3.156,5.4c9.01-4.525,18.784-3.557,28.333-5.729
				c8.711-1.982,11.653-9.385,11.644-17.625C552.266,315.923,546.012,315.923,546.017,319.956L546.017,319.956z"/>
		</g>
	</g>
	<path fill="#4264BF" d="M542.289,299.229l1.313,19.823c1.685,5.554,14.272,2.151,13.311-2.513l-2.91-18.927
		c-0.629-2.98-3.415-4.998-6.443-4.667l0,0C544.402,293.29,542.079,296.061,542.289,299.229z"/>
	<polygon fill="#EEF8FF" points="370.341,292.435 348.811,280.004 380.609,261.645 402.14,274.075 	"/>
	<polygon fill="#DBEFFF" points="348.811,285.283 348.811,280.004 370.341,292.435 402.14,274.075 402.14,279.354 370.341,297.714 	
		"/>
	<polygon fill="#DBEFFF" points="348.811,285.283 348.811,280.004 370.341,292.435 370.341,297.714 	"/>
	<path fill="#DBEFFF" d="M348.811,281.683l-1.277,0.814c-0.305,0.194-0.312,0.637-0.013,0.841l1.29,0.878V281.683z"/>
	<path fill="#A8C4E5" d="M366.447,292.911l3.51,2.087c0.228,0.136,0.512,0.135,0.738-0.001l5.994-3.589l-6.055,3.095
		c-0.194,0.1-0.424,0.105-0.624,0.016L366.447,292.911z"/>
	<path fill="#4264BF" d="M362.187,283.458l-5.942-3.432c-0.39-0.225-0.34-0.62,0.109-0.88l0,0c0.449-0.26,1.136-0.288,1.525-0.063
		l5.942,3.431c0.389,0.226,0.34,0.621-0.11,0.881l0,0C363.262,283.654,362.576,283.683,362.187,283.458z"/>
	<path fill="#4264BF" d="M392.575,277.169l-16.6-9.583c-0.194-0.112-0.17-0.311,0.055-0.44l0,0c0.225-0.13,0.567-0.144,0.763-0.031
		l16.599,9.583c0.195,0.112,0.17,0.311-0.055,0.44l0,0C393.112,277.268,392.77,277.281,392.575,277.169z"/>
	<path fill="#4264BF" d="M388.622,279.451l-16.6-9.583c-0.194-0.112-0.17-0.311,0.055-0.44l0,0c0.225-0.13,0.568-0.145,0.763-0.031
		l16.6,9.583c0.194,0.112,0.169,0.311-0.056,0.44l0,0C389.159,279.55,388.816,279.563,388.622,279.451z"/>
	<path fill="#4264BF" d="M384.669,281.733l-16.6-9.583c-0.194-0.112-0.17-0.311,0.056-0.44l0,0c0.225-0.13,0.567-0.144,0.762-0.031
		l16.6,9.583c0.194,0.112,0.17,0.311-0.055,0.44l0,0C385.206,281.832,384.863,281.846,384.669,281.733z"/>
	<path fill="#4264BF" d="M380.716,284.016l-16.599-9.583c-0.195-0.112-0.17-0.311,0.055-0.44l0,0
		c0.225-0.13,0.567-0.145,0.762-0.031l16.6,9.583c0.194,0.112,0.17,0.311-0.055,0.44l0,0
		C381.254,284.114,380.91,284.128,380.716,284.016z"/>
	<path fill="#4264BF" d="M376.763,286.298l-16.599-9.583c-0.195-0.112-0.17-0.311,0.055-0.44l0,0
		c0.225-0.13,0.567-0.144,0.762-0.031l16.6,9.583c0.194,0.112,0.17,0.311-0.055,0.44l0,0
		C377.301,286.396,376.957,286.41,376.763,286.298z"/>
	<path fill="#283D75" d="M330.638,407.529l0.133-0.02c0.896-0.133,1.515-0.967,1.382-1.863l-6.384-43.028
		c-0.133-0.896-0.967-1.515-1.862-1.382l-0.133,0.02c-0.896,0.133-1.514,0.967-1.381,1.863l6.383,43.029
		C328.908,407.043,329.742,407.662,330.638,407.529z"/>
	<path fill="#283D75" d="M249.815,410.342L249.815,410.342c-0.9-0.133-1.521-0.971-1.388-1.871l7.756-52.299
		c0.134-0.9,0.972-1.522,1.872-1.389l0,0c0.9,0.134,1.521,0.972,1.389,1.872l-7.756,52.298
		C251.554,409.854,250.716,410.477,249.815,410.342z"/>
	<path fill="#283D75" d="M287.852,432.584L287.852,432.584c-0.965-0.143-1.631-1.041-1.488-2.006l9.06-61.084
		c0.144-0.965,1.041-1.631,2.006-1.487l0,0c0.965,0.143,1.631,1.041,1.488,2.006l-9.06,61.083
		C289.715,432.061,288.816,432.727,287.852,432.584z"/>
	<path fill="#3D62C4" d="M296.139,383.587l-36.728-21.204c-3.402-1.965-2.025-6.275,3.062-9.578l13.202-8.571
		c5.086-3.304,12.033-4.398,15.438-2.433l36.727,21.204c3.403,1.965,2.025,6.274-3.062,9.578l-13.201,8.571
		C306.488,384.458,299.542,385.553,296.139,383.587z"/>
	<path fill="#283D75" d="M285.992,344.866l-25.667,19.828c-4.191,2.566-7.339,0.019-7.335-4.392l-0.489-7.181
		c0.005-4.41,3.438-10.118,7.629-12.685l25.882-15.846c4.191-2.566,7.617-1.058,7.613,3.353l-0.004,4.236
		C293.617,336.591,290.184,342.3,285.992,344.866z"/>
	<path fill="#4C73DB" d="M293.625,389.388l-37.214-21.57c-3.49-2.015-5.42-6.028-5.42-6.028c-1.306-3,1.81-5.17,5.3-3.155
		l34.141,20.1c3.489,2.015,4.807,4.12,4.243,6.618C294.675,385.352,298.049,391.671,293.625,389.388z"/>
	<path fill="#4C73DB" d="M326.058,373.408l-25.881,15.846c-4.191,2.566-7.432,1.362-7.199-2.677l0.222-3.88
		c0.232-4.038,3.852-9.442,8.043-12.009l25.881-15.846c4.191-2.566,7.432-1.362,7.2,2.677l-0.223,3.88
		C333.869,365.438,330.25,370.842,326.058,373.408z"/>
	<path fill="#4C73DB" d="M251.013,361.245l-6.479-40.523c-1.097-5.993,3.383-7.988,9.703-4.32l25.273,14.665
		c4.553,2.643,8.876,7.58,10.808,12.344l10.668,26.313c3.059,7.543-3.543,14.967-9.928,11.164L251.013,361.245z"/>
	<path fill="#283D75" d="M367.475,478.973L367.475,478.973c-0.9-0.133-1.521-0.971-1.389-1.871l7.757-52.299
		c0.134-0.9,0.972-1.521,1.872-1.389l0,0c0.9,0.135,1.521,0.973,1.388,1.873l-7.756,52.299
		C369.213,478.486,368.375,479.107,367.475,478.973z"/>
	<path fill="#283D75" d="M405.51,501.215L405.51,501.215c-0.964-0.143-1.631-1.041-1.487-2.006l9.06-61.084
		c0.143-0.965,1.041-1.631,2.006-1.486l0,0c0.965,0.143,1.631,1.041,1.487,2.006l-9.059,61.082
		C407.373,500.691,406.475,501.359,405.51,501.215z"/>
	<path fill="#3D62C4" d="M409.683,457.125l-36.727-21.205c-3.403-1.965-2.025-6.275,3.062-9.578l13.201-8.572
		c5.087-3.303,12.034-4.396,15.438-2.432l36.727,21.203c3.404,1.965,2.026,6.275-3.061,9.578l-13.202,8.572
		C420.033,457.994,413.087,459.09,409.683,457.125z"/>
	<path fill="#283D75" d="M401.272,408.775l-25.667,19.828c-4.191,2.566-7.339,0.02-7.334-4.391l-0.489-7.182
		c0.004-4.41,3.437-10.117,7.629-12.685l25.881-15.847c4.191-2.566,7.618-1.058,7.613,3.353l-0.004,4.237
		C408.897,400.5,405.465,406.209,401.272,408.775z"/>
	<path fill="#2C4482" d="M455.929,460.625l-12.366,2.521l-1.664,4.293c-0.398,3.076-0.377,4.713,1.664,6.336
		c1.716,1.365,5.216,0.313,7.043-0.539l7.943-4.777c5.888-3.244,5.443-5.648,4.808-7.633l0,0
		C462.414,458.604,459.691,459.119,455.929,460.625z"/>
	<path fill="#2C4482" d="M432.46,449.914l-11.262,2.289l-1.517,3.904c-0.364,2.799-0.346,4.289,1.513,5.766
		c1.562,1.242,4.749,0.285,6.414-0.488l7.234-4.344c5.362-2.949,4.958-5.137,4.381-6.941l0,0
		C438.366,448.078,435.887,448.545,432.46,449.914z"/>
	<path fill="#C2E3FF" d="M430.71,440.441c-2.713,2.119-8.531,8.172-10.39,5.197c-0.119,1.576-0.212,3.154-0.26,4.73
		c-0.197,6.426,9.791,6.996,9.989,0.547C430.089,449.645,430.625,441.713,430.71,440.441z"/>
	<path fill="#C2E3FF" d="M424.277,421.377c1.718-0.541,10.897,1.666,11.281,2.078c0.453,0.543,0.493,0.574,0.121,0.096
		c0.229,0.313,1.264,1.973,1.538,2.498c0.014,0.027,0.766,1.715,0.382,0.758c0.272,0.678,0.498,1.377,0.704,2.078
		c1.25,4.234,1.572,8.699,2.256,13.695c0.752,5.5,1.673,12.588,1.29,18.717c-0.206,3.299,2.958,6.113,6.115,6.113
		c3.481,0,4.962-2.758,5.169-6.068c0.477-7.641,0.138-15.508-0.926-23.053c-0.219-1.551-0.45-3.1-0.681-4.65
		c-0.079-0.529-0.144-1.064-0.235-1.594c-0.205-1.174,0.25,1.512,0.09,0.658c-0.759-4.045-0.097-8.732-1.813-12.535
		c-2.778-6.158-2.202-5.082-7.113-7.006c-8.925-3.5-31.54,15.973-28.831,14.055C413.624,427.217,420.402,422.6,424.277,421.377z"/>
	<path fill="#ACD3EF" d="M398.361,431.561c5.948-3.934,12.519-7.422,18.913-10.576c5.033-2.484,3.326-1.984,8.736-3.469
		c3.312-0.91,9.134,10.908,10.879-3.439c-0.586-6.383-3.774-9.331-8.327-10.478c-5.739,1.667-11.379,3.917-16.76,6.485
		c-6.649,3.176-13.467,6.85-19.614,10.916C385.653,425.324,391.771,435.92,398.361,431.561L398.361,431.561z"/>
	<path fill="#C2E3FF" d="M416.6,441.602c5.117-2.918,11.605-8.191,16.939-10.686c4.536-2.119,5.749-4.436,10.382-5.303
		c3.332-0.623,5.224-4.646,4.381-7.715c-0.961-3.496-4.374-5.004-7.715-4.381c-2.42,0.453-4.381,0.57-6.849,1.078
		c-2.709,0.559-5.233,1.76-7.728,2.92c-5.682,2.641-11.568,5.068-17.014,8.174c-7.011,3.998-0.699,14.84,6.331,10.83L416.6,441.602z
		"/>
	<path fill="#C64832" d="M394.284,359.419c-2.357,2.55-2.287,4.197-2.574,7.816c-0.28,3.538,1.813,6.71,5.149,7.825l33.255,11.12
		c0,0,9.302-12.93-1.616-17.622c-5.679-2.441-9.523-5.813-13.778-8.767C408.471,355.455,399.73,353.528,394.284,359.419z"/>
	<path fill="#C64832" d="M391.045,416.313c-2.224-0.791-1.612-31.614,1.024-52.692l38.919,17.737
		c-2.412,12.769-3.13,23.383-2.816,36.061c0.196,7.961-8.194,13.248-15.327,9.709L391.045,416.313z"/>
	<g>
		<path fill="#FFC2B0" d="M428.421,380.578c4.325,3.291,7.853,7.883,12.439,10.785c3.149,1.994,8.346,2.858,11.406,0.228
			c8.572-7.369-11.478-19.202-16.117-21.515c-4.192-2.089-7.895,4.206-3.685,6.304c4.028,2.008,7.913,4.385,11.193,7.494
			c0.906,0.859,1.939,2.871,2.922,3.448c0.155,0.091,1.508,3.977,0.825-1.134c-0.123-0.925,1.135,0.154-0.449-0.315
			c-2.249-0.666-3.473-1.61-5.233-3.293c-3.08-2.944-6.223-5.723-9.617-8.306C428.367,371.431,424.727,377.768,428.421,380.578
			L428.421,380.578z"/>
	</g>
	<path fill="#C64832" d="M424.615,379.318l15.082,12.396c4.808,2.928,10.041-5.912,6.273-8.649l-14.767-13.031
		c-2.416-1.74-5.457-1.47-7.033,0.624l0,0C422.527,372.841,422.32,377.188,424.615,379.318z"/>
	<path fill="#FFC2B0" d="M411.63,361.845l0.725-12.42l8.112,3.72l-0.412,11.267C420.13,366.218,411.769,366,411.63,361.845z"/>
	<path fill="#FFC2B0" d="M415.202,329.775c0,0-6.997,0.042-5.801,12.549c0.831,8.699,5.967,11.264,13.444,13.933
		c4.656,1.663,9.812-1.594,9.616-5.949c0.419-6.422-0.165-12.328-2.751-17.199c-0.235-5.25-3.64-3.029-9.881-2.737L415.202,329.775z
		"/>
	<path fill="#715154" d="M412.014,354.909c0,0-8.783-2.593-8.795-14.699c-0.012-13.1,12.057-12.799,18.68-13.895
		c2.932-0.484,4.955-1.051,8.162,1.438c2.917,2.264,0.723,7.949-3.194,8.575c-1.554,0.248-0.55,4.41-0.767,5.876
		c-0.386,2.607-1.899,3.974-2.32,6.504c-0.399,2.396-3.621,6.327-5.861,6.743C413.926,356.191,412.014,354.909,412.014,354.909z"/>
	<path fill="#FFFFFF" d="M423.61,365.914c-8.927-1.776-15.657,3.58-16.44-9.451l0,0c1.41-0.75,3.075-0.276,3.826,1.032
		c1.318,2.299,4.479,3.861,8.186,3.589c1.108-0.081,2.131,0.468,2.629,1.414L423.61,365.914z"/>
	<path fill="#4C73DB" d="M411.284,458.02l-37.215-21.57c-3.49-2.016-5.419-6.029-5.419-6.029c-1.306-2.998,1.81-5.17,5.3-3.154
		l34.14,20.1c3.49,2.016,4.808,4.119,4.244,6.619C412.334,453.984,415.707,460.303,411.284,458.02z"/>
	<path fill="#4C73DB" d="M368.672,429.877l-6.479-40.524c-1.097-5.993,3.383-7.987,9.703-4.32l25.272,14.665
		c4.554,2.643,8.877,7.58,10.809,12.346l10.668,26.311c3.058,7.545-3.543,14.967-9.928,11.164L368.672,429.877z"/>
	<path fill="#283D75" d="M448.297,476.16l0.133-0.02c0.896-0.133,1.514-0.967,1.381-1.863l-6.383-43.027
		c-0.133-0.896-0.967-1.516-1.862-1.383l-0.133,0.02c-0.896,0.135-1.515,0.967-1.382,1.863l6.383,43.029
		C446.567,475.676,447.4,476.293,448.297,476.16z"/>
	<path fill="#4C73DB" d="M443.717,442.039l-25.881,15.848c-4.191,2.566-7.432,1.361-7.2-2.678l0.223-3.879
		c0.231-4.039,3.852-9.443,8.043-12.01l25.881-15.846c4.191-2.566,7.432-1.363,7.2,2.676l-0.223,3.881
		C451.527,434.068,447.908,439.473,443.717,442.039z"/>
	<g>
		<polygon opacity="0.4" fill="#A8C4E5" points="645.701,484.023 642.122,408.844 622.811,397.335 642.122,408.844 625.444,438.303 
			626.92,473.633 645.701,484.023 510.158,559.424 492.649,548.912 631.511,467.072 		"/>
		<polygon fill="#A01127" points="661.737,382.6 661.737,387.523 706.699,413.178 706.826,408.064 		"/>
		<polyline fill="#C64832" points="645.701,483.824 626.92,473.432 625.444,438.104 642.122,408.645 622.811,397.135 
			560.396,511.563 577.905,522.074 642.122,408.645 645.701,483.824 		"/>
		<polyline fill="#C64832" points="693.047,400.051 698.306,395.126 677.586,382.6 627.998,473.51 645.507,484.023 		"/>
		<polyline fill="#C64832" points="577.955,521.174 559.174,510.781 557.698,475.453 574.376,445.994 555.063,434.484 
			492.649,548.912 510.158,559.424 574.376,445.994 577.955,521.174 		"/>
		<polyline fill="#A01127" points="577.955,521.174 559.174,510.781 557.698,475.453 574.376,445.994 555.063,434.484 
			574.376,445.994 577.955,521.174 		"/>
		<polyline fill="#A01127" points="645.701,484.023 626.92,473.633 625.444,438.303 642.122,408.844 622.811,397.335 
			642.122,408.844 645.701,484.023 		"/>
		<polygon fill="#C64832" points="661.737,382.6 704.672,359.046 706.8,408.867 		"/>
	</g>
	<g>
		<path fill="#2C4482" d="M155.221,316.655c-7.091,4.096-18.623,4.076-25.759-0.043c-7.135-4.119-7.172-10.778-0.08-14.873
			c7.09-4.096,18.622-4.076,25.758,0.043C162.275,305.901,162.312,312.561,155.221,316.655z"/>
		<polygon fill="#4367C7" points="168.153,298.045 116.28,298.866 116.28,243.736 168.153,243.736 		"/>
		<path fill="#4367C7" d="M160.584,309.178c-10.122,5.899-26.55,5.937-36.688,0.083c-10.141-5.854-10.155-15.382-0.031-21.281
			c10.121-5.9,26.548-5.938,36.688-0.083C170.692,293.75,170.706,303.278,160.584,309.178z"/>
		<path fill="#2C4482" d="M168.237,258.746c-0.367-0.232-0.744-0.461-1.132-0.685c-13.823-7.98-36.165-8.018-49.9-0.084
			c-0.287,0.166-0.565,0.334-0.84,0.504v27.708c0.324,0.203,0.655,0.404,0.997,0.602c13.823,7.98,36.164,8.018,49.9,0.084
			c0.334-0.193,0.656-0.389,0.975-0.588V258.746z"/>
		<path fill="#4367C7" d="M167.179,281.522c-13.736,7.933-36.077,7.896-49.9-0.084c-13.823-7.98-13.895-20.88-0.158-28.814
			c13.736-7.933,36.077-7.896,49.9,0.084S180.915,273.589,167.179,281.522z"/>
		<rect x="106.866" y="254.681" fill="#4367C7" width="70.568" height="13.008"/>
		<path fill="#FFFFFF" d="M167.179,269.13c-13.736,7.934-36.077,7.896-49.9-0.084c-13.823-7.979-13.895-20.88-0.158-28.813
			c13.736-7.933,36.077-7.896,49.9,0.084C180.844,248.296,180.915,261.197,167.179,269.13z"/>
		<g opacity="0.66">
			<g>
				<linearGradient id="SVGID_2_" gradientUnits="userSpaceOnUse" x1="78.71" y1="194.2314" x2="205.5889" y2="194.2314">
					<stop  offset="0" style="stop-color:#DDECF8"/>
					<stop  offset="0.8835" style="stop-color:#A1CFF7"/>
				</linearGradient>
				<path fill="url(#SVGID_2_)" d="M205.589,179.69c0-32.198-28.403-58.299-63.439-58.299S78.71,147.492,78.71,179.69
					c0,17.63,8.516,33.432,21.974,44.123c7.363,8.095,10.728,18.055,12.264,25.261c1.487,6.979,6.506,12.626,13.255,14.946
					c10.928,3.756,21.475,4.217,31.531,0.43c6.384-2.404,11.063-7.958,12.428-14.641c1.378-6.735,4.607-16.439,12.187-24.771
					c0.217-0.239,0.412-0.472,0.591-0.7C196.785,213.644,205.589,197.613,205.589,179.69z"/>
			</g>
		</g>
		<path fill="#7EC0F7" d="M157.087,257.021c-8.537,4.932-22.425,4.907-31.017-0.053c-8.593-4.96-8.637-12.979-0.099-17.911
			c8.539-4.931,22.426-4.907,31.019,0.053C165.581,244.071,165.625,252.09,157.087,257.021z"/>
		<g>
			<path fill="#7EC0F7" d="M145.29,252.813c-0.91,0-1.648-0.738-1.648-1.647l-0.008-43.108c-0.189-0.03-0.378-0.062-0.567-0.095
				c-2.074-0.366-4.118-0.919-6.1-1.643v41.079c0,0.909-0.737,1.647-1.647,1.647s-1.647-0.738-1.647-1.647v-42.467
				c-3.384-1.623-6.509-3.757-9.194-6.311c-4.563-4.341-7.485-9.483-8.017-14.105c-0.518-4.494,1.339-7.99,5.092-9.594
				c3.583-1.53,6.698-1.471,9.261,0.179c5.825,3.749,6.143,14.519,6.152,14.976c0.001,0.012,0.001,0.025,0.001,0.038v12.696
				c2.063,0.833,4.29,1.488,6.673,1.909c0.073,0.013,0.146,0.026,0.219,0.038c1.021-11.595,3.528-18.476,7.642-20.996
				c2.216-1.357,4.781-1.42,7.624-0.187c5.861,2.542,8.67,7.867,7.153,13.566c-1.52,5.712-7.671,11.314-17.813,11.315
				c-0.502,0-1.014-0.013-1.536-0.042l0.01,42.752C146.938,252.074,146.199,252.812,145.29,252.813z M147.135,205.123
				c9.209,0.486,14.704-4.113,15.959-8.832c1.089-4.096-0.935-7.811-5.28-9.696c-1.826-0.792-3.328-0.8-4.592-0.026
				C151.021,187.917,148.254,192.267,147.135,205.123z M126.37,177.112c-1.046,0-2.215,0.279-3.523,0.838
				c-3.013,1.287-3.356,4.075-3.113,6.187c0.598,5.19,5.563,12.604,13.938,17.124v-11.127c-0.069-2.643-1.036-9.947-4.646-12.266
				C128.244,177.364,127.362,177.112,126.37,177.112z"/>
		</g>
		<path opacity="0.51" fill="#FFFFFF" d="M129.042,165.727c0,11.464-7.875,23.164-17.59,26.13
			c-9.716,2.967-17.592-3.921-17.592-15.385s7.876-23.163,17.592-26.131C121.167,147.374,129.042,154.262,129.042,165.727z"/>
	</g>
	<ellipse opacity="0.43" fill="#88BDEB" cx="142.302" cy="359.803" rx="21.018" ry="10.43"/>
	<g>
		<path fill="#3D62C4" d="M693.799,286.063l-25.408-14.709c-1.045-0.603-1.974-0.605-2.666-0.131l-0.004-0.004l-4.307,2.421
			c0,0,1.676,2.537,2.913,5.522v22.946c0,2.912,1.809,6.293,3.991,7.554l20.705,11.948c1.93,3.249,3.346,5.375,3.346,5.375
			l4.112-2.308v-0.007c0-0.417,1.236-1.578,1.236-3.287v-27.766C697.718,290.706,695.982,287.324,693.799,286.063z"/>
		<path fill="#4C73DB" d="M689.449,326.929l-25.477-14.71c-2.185-1.26-3.955-4.643-3.955-7.554V276.9
			c0-2.911,1.771-4.25,3.955-2.989l25.477,14.71c2.184,1.26,3.953,4.643,3.953,7.554v27.765
			C693.402,326.851,691.633,328.189,689.449,326.929z"/>
		<path opacity="0.56" fill="#ADD5F7" d="M686.098,328.383l-25.478-14.709c-2.183-1.261-3.953-4.643-3.953-7.555v-27.765
			c0-2.912,1.771-4.25,3.953-2.989l25.478,14.709c2.185,1.26,3.954,4.642,3.954,7.554v27.766
			C690.052,328.305,688.282,329.643,686.098,328.383z"/>
		<g>
			<g>
				<polygon fill="#FFFFFF" points="669.705,305.604 662.949,293.952 670.307,289.757 671.726,292.249 666.88,295.012 
					672.186,304.166 				"/>
			</g>
			<g>
				<polygon fill="#FFFFFF" points="683.076,312.725 681.656,310.233 686.434,307.51 681.057,298.234 683.537,296.797 
					690.363,308.57 				"/>
			</g>
			<g>
				
					<rect x="675.547" y="291.936" transform="matrix(0.9652 0.2614 -0.2614 0.9652 102.3754 -166.478)" fill="#FFFFFF" width="2.867" height="19.312"/>
			</g>
		</g>
	</g>
	<g>
		<path fill="#A01127" d="M633.115,289.612l-25.146-14.504c-1.03-0.595-1.991-0.598-2.674-0.129l-0.025-0.004l-4.079,2.387
			c0,0,1.822,2.501,3.042,5.446v22.627c0,2.871,1.602,6.206,3.756,7.449l20.325,11.781c1.904,3.204,3.436,5.301,3.436,5.301
			l4.188-2.276v-0.007c0-0.411,1.221-1.556,1.221-3.242v-27.38C637.159,294.19,635.268,290.855,633.115,289.612z"/>
		<path fill="#C64832" d="M628.646,329.91l-25.123-14.505c-2.153-1.243-3.898-4.578-3.898-7.449v-27.379
			c0-2.871,1.745-4.19,3.898-2.948l25.123,14.505c2.152,1.243,3.898,4.578,3.898,7.449v27.379
			C632.544,329.834,630.798,331.153,628.646,329.91z"/>
		<path opacity="0.32" fill="#A01127" d="M625.116,332.2l-25.123-14.505c-2.152-1.243-3.898-4.578-3.898-7.449v-27.379
			c0-2.871,1.746-4.19,3.898-2.948l25.123,14.505c2.154,1.243,3.898,4.578,3.898,7.449v27.379
			C629.015,332.123,627.271,333.443,625.116,332.2z"/>
		<g>
			<path fill="#FFFFFF" d="M618.719,314.7l0.44,0.254c0.977,0.563,1.23,0.311,1.23-1.154c0-1.438-0.093-2.771-0.093-4.396
				c0-2.024,0.558-2.475,1.718-2.125v-0.106c-1.16-0.99-1.718-2.084-1.718-4.108c0-1.625,0.093-2.85,0.093-4.289
				c0-1.465-0.254-2.012-1.23-2.575l-0.44-0.254v-2.078l1.462,0.844c2.044,1.179,2.972,2.621,2.972,5.499
				c0,1.891-0.231,2.743-0.231,4.421c0,0.933,0.486,2.199,1.996,3.124v2.291c-1.51-0.818-1.996-0.114-1.996,0.819
				c0,1.678,0.231,2.797,0.231,4.689c0,2.877-0.928,3.247-2.972,2.067l-1.462-0.844V314.7z"/>
		</g>
		<g>
			<path fill="#FFFFFF" d="M611.466,312.59l-1.463-0.844c-2.043-1.18-2.971-2.621-2.971-5.499c0-1.891,0.231-2.743,0.231-4.421
				c0-0.933-0.487-2.199-1.996-3.124v-2.291c1.509,0.817,1.996,0.113,1.996-0.819c0-1.678-0.231-2.798-0.231-4.689
				c0-2.877,0.928-3.247,2.971-2.067l1.463,0.844v2.078l-0.441-0.254c-0.976-0.563-1.23-0.311-1.23,1.155
				c0,1.438,0.094,2.771,0.094,4.396c0,2.025-0.558,2.475-1.719,2.125v0.106c1.161,0.99,1.719,2.084,1.719,4.109
				c0,1.625-0.094,2.85-0.094,4.289c0,1.465,0.255,2.012,1.23,2.575l0.441,0.255V312.59z"/>
		</g>
	</g>
</g>
</svg>
