<?xml version="1.0" encoding="utf-8"?>
<!-- Generator: Adobe Illustrator 22.1.0, SVG Export Plug-In . SVG Version: 6.00 Build 0)  -->
<svg version="1.1" id="Capa_1" xmlns="http://www.w3.org/2000/svg" xmlns:xlink="http://www.w3.org/1999/xlink" x="0px" y="0px"
	 viewBox="0 0 399.1 215.3" style="enable-background:new 0 0 399.1 215.3;" xml:space="preserve">
<style type="text/css">
	.st0{fill:#EC6B10;}
</style>
<path class="st0" d="M77.3,81.6c0,0-21.9-33.3-37.8-34.8c0,0-15-3.7-21.3,10.3c0,0-1.5,5.2,1,8.3c0,0,4.7,6.3,2.2,14.5
	c0,0-0.4,3-3.6,6.3c0,0-1.5,9.1,9.3,5l16.8-5.7c0,0,11.2-5,24.6-5.2L77.3,81.6z"/>
<path class="st0" d="M81.4,80.9c0,0,27.1-31.8,56.2-50.1c0,0,36.6-25.6,57.5-20.1c0,0,5,1.2-1.8,9.8L180.7,34
	c0,0-10.3,11.3-12.1,17.6c0,0-5,13.3-4.2,16.1c0,0-0.7,3.7-5.8,5.8c0,0-39.4-1-47.1,0.5c0,0-15,0.8-29.1,7.6L81.4,80.9z"/>
<path class="st0" d="M80.3,84.7c0,0,25.6-12.8,47.2-5c0,0,12.3,3.7,16.1,9c0,0,3.3,7.9-5.3,19.7c0,0-22.1,30.5-39.5,32.8
	c0,0-6.9,0-13-8c0,0-12.8-12.8-10.5-33.4C75.3,99.8,75.2,92.9,80.3,84.7"/>
<path class="st0" d="M76.3,85c0,0-43.7-7.3-56.7,24.9c0,0-5.5,18.9,11.6,29.6c0,0,4.7,3.3,10.7-1.2c0,0,17.5-9.8,28.6-35.9
	C70.4,102.4,76.9,89.4,76.3,85"/>
<path class="st0" d="M238.3,162c0,0.9-0.5,1.4-1.4,1.4c-0.7,0-1.7-0.1-3-0.2c-1.3-0.1-2.3-0.2-3-0.2c-0.7,0-1.7,0.1-3,0.2
	c-1.3,0.1-2.4,0.2-3,0.2c-0.9,0-1.4-0.6-1.4-1.9c0-4.7,0.1-11.9,0.4-21.3c0.3-9.5,0.4-16.6,0.4-21.3c0-0.7-0.1-1.1-0.4-1.1
	c-0.3,0-0.6,0.2-0.8,0.6c-1.9,4.1-6.3,14.9-13.2,32.6c-1.1,3.4-2.8,7.6-4.9,12.7c-0.3,0.5-1.6,0.7-3.9,0.7c-3.4,0-5.3-0.3-5.7-1
	c-1.2-3-3-7.3-5.3-12.7c-3-7.4-7.7-18.4-14-33c-0.1-0.3-0.3-0.5-0.7-0.8c-0.3,0.2-0.4,0.6-0.4,1.2c0,4.8,0.1,12,0.2,21.7
	c0.2,9.6,0.3,16.9,0.3,21.7c0,1.2-0.5,1.9-1.4,1.9c-0.6,0-1.6-0.1-2.8-0.2c-1.3-0.1-2.2-0.2-2.8-0.2c-0.7,0-1.6,0.1-2.9,0.2
	c-1.3,0.1-2.3,0.2-2.9,0.2c-0.9,0-1.4-0.3-1.4-1.1c0-4.2,0.2-10.4,0.6-18.6c0.4-8.3,0.6-14.5,0.6-18.6c0-4.3-0.2-10.7-0.6-19.3
	c-0.4-8.6-0.6-15.1-0.6-19.3c0-0.7,0.4-1.1,1.3-1.2c5-0.7,8.7-1,11.2-1c0.4,0,0.9,0.8,1.5,2.3c8.9,19.9,16.4,37.6,22.8,53.2
	c1.5,3.6,2.4,5.5,2.7,5.5c0.4,0,1.2-1.5,2.4-4.5c5-12.1,11.9-30.1,20.7-53.9c0.6-1.5,1.1-2.2,1.8-2.2c1.2,0,3.1,0.1,5.6,0.2
	c2.5,0.2,4.4,0.2,5.6,0.2c0.9,0,1.4,0.4,1.4,1.3c0,4.3-0.1,10.7-0.4,19.3c-0.3,8.6-0.4,15.1-0.4,19.3c0,4.1,0.1,10.3,0.5,18.5
	C238.1,151.8,238.3,158,238.3,162"/>
<path class="st0" d="M310.3,150.5c0,0.5-0.4,1.1-1,1.9c-7.1,8.4-15.9,12.7-26.5,12.7c-10.9,0-19.7-4.1-26.3-12.3
	c-6.1-7.6-9.2-17.1-9.2-28.6c0-11.4,3.1-21,9.4-28.7c6.6-8.3,15.4-12.4,26.3-12.4c11.1,0,19.6,3.8,25.7,11.5c0.6,0.8,0.9,1.4,0.9,2
	c0,0.6-1,2.5-2.9,5.6c-1.9,3.1-3.1,4.7-3.5,4.7c-0.5,0-1.6-0.9-3.3-2.7c-2.2-2.2-4.2-3.9-6.1-5c-3.1-1.8-6.6-2.8-10.4-2.8
	c-7.2,0-12.9,2.8-16.9,8.5c-3.6,5-5.4,11.4-5.4,19c0,7.7,1.8,14.1,5.3,19.2c4,5.8,9.6,8.7,16.8,8.7c3.6,0,7-0.9,10.3-2.8
	c2.2-1.2,4.4-2.9,6.7-5.1c1.9-1.8,2.9-2.7,3.1-2.7c0.2,0,1.4,1.5,3.6,4.5C309.2,148.6,310.3,150.2,310.3,150.5"/>
<path class="st0" d="M378.3,144.4c0,0.9-0.5,1.3-1.5,1.3c-1.6-0.1-4-0.1-7-0.1c-1.1,0-1.7,0.1-1.9,0.2c-0.4,0.2-0.6,0.9-0.6,2
	c0,1.6,0.1,4.1,0.4,7.4c0.3,3.3,0.4,5.8,0.4,7.4c0,1-0.6,1.6-1.7,1.8c-1.6,0.3-4.2,0.4-8,0.4c-6.4,0-9.6-0.5-9.6-1.5
	c0-1.4,0.3-3.9,0.8-7.7c0.5-3.8,0.8-6.6,0.8-8.3c0-1.1-0.4-1.6-1.2-1.6c-3.7,0-9.2,0.1-16.6,0.3c-7.4,0.2-12.9,0.4-16.6,0.4
	c-2.7,0-4.1-2.9-4.1-8.6c0-4.5,0.4-7.3,1.3-8.4c3.2-3.7,7.7-9.3,13.6-16.9c7.4-10.5,13.1-19,17.1-25.3c1.3-2.1,3.2-5.1,5.9-9.2
	c0.7-1,1.4-1.5,2.1-1.5c3.2,0,8,1.2,14.5,3.6c1.4,0.5,2.1,1.4,2.1,2.6c0,2.4-0.2,6-0.5,10.7c-0.3,4.8-0.5,8.4-0.5,10.7
	c0,2.1,0,5.8-0.1,11.1c-0.1,4.7-0.1,8.4-0.1,11.1v5.7c1.2,0,2.9-0.1,5.2-0.3c2.3-0.2,4-0.3,5.2-0.3c0.4,0,0.5,0.4,0.5,1.2
	c0,1.3,0,3.3,0.1,5.9C378.3,141.1,378.3,143,378.3,144.4 M352.8,94.5c0-0.4-0.1-0.7-0.4-0.8c-0.4,0-1,0.8-1.8,2.4
	c-0.5,1-0.9,2-1.4,3c-7.9,10.8-15.8,21.7-23.7,32.8c0.2,0.5,2.1,0.8,5.5,0.8h2.8c7.6,0,13.3-0.1,17.1-0.4c0-5.7,0.1-11.5,0.2-17.2
	c0.2-7.3,0.6-12.9,1.2-16.8C352.6,96,352.8,94.7,352.8,94.5"/>
<path class="st0" d="M160.2,178.1c-0.1,0.2-0.3,0.6-0.6,1c-0.1,0.2-0.2,0.5-0.4,0.9c0,0.1-0.1,0.1-0.2,0.1c0,0-0.3-0.1-1-0.4
	c-0.7-0.2-1.2-0.4-1.7-0.4c-1.3,0-1.9,0.6-1.9,1.7c0,0.6,0.5,1.2,1.3,1.6c1.5,0.8,2.3,1.2,2.5,1.3c0.9,0.7,1.3,1.7,1.3,2.9
	c0,1.6-0.6,2.8-1.8,3.7c-1.1,0.8-2.4,1.2-4.1,1.2c-0.7,0-1.2-0.1-1.2-0.3c0-0.3-0.1-0.6-0.2-1.2c-0.1-0.2-0.1-0.5-0.3-0.9
	c0-0.1,0-0.1,0-0.2c0-0.1,0.1-0.1,0.2-0.1c0.2,0,0.4,0,0.8,0.1c0.3,0,0.6,0.1,0.8,0.1c2.1,0,3.2-0.7,3.2-2.1c0-0.7-0.4-1.3-1.3-1.8
	c-1.6-0.9-2.4-1.4-2.4-1.4c-0.9-0.7-1.3-1.7-1.3-2.8c0-1.3,0.4-2.3,1.3-3.1c0.8-0.7,1.9-1.1,3.2-1.1c0.5,0,1.2,0.1,1.9,0.3
	c0.8,0.2,1.4,0.4,1.8,0.7C160.1,178,160.1,178.1,160.2,178.1"/>
<path class="st0" d="M175.5,184.3c0,2-0.7,3.8-2,5.3c-1.4,1.5-3.1,2.3-5.1,2.3c-2,0-3.7-0.8-5.1-2.3c-1.3-1.5-2-3.2-2-5.3
	c0-2,0.7-3.8,2-5.3c1.4-1.5,3.1-2.3,5.1-2.3c2,0,3.7,0.8,5.1,2.3C174.8,180.5,175.5,182.3,175.5,184.3 M173,184.3
	c0-1.3-0.4-2.5-1.3-3.5c-0.9-1.1-2-1.6-3.3-1.6c-1.3,0-2.4,0.5-3.3,1.6c-0.8,1-1.2,2.2-1.2,3.5c0,1.3,0.4,2.5,1.2,3.5
	c0.9,1.1,2,1.6,3.3,1.6c1.3,0,2.4-0.5,3.3-1.6C172.6,186.9,173,185.7,173,184.3"/>
<path class="st0" d="M187.1,179.2c0,0.1-0.1,0.2-0.2,0.2c-0.5,0-1.4,0-2.6-0.1c-1.2-0.1-2-0.1-2.7-0.1l-0.8,0c-0.5,0-0.7,0-0.8,0
	c-0.1,0.1-0.2,0.3-0.2,0.6v2.5c0,0.5,0.1,0.7,0.3,0.7c0.7,0,1.7,0,3-0.1c1.4-0.1,2.4-0.1,3-0.1c0.1,0,0.2,0.1,0.2,0.2
	c0,0.1,0,0.3,0,0.5c0,0.2,0,0.4,0,0.5c0,0.1,0,0.3,0,0.6c0,0.2,0,0.4,0,0.6c0,0.1-0.1,0.1-0.2,0.1c-0.5,0-1.2,0-2.2,0
	c-1,0-1.7,0-2.2,0c-0.9,0-1.4,0-1.5,0c-0.3,0-0.5,0.2-0.5,0.4c0,0.6,0,1.6,0,2.8c0,1.2,0.1,2.2,0.1,2.8c0,0.2-0.1,0.3-0.3,0.3
	c-0.1,0-0.3,0-0.6,0c-0.3,0-0.5,0-0.6,0c-0.1,0-0.3,0-0.5,0c-0.2,0-0.4,0-0.5,0c-0.2,0-0.3-0.1-0.3-0.2c0-0.8,0-1.9,0.1-3.5
	c0.1-1.5,0.1-2.7,0.1-3.5c0-0.7-0.1-3-0.2-6.9v-0.1c0-0.1,0.1-0.2,0.3-0.2c0,0,0.5,0,1.3,0c1.1,0,2.1,0,3,0c1.3,0,2.9-0.1,4.8-0.2
	c0.3,0,0.4,0.1,0.4,0.3c0,0.2,0,0.5,0,0.8C187.1,178.7,187.1,179,187.1,179.2"/>
<path class="st0" d="M198.1,179c0,0.2-0.1,0.3-0.2,0.3c-0.2,0-1.4,0-3.7-0.1c-0.1,2.1-0.1,3.8-0.1,5.1c0,0.8,0,2,0.1,3.6
	c0.1,1.6,0.1,2.8,0.1,3.6c0,0.1-0.1,0.2-0.3,0.2c-0.1,0-0.3,0-0.6,0c-0.3,0-0.5,0-0.6,0c-0.1,0-0.3,0-0.6,0c-0.2,0-0.4,0-0.6,0
	c-0.2,0-0.3-0.1-0.3-0.3c0-0.8,0-2,0.1-3.5c0.1-1.6,0.1-2.8,0.1-3.6c0-1.2,0-2.9-0.1-5.1c-1.8,0.1-3.1,0.2-3.9,0.2
	c-0.1,0-0.1,0-0.1-0.1c0-0.1,0-0.3,0.1-0.5c0.1-0.3,0.1-0.5,0.1-0.5c0-0.2,0.1-0.6,0.1-1c0-0.1,0.1-0.1,0.2-0.1l0.1,0
	c2.4,0.1,4.1,0.2,4.8,0.2c0.7,0,1.8,0,3.4-0.2c1.1-0.1,1.5-0.1,1.3-0.1c0.2,0,0.3,0.1,0.3,0.2c0-0.1,0,0.3,0,1c0,0.1,0,0.2,0,0.4
	C198.1,178.8,198.1,178.9,198.1,179"/>
<path class="st0" d="M216.6,182.4c0,0.1-0.7,1.5-2.1,4.4c-0.5,1-1.2,2.5-2.1,4.5c-0.1,0.2-0.2,0.3-0.3,0.3h-1.9
	c-0.1,0-0.2-0.1-0.3-0.3c-0.5-1.2-1.2-3.1-2.2-5.7c-0.5,1.3-1.2,3.2-2.2,5.7c-0.1,0.2-0.2,0.3-0.3,0.3h-1.9c-0.1,0-0.2-0.1-0.3-0.3
	c-0.5-1-1.2-2.5-2.1-4.5c-1.3-2.8-2-4.2-2-4.4c0-0.6,0-1.4,0-2.6c0-1.1,0-2,0-2.6c0-0.1,0.1-0.2,0.3-0.2c0.1,0,0.3,0,0.6,0
	c0.3,0,0.4,0,0.6,0c0.1,0,0.3,0,0.5,0c0.2,0,0.4,0,0.5,0c0.2,0,0.2,0.1,0.2,0.2c0,0.6,0,1.4-0.1,2.5c-0.1,1.1-0.1,2-0.1,2.5
	c0,0.3,0.7,2,2.1,4.8c0.5,0.9,0.7,1.4,0.7,1.4c0,0,0,0,0.1-0.1c0.1-0.2,0.2-0.6,0.5-1.3c0.5-1.3,1-2.9,1.5-4.6c0-0.2,0-0.7,0-1.6
	c0-0.4,0-1,0-1.8c0-0.8,0-1.4,0-1.8c0-0.1,0.1-0.2,0.2-0.2c0.1,0,0.3,0,0.6,0c0.3,0,0.5,0,0.6,0c0.1,0,0.3,0,0.5,0
	c0.2,0,0.4,0,0.5,0c0.2,0,0.2,0.1,0.2,0.2c0,0.4,0,1.1,0,2c0,0.9,0,1.5,0,2c0,0.7,0,1.1,0,1.3c0,0.3,0.5,1.9,1.6,4.5
	c0.1,0.3,0.3,0.7,0.5,1.3c0,0,0,0.1,0,0.1c0,0,0.3-0.5,0.7-1.4c1.4-2.8,2-4.4,2-4.7c0-0.6,0-1.4-0.1-2.5c-0.1-1.1-0.1-2-0.1-2.5
	c0-0.1,0-0.2,0.1-0.2c0.1,0,0.3,0,0.6,0c0.3,0,0.5,0,0.6,0c0.1,0,0.3,0,0.6,0c0.2,0,0.4,0,0.6,0c0.1,0,0.2,0,0.3,0.1v0.3
	c0,0.5,0,1.4,0,2.4C216.6,181,216.6,181.8,216.6,182.4"/>
<path class="st0" d="M231.1,191.5c0,0.1-0.1,0.1-0.2,0.1c-0.1,0-0.3,0-0.6,0c-0.2,0-0.4,0-0.6,0c-0.1,0-0.3,0-0.6,0
	c-0.3,0-0.5,0-0.6,0c-0.2,0-0.4-0.5-0.7-1.6c-0.3-1.1-0.6-1.6-0.9-1.6c-0.2,0-0.9,0-2,0h-1.6c-1.1,0-1.8,0-1.9,0
	c-0.2,0-0.5,0.6-0.8,1.6c-0.3,1-0.5,1.6-0.6,1.6h-2.3c-0.1,0-0.2,0-0.2-0.2c0-0.1,0-0.2,0.1-0.5l2.5-6.9c0.2-0.6,0.9-2.2,2-4.8
	c0.2-0.4,0.5-1.1,0.8-2c0.1-0.3,0.2-0.4,0.3-0.4c0.1,0,0.3,0,0.6,0c0.3,0,0.5,0.1,0.6,0.1c0.1,0,0.3,0,0.6-0.1
	c0.3,0,0.4-0.1,0.6-0.1c0.1,0,0.1,0.1,0.2,0.4c0.2,0.4,1,2.5,2.5,6.2C230.1,188.7,231.1,191.4,231.1,191.5 M226.3,185.8
	c0-0.2-0.3-1.1-0.9-2.7c-0.6-1.5-1-2.6-1.3-3c-1.4,3.6-2.2,5.6-2.2,5.7c0,0.2,0.3,0.4,0.8,0.4c0,0,0.4,0,1,0h1.1
	C225.8,186.2,226.3,186,226.3,185.8"/>
<path class="st0" d="M243.5,191.5c0,0.1,0,0.1-0.2,0.1c-0.1,0-0.3,0-0.6,0c-0.3,0-0.5,0-0.6,0c-0.1,0-0.4,0-0.6,0
	c-0.3,0-0.5,0-0.7,0c-0.2,0-0.3-0.1-0.4-0.3c-0.2-0.5-0.8-1.9-1.9-4.4c-0.1-0.2-0.4-0.4-0.8-0.5c-0.1,0-0.4,0-0.9,0
	c-0.9,0-1.5,0-1.7,0c-0.1,0-0.2,0.2-0.2,0.5c0,0.5,0,1.2,0.1,2.2c0,1,0.1,1.7,0.1,2.2c0,0.2-0.1,0.2-0.2,0.2c-0.1,0-0.4,0-0.6,0
	c-0.3,0-0.5,0-0.6,0c-0.1,0-0.3,0-0.5,0c-0.2,0-0.4,0-0.5,0c-0.2,0-0.2-0.1-0.2-0.2c0-0.8,0-1.9,0.1-3.5c0.1-1.5,0.1-2.7,0.1-3.5
	c0-2.2-0.1-4.5-0.2-7l0-0.2c0-0.1,0.1-0.2,0.4-0.2c0.6,0,1.5,0,2.7,0c1.2,0,2.1,0,2.6,0c1.5,0,2.8,0.4,3.7,1.1c1,0.8,1.5,2,1.5,3.4
	c0,1-0.1,1.8-0.4,2.4c-0.3,0.6-0.8,1.2-1.6,1.8c-0.1,0.1-0.2,0.2-0.2,0.3c0,0.1,0.4,1,1.2,2.7C243.1,190.5,243.5,191.4,243.5,191.5
	 M240.6,182.1c0-1.2-0.4-2.1-1.1-2.5c-0.5-0.3-1.5-0.5-2.9-0.5c-1.1,0-1.7,0.1-1.7,0.3c0,0.4-0.1,1.4-0.1,3v2c0,0,0.1,0,0.1,0
	c0.1,0,0.3,0,0.6,0.1c0.7,0,1.4,0.1,2.1,0.1C239.7,184.5,240.6,183.7,240.6,182.1"/>
<path class="st0" d="M254.7,189.5c0,0.1,0,0.3-0.1,0.5c-0.1,0.3-0.1,0.4-0.1,0.5c0,0.2-0.1,0.6-0.1,1.1c0,0.1-0.1,0.2-0.3,0.2
	c-0.1,0-0.2,0-0.4,0c-0.9-0.1-2.2-0.2-4-0.2c-0.5,0-1.3,0-2.3,0c-1,0-1.8,0-2.3,0c-0.2,0-0.3-0.1-0.3-0.3c0-0.8,0-1.9,0.1-3.5
	c0.1-1.6,0.1-2.7,0.1-3.5c0-0.8,0-2.3-0.1-4.4c0-0.5,0-1.4-0.1-2.5l0-0.2c0-0.2,0.1-0.2,0.3-0.2c0.5,0,1.2,0,2.2,0c1,0,1.7,0,2.2,0
	c0.5,0,1.2,0,2.1,0c0.9,0,1.6,0,2.1,0c0.3,0,0.5,0.1,0.5,0.3c0.1,0.9,0.2,1.5,0.2,1.7c0,0.2-0.1,0.2-0.2,0.2c-0.6,0-1.5,0-2.7-0.1
	c-1.2-0.1-2.1-0.1-2.7-0.1c-0.6,0-0.9,0.1-1.1,0.2c-0.2,0.2-0.2,0.5-0.2,1.1v1.5c0,0.4,0,0.7,0,0.7c0.1,0.2,0.3,0.3,0.5,0.3
	c0.1,0,0.2,0,0.3,0h0.4c1.4,0,2.6,0,3.6-0.1c0.4,0,0.9,0,1.5-0.1c0.1,0,0.2,0,0.2,0.2c0,0.2,0,0.6-0.1,1c-0.1,0.5-0.1,0.8-0.1,1
	c0,0.1-0.1,0.2-0.3,0.2c-0.1,0-0.4,0-0.9-0.1c-0.4,0-1.2-0.1-2.6-0.1c-1.1,0-1.9,0-2.2,0c-0.3,0-0.4,0.2-0.5,0.4v0.8v1.5
	c0,0.7,0.1,1.2,0.3,1.3c0.2,0.2,0.6,0.2,1.3,0.2l1.1,0c0.5,0,1.8-0.1,4.1-0.2l0.2,0C254.6,189.2,254.7,189.3,254.7,189.5"/>
<path class="st0" d="M280.5,178.1c-0.1,0.2-0.3,0.6-0.6,1c-0.1,0.2-0.2,0.5-0.4,0.9c0,0.1-0.1,0.1-0.2,0.1c0,0-0.3-0.1-1-0.4
	c-0.7-0.2-1.2-0.4-1.7-0.4c-1.3,0-1.9,0.6-1.9,1.7c0,0.6,0.5,1.2,1.3,1.6c1.5,0.8,2.3,1.2,2.5,1.3c0.9,0.7,1.3,1.7,1.3,2.9
	c0,1.6-0.6,2.8-1.8,3.7c-1.1,0.8-2.4,1.2-4.1,1.2c-0.7,0-1.2-0.1-1.2-0.3c0-0.3-0.1-0.6-0.2-1.2c-0.1-0.2-0.1-0.5-0.3-0.9
	c0-0.1,0-0.1,0-0.2c0-0.1,0.1-0.1,0.2-0.1c0.2,0,0.4,0,0.8,0.1c0.3,0,0.6,0.1,0.8,0.1c2.1,0,3.2-0.7,3.2-2.1c0-0.7-0.4-1.3-1.3-1.8
	c-1.6-0.9-2.4-1.4-2.4-1.4c-0.9-0.7-1.3-1.7-1.3-2.8c0-1.3,0.4-2.3,1.3-3.1c0.8-0.7,1.9-1.1,3.2-1.1c0.5,0,1.2,0.1,1.9,0.3
	c0.8,0.2,1.4,0.4,1.8,0.7C280.5,178,280.5,178.1,280.5,178.1"/>
<path class="st0" d="M295.8,184.3c0,2-0.7,3.8-2,5.3c-1.4,1.5-3.1,2.3-5.1,2.3c-2,0-3.7-0.8-5.1-2.3c-1.3-1.5-2-3.2-2-5.3
	c0-2,0.7-3.8,2-5.3c1.4-1.5,3.1-2.3,5.1-2.3c2,0,3.7,0.8,5.1,2.3C295.2,180.5,295.8,182.3,295.8,184.3 M293.3,184.3
	c0-1.3-0.4-2.5-1.3-3.5c-0.9-1.1-2-1.6-3.3-1.6c-1.3,0-2.4,0.5-3.3,1.6c-0.8,1-1.2,2.2-1.2,3.5c0,1.3,0.4,2.5,1.2,3.5
	c0.9,1.1,2,1.6,3.3,1.6c1.3,0,2.4-0.5,3.3-1.6C292.9,186.9,293.3,185.7,293.3,184.3"/>
<path class="st0" d="M307.3,189.4c0,1,0,1.7-0.2,2.1c0,0.2-0.2,0.3-0.4,0.3c-0.5,0-1.3,0-2.3-0.1c-1-0.1-1.8-0.1-2.3-0.1
	c-0.5,0-1.2,0-2.2,0c-1,0-1.7,0-2.2,0c-0.2,0-0.3-0.1-0.3-0.3c0-0.8,0-1.9,0.1-3.4c0.1-1.5,0.1-2.7,0.1-3.4c0-0.8,0-2-0.1-3.6
	c-0.1-1.6-0.1-2.8-0.1-3.6c0-0.2,0.1-0.2,0.3-0.2c0.1,0,0.3,0,0.6,0c0.3,0,0.4,0,0.6,0c0.1,0,0.3,0,0.6,0c0.3,0,0.5,0,0.6,0
	c0.2,0,0.2,0.1,0.2,0.2c0,0.7,0,1.8-0.1,3.3c-0.1,1.5-0.1,2.6-0.1,3.3v1.6v1.6c0,1.5,0.1,2.3,0.2,2.3c2.5,0,4.5-0.1,5.8-0.2
	c0.1,0,0.2,0,0.5-0.1c0.2,0,0.4-0.1,0.5-0.1C307.2,189.2,307.3,189.2,307.3,189.4"/>
<path class="st0" d="M320.4,177.3c0,0.8,0,2-0.1,3.6c-0.1,1.6-0.1,2.8-0.1,3.6v1.2c0,0.5,0,0.9,0,1.2c0,1.4-0.1,2.4-0.4,3
	c-0.4,0.9-1.2,1.4-2.4,1.7c-0.7,0.2-1.8,0.3-3.1,0.3c-2.4,0-4-0.4-4.8-1.2c-0.6-0.6-0.9-1.9-0.9-3.7v-1.2c0-0.5,0-1,0-1.3
	c0-0.8,0-2.3-0.1-4.5c0-0.6,0-1.4-0.1-2.5c0-0.1,0-0.1,0-0.2c0-0.1,0.1-0.2,0.3-0.2c0.3,0,0.7,0,1.2,0c0.6,0,0.9,0,1.1,0
	c0.2,0,0.2,0.1,0.2,0.2c0,1.1,0,2.6-0.1,4.7c0,2.1-0.1,3.7-0.1,4.7c0,1.2,0.3,2,0.8,2.4c0.5,0.4,1.3,0.6,2.5,0.6
	c1.1,0,1.9-0.1,2.4-0.5c0.6-0.4,0.9-1.1,0.9-2.1c0-1.1,0-2.7-0.1-4.9c0-2.2,0-3.8,0-4.9c0-0.1,0.1-0.2,0.3-0.2c0.1,0,0.4,0,0.6,0
	c0.3,0,0.5,0,0.5,0c0.1,0,0.3,0,0.6,0c0.3,0,0.5,0,0.6,0C320.3,177.1,320.4,177.1,320.4,177.3"/>
<path class="st0" d="M332.1,179c0,0.2-0.1,0.3-0.2,0.3c-0.2,0-1.4,0-3.7-0.1c-0.1,2.1-0.1,3.8-0.1,5.1c0,0.8,0,2,0.1,3.6
	c0.1,1.6,0.1,2.8,0.1,3.6c0,0.1-0.1,0.2-0.3,0.2c-0.1,0-0.3,0-0.6,0c-0.3,0-0.5,0-0.6,0c-0.1,0-0.3,0-0.6,0c-0.3,0-0.5,0-0.6,0
	c-0.2,0-0.2-0.1-0.2-0.3c0-0.8,0-2,0.1-3.5c0.1-1.6,0.1-2.8,0.1-3.6c0-1.2,0-2.9-0.1-5.1c-1.8,0.1-3.1,0.2-3.9,0.2
	c-0.1,0-0.1,0-0.1-0.1c0-0.1,0-0.3,0.1-0.5c0.1-0.3,0.1-0.5,0.1-0.5c0-0.2,0-0.6,0.1-1c0-0.1,0.1-0.1,0.2-0.1l0.1,0
	c2.4,0.1,4.1,0.2,4.8,0.2c0.7,0,1.8,0,3.4-0.2c1.1-0.1,1.5-0.1,1.3-0.1c0.2,0,0.3,0.1,0.3,0.2c0-0.1,0,0.3,0,1c0,0.1,0,0.2,0,0.4
	C332.1,178.8,332.1,178.9,332.1,179"/>
<path class="st0" d="M336.2,191.4c0,0.2-0.1,0.2-0.3,0.2c-0.1,0-0.3,0-0.6,0c-0.2,0-0.4,0-0.6,0c-0.1,0-0.3,0-0.6,0
	c-0.3,0-0.5,0-0.6,0c-0.2,0-0.3-0.1-0.3-0.2c0-0.8,0-2,0.1-3.6c0.1-1.6,0.1-2.8,0.1-3.6c0-0.8,0-1.9-0.1-3.5
	c-0.1-1.5-0.1-2.7-0.1-3.5c0-0.2,0.1-0.3,0.2-0.3c0.1,0,0.3,0,0.6,0c0.3,0,0.5,0,0.6,0c0.1,0,0.3,0,0.6,0c0.2,0,0.4,0,0.6,0
	c0.2,0,0.3,0.1,0.3,0.2c0,0.8,0,1.9-0.1,3.5c0,1.5-0.1,2.7-0.1,3.5c0,0.8,0,2,0.1,3.6C336.2,189.4,336.2,190.6,336.2,191.4"/>
<path class="st0" d="M352.1,184.3c0,2.1-0.7,3.8-2,5.3c-1.4,1.5-3.1,2.3-5.1,2.3c-2,0-3.7-0.8-5.1-2.3c-1.3-1.5-2-3.2-2-5.3
	c0-2,0.7-3.8,2-5.3c1.4-1.5,3.1-2.3,5.1-2.3c2,0,3.7,0.8,5.1,2.3C351.4,180.5,352.1,182.3,352.1,184.3 M349.6,184.3
	c0-1.3-0.4-2.5-1.3-3.5c-0.9-1.1-2-1.6-3.3-1.6c-1.3,0-2.4,0.5-3.3,1.6c-0.8,1-1.3,2.2-1.3,3.5c0,1.3,0.4,2.5,1.3,3.5
	c0.9,1.1,2,1.6,3.3,1.6c1.3,0,2.4-0.5,3.3-1.6C349.2,186.9,349.6,185.7,349.6,184.3"/>
<path class="st0" d="M366.8,177.3c0,0.8,0,2-0.1,3.6c-0.1,1.6-0.1,2.8-0.1,3.6c0,0.8,0,1.9,0,3.4c0,1.5,0,2.6,0,3.4
	c0,0.2-0.1,0.3-0.2,0.3c-0.1,0-0.3,0-0.5,0c-0.2,0-0.4,0-0.5,0c-0.1,0-0.3,0-0.5,0c-0.2,0-0.4,0-0.5,0c-0.1,0-0.3-0.1-0.5-0.3
	c-1.5-2-3.8-5-6.8-9c-0.5-0.6-0.7-1-0.8-1c-0.1,0-0.1,0.1-0.1,0.4c0,1.1,0,2.7,0,4.8c0,2.1,0,3.7,0,4.8c0,0.2-0.1,0.3-0.2,0.3
	c-0.1,0-0.3,0-0.5,0c-0.2,0-0.4,0-0.5,0c-0.1,0-0.3,0-0.5,0c-0.2,0-0.4,0-0.6,0c-0.2,0-0.3-0.1-0.3-0.2c0-0.8,0-1.9,0.1-3.4
	c0.1-1.5,0.1-2.7,0.1-3.4c0-0.8,0-2.3-0.1-4.5c0-0.6,0-1.4-0.1-2.5l0-0.1c0-0.1,0.1-0.2,0.2-0.2c0.4,0,0.8,0,1.1,0
	c0.1,0,0.3,0,0.6-0.1c0.2,0,0.4-0.1,0.5-0.1c0,0,0.2,0.1,0.3,0.3c1.6,2.2,4,5.4,7.3,9.7c0.1,0.2,0.3,0.3,0.4,0.5c0-0.3,0.1-1,0.1-2
	c0-0.9,0-2.2-0.1-4c-0.1-1.8-0.1-3.1-0.1-4c0-0.2,0.1-0.3,0.2-0.3c0.1,0,0.3,0,0.6,0c0.2,0,0.5,0,0.6,0c0.1,0,0.3,0,0.6,0
	c0.3,0,0.5,0,0.6,0C366.8,177.1,366.8,177.1,366.8,177.3"/>
<path class="st0" d="M377.3,178.1c-0.1,0.2-0.3,0.6-0.6,1c-0.1,0.2-0.2,0.5-0.4,0.9c0,0.1-0.1,0.1-0.2,0.1c0,0-0.3-0.1-1-0.4
	c-0.7-0.2-1.2-0.4-1.7-0.4c-1.3,0-1.9,0.6-1.9,1.7c0,0.6,0.5,1.2,1.3,1.6c1.5,0.8,2.3,1.2,2.5,1.3c0.9,0.7,1.3,1.7,1.3,2.9
	c0,1.6-0.6,2.8-1.8,3.7c-1.1,0.8-2.4,1.2-4.1,1.2c-0.7,0-1.2-0.1-1.2-0.3c0-0.3-0.1-0.6-0.2-1.2c-0.1-0.2-0.1-0.5-0.3-0.9
	c0-0.1,0-0.1,0-0.2c0-0.1,0.1-0.1,0.2-0.1c0.2,0,0.4,0,0.8,0.1c0.3,0,0.6,0.1,0.8,0.1c2.1,0,3.2-0.7,3.2-2.1c0-0.7-0.4-1.3-1.3-1.8
	c-1.6-0.9-2.4-1.4-2.4-1.4c-0.9-0.7-1.3-1.7-1.3-2.8c0-1.3,0.4-2.3,1.3-3.1c0.8-0.7,1.9-1.1,3.2-1.1c0.5,0,1.2,0.1,1.9,0.3
	c0.8,0.2,1.4,0.4,1.8,0.7C377.3,178,377.3,178.1,377.3,178.1"/>
<rect x="260.2" y="176" class="st0" width="5.3" height="16.3"/>
</svg>
