<?xml version="1.0" encoding="utf-8"?>
<!-- Generator: Adobe Illustrator 16.0.0, SVG Export Plug-In . SVG Version: 6.00 Build 0)  -->
<!DOCTYPE svg PUBLIC "-//W3C//DTD SVG 1.1//EN" "http://www.w3.org/Graphics/SVG/1.1/DTD/svg11.dtd">
<svg version="1.1" id="Capa_1" xmlns="http://www.w3.org/2000/svg" xmlns:xlink="http://www.w3.org/1999/xlink" x="0px" y="0px"
	 width="559.473px" height="440.978px" viewBox="0 0 559.473 440.978" enable-background="new 0 0 559.473 440.978"
	 xml:space="preserve">
<path fill="none" stroke="#ADD5F7" stroke-width="1.0424" stroke-linecap="round" stroke-linejoin="round" stroke-miterlimit="10" d="
	M37.66,286.187l272.63-157.402c6.248-3.607,15.786-4.002,21.197-0.878l205.337,118.551c5.41,3.124,4.726,8.631-1.522,12.238
	L262.673,416.098c-6.248,3.607-15.787,4.002-21.197,0.879L36.139,298.425C30.728,295.301,31.413,289.793,37.66,286.187z"/>
<path fill="#02B1B9" d="M536.823,229.184L331.487,110.633c-0.98-0.566-2.099-1.013-3.306-1.35l-12.435-7.179
	c-5.411-3.124-14.95-2.729-21.198,0.878L21.92,260.384c-6.248,3.607-6.933,9.115-1.522,12.238l205.337,118.552
	c0.979,0.565,2.099,1.013,3.306,1.35l12.436,7.179c5.41,3.124,14.949,2.729,21.197-0.878l272.629-157.402
	C541.55,237.815,542.234,232.308,536.823,229.184z"/>
<path opacity="0.43" fill="#88BDEB" d="M329.229,286.241l66.498-39.357l-4.468-1.056l-93.252-54.872l-162.656,93.906l50.352,29.805
	c-2.336,0.73-4.536,1.655-6.51,2.795c-11.048,6.379-10.992,16.753,0.126,23.172c11.117,6.419,29.087,6.451,40.135,0.072
	c1.797-1.037,3.294-2.181,4.504-3.396l9.491,5.618l52.61-31.138c5.357,7.712,20.386,13.268,38.101,13.268
	c22.204,0,40.205-8.726,40.205-19.488C364.364,295.639,349.038,287.45,329.229,286.241z"/>
<path fill="#4265C2" d="M137.645,287.125l-0.439-0.057c-1.317-0.17-2.248-1.375-2.079-2.692l9.452-73.55
	c0.169-1.316,1.374-2.248,2.691-2.078l0.44,0.057c1.317,0.169,2.248,1.374,2.078,2.691l-9.451,73.55
	C140.167,286.364,138.962,287.294,137.645,287.125z"/>
<path fill="#4265C2" d="M233.307,344.075L233.307,344.075c1.432-0.123,2.492-1.383,2.368-2.814l-10.219-118.654
	c-0.124-1.432-1.384-2.492-2.815-2.369l0,0c-1.432,0.123-2.492,1.384-2.368,2.814l10.219,118.655
	C230.615,343.138,231.875,344.199,233.307,344.075z"/>
<polygon fill="#2C4482" points="225.437,282.156 230.386,278.77 228.972,264.517 223.7,265.34 "/>
<path fill="#2C4482" d="M394.297,248.131l0.625-0.107c1-0.172,1.672-1.123,1.5-2.123l-13.149-76.36c-0.172-1-1.123-1.672-2.123-1.5
	l-0.625,0.107c-1.001,0.172-1.673,1.124-1.5,2.124l13.148,76.359C392.345,247.632,393.296,248.304,394.297,248.131z"/>
<g>
	<rect x="380.825" y="160.969" fill="#D7E8F7" width="13.795" height="8.012"/>
	<rect x="130.005" y="212.196" fill="#D7E8F7" width="13.795" height="8.012"/>
	<path fill="#D7E8F7" d="M222.479,270.061l170.381-98.37c2.672-1.542,2.336-4.236-0.748-6.016l-79.503-45.901
		c-3.084-1.781-7.749-1.974-10.421-0.432l-170.381,98.37c-2.671,1.542-2.336,4.235,0.749,6.016l79.503,45.901
		C215.144,271.41,219.809,271.603,222.479,270.061z"/>
	<path fill="#FDFFFF" d="M222.479,262.375l170.381-98.369c2.672-1.542,2.336-4.236-0.748-6.017l-79.503-45.901
		c-3.084-1.781-7.749-1.974-10.421-0.432l-170.381,98.369c-2.671,1.543-2.336,4.236,0.749,6.018l79.503,45.9
		C215.144,263.725,219.809,263.918,222.479,262.375z"/>
</g>
<polygon fill="#2C4482" points="142.204,229.297 140.381,243.489 145.324,246.239 147.135,232.145 "/>
<path fill="#2C4482" d="M277.417,285.809l12.366,2.521l1.664,4.292c0.398,3.077,0.377,4.714-1.664,6.337
	c-1.716,1.365-5.216,0.312-7.044-0.54l-7.942-4.777c-5.888-3.245-5.443-5.648-4.808-7.632l0,0
	C270.932,283.788,273.654,284.302,277.417,285.809z"/>
<path fill="#2C4482" d="M300.886,275.097l11.262,2.289l1.517,3.904c0.364,2.8,0.345,4.289-1.513,5.767
	c-1.563,1.242-4.749,0.285-6.414-0.489l-7.234-4.344c-5.362-2.949-4.958-5.136-4.381-6.94l0,0
	C294.979,273.261,297.459,273.728,300.886,275.097z"/>
<path opacity="0.4" fill="#A8C4E5" d="M227.17,194.2l60.631-35.005c2.481-1.433,2.778-3.548,0.662-4.725l-13.529-7.526
	c-2.115-1.177-5.842-0.969-8.323,0.463l-60.632,35.005c-2.481,1.433-2.777,3.548-0.662,4.725l13.529,7.525
	C220.962,195.84,224.688,195.632,227.17,194.2z"/>
<g>
	<g>
		<g>
			<path fill="#9BB7D3" d="M240.154,172.251c0,0,0.335,0.186,0.36,0.216c0.012,0.014,0.129,0.144,0.183,0.193
				c0.04,0.037,0.172,0.145,0.196,0.163c0.07,0.053,14.916,9.184,14.916,9.184l0.007,2.443l-14.688-9.03
				c-0.081-0.05-0.156-0.101-0.228-0.154c-0.023-0.018-0.044-0.037-0.067-0.056c-0.044-0.036-0.089-0.071-0.129-0.107
				c0,0-0.001,0-0.001-0.001c-0.054-0.049-0.102-0.099-0.146-0.15c-0.012-0.014-0.023-0.027-0.035-0.042
				c-0.014-0.016-0.028-0.031-0.041-0.047c-0.012-0.015-0.019-0.029-0.029-0.044c-0.03-0.041-0.059-0.083-0.084-0.125
				c-0.009-0.014-0.021-0.028-0.029-0.042c-0.007-0.012-0.011-0.024-0.017-0.036c-0.02-0.037-0.037-0.075-0.053-0.113
				c-0.008-0.018-0.019-0.036-0.025-0.054c-0.004-0.009-0.005-0.019-0.009-0.028c-0.013-0.037-0.021-0.074-0.031-0.11
				c-0.005-0.021-0.014-0.042-0.018-0.063c-0.002-0.007-0.001-0.015-0.003-0.022c-0.007-0.04-0.01-0.079-0.014-0.119
				c-0.001-0.021-0.006-0.042-0.007-0.064c0-0.01-0.001-0.021-0.001-0.031L240.154,172.251z"/>
			<path fill="#D7E8F7" d="M255.87,182.041c0.099,0.058,0.202,0.11,0.31,0.161c0.032,0.015,0.065,0.029,0.1,0.044
				c0.118,0.052,0.239,0.099,0.365,0.14c0.007,0.002,0.014,0.006,0.021,0.008c0.105,0.034,0.214,0.064,0.323,0.092
				c0.016,0.004,0.032,0.007,0.049,0.011c0.094,0.022,0.189,0.044,0.286,0.062c0.013,0.002,0.025,0.004,0.037,0.006
				c0.125,0.021,0.251,0.039,0.379,0.053c0.047,0.005,0.094,0.009,0.141,0.013c0.074,0.007,0.148,0.012,0.223,0.015
				c0.053,0.003,0.105,0.005,0.158,0.006c0.064,0.002,0.129,0.002,0.192,0.001c0.056-0.001,0.111-0.001,0.167-0.003
				c0.06-0.002,0.119-0.006,0.178-0.01c0.057-0.004,0.113-0.008,0.17-0.014c0.059-0.005,0.117-0.012,0.176-0.02
				c0.056-0.006,0.111-0.014,0.166-0.021c0.063-0.01,0.124-0.021,0.187-0.033c0.051-0.01,0.103-0.02,0.153-0.029
				c0.075-0.018,0.149-0.035,0.223-0.055c0.041-0.012,0.083-0.021,0.123-0.033c0.132-0.038,0.26-0.081,0.384-0.129
				c0.063-0.024,0.122-0.051,0.182-0.077c0.031-0.014,0.063-0.026,0.093-0.04c0.091-0.043,0.18-0.089,0.265-0.139l11.384-6.572
				c0.704-0.406,1.054-0.195,1.053-0.727l0.007,1.7c0.001,0.531-0.349,1.063-1.052,1.47l-11.385,6.572
				c-0.085,0.049-0.174,0.095-0.265,0.139c-0.03,0.014-0.062,0.026-0.093,0.04c-0.052,0.022-0.104,0.047-0.157,0.068
				c-0.008,0.003-0.017,0.005-0.024,0.008c-0.124,0.048-0.252,0.092-0.384,0.13c-0.008,0.002-0.017,0.006-0.024,0.008
				c-0.032,0.01-0.066,0.016-0.099,0.024c-0.073,0.02-0.147,0.038-0.223,0.055c-0.017,0.004-0.032,0.009-0.05,0.013
				c-0.034,0.007-0.069,0.012-0.104,0.018c-0.063,0.012-0.124,0.023-0.187,0.032c-0.021,0.003-0.042,0.009-0.063,0.011
				c-0.034,0.006-0.069,0.008-0.104,0.012c-0.059,0.008-0.116,0.014-0.175,0.02c-0.023,0.002-0.046,0.006-0.068,0.008
				c-0.034,0.003-0.068,0.004-0.103,0.006c-0.06,0.004-0.118,0.007-0.178,0.01c-0.023,0-0.047,0.002-0.071,0.004
				c-0.031,0-0.063-0.002-0.096-0.001c-0.064,0.001-0.128,0.001-0.192-0.001c-0.025,0-0.052,0-0.077,0
				c-0.027-0.002-0.054-0.004-0.081-0.006c-0.074-0.004-0.148-0.008-0.222-0.015c-0.03-0.003-0.061-0.003-0.09-0.006
				c-0.018-0.002-0.034-0.005-0.052-0.007c-0.128-0.014-0.254-0.031-0.379-0.053c-0.01-0.002-0.021-0.003-0.03-0.005
				C257.335,185,257.333,185,257.331,185c-0.098-0.018-0.192-0.039-0.287-0.063c-0.017-0.003-0.033-0.006-0.049-0.01
				c-0.109-0.027-0.218-0.059-0.323-0.092c-0.001-0.001-0.003-0.001-0.004-0.002c-0.006-0.002-0.011-0.004-0.016-0.006
				c-0.127-0.041-0.248-0.089-0.366-0.14c-0.034-0.015-0.066-0.029-0.1-0.045c-0.107-0.05-0.211-0.103-0.31-0.161
				c-0.012-0.006-0.025-0.012-0.037-0.02c-0.008-0.004-0.016-0.009-0.023-0.014l-0.007-2.443
				C255.829,182.018,255.851,182.029,255.87,182.041z"/>
			<g>
				
					<linearGradient id="SVGID_1_" gradientUnits="userSpaceOnUse" x1="2505.2324" y1="173.8179" x2="2538.4316" y2="173.8179" gradientTransform="matrix(-1 0 0 1 2778.5859 0)">
					<stop  offset="0.0394" style="stop-color:#FFFFFF"/>
					<stop  offset="0.3172" style="stop-color:#FCFDFE"/>
					<stop  offset="0.5068" style="stop-color:#F3F7FB"/>
					<stop  offset="0.6701" style="stop-color:#E4EDF7"/>
					<stop  offset="0.8186" style="stop-color:#CEDEF0"/>
					<stop  offset="0.9557" style="stop-color:#B3CBE8"/>
					<stop  offset="1" style="stop-color:#A8C4E5"/>
				</linearGradient>
				<path fill="url(#SVGID_1_)" d="M241.205,170.885c-1.367,0.79-1.405,2.065-0.085,2.877l14.689,9.03
					c1.375,0.845,3.685,0.863,5.108,0.041l11.384-6.572c1.424-0.822,1.399-2.16-0.055-2.959l-15.54-8.538
					c-1.397-0.768-3.6-0.75-4.967,0.04L241.205,170.885z"/>
			</g>
		</g>
		<polygon opacity="0.4" fill="#A8C4E5" points="266.202,169.969 250.16,179.319 246.377,177.05 262.199,167.846 		"/>
		<polygon fill="#9BB7D3" points="250.16,179.319 250.16,180.973 245.381,178.035 245.381,176.515 		"/>
	</g>
	<linearGradient id="SVGID_2_" gradientUnits="userSpaceOnUse" x1="207.1455" y1="168.4126" x2="217.1592" y2="168.4126">
		<stop  offset="0" style="stop-color:#DDECF8"/>
		<stop  offset="0.8835" style="stop-color:#A1CFF7"/>
	</linearGradient>
	<path fill="url(#SVGID_2_)" d="M207.146,145.841c0-0.002,0-0.004,0-0.007c0-0.025,0-0.051,0.001-0.077
		c0.001-0.025,0.002-0.051,0.003-0.077c0.001-0.003,0.001-0.007,0.001-0.011c0.001-0.004,0.001-0.007,0.001-0.011
		c0.002-0.018,0.003-0.036,0.005-0.054c0.002-0.025,0.005-0.051,0.008-0.076c0.002-0.012,0.004-0.024,0.006-0.036
		c0-0.005,0.001-0.01,0.002-0.016c0.001-0.008,0.002-0.016,0.003-0.024c0.004-0.025,0.009-0.051,0.014-0.076
		c0.004-0.024,0.01-0.048,0.015-0.072c0-0.001,0-0.002,0-0.002c0.001-0.001,0.001-0.002,0.001-0.003
		c0.006-0.025,0.012-0.051,0.018-0.077c0.007-0.025,0.013-0.051,0.021-0.076c0.002-0.007,0.004-0.014,0.006-0.02
		c0.001-0.005,0.003-0.01,0.004-0.015c0.004-0.014,0.008-0.027,0.012-0.041c0.008-0.024,0.016-0.048,0.023-0.073
		c0.006-0.018,0.013-0.037,0.019-0.055c0.001-0.002,0.002-0.005,0.003-0.008c0.001-0.002,0.002-0.005,0.003-0.008
		c0.009-0.022,0.017-0.045,0.025-0.068c0.009-0.022,0.018-0.043,0.027-0.065c0.003-0.009,0.008-0.019,0.012-0.027
		c0.001-0.004,0.003-0.008,0.005-0.012c0.004-0.008,0.007-0.017,0.011-0.026c0.01-0.022,0.021-0.045,0.031-0.067
		c0.01-0.022,0.021-0.044,0.032-0.067c0.001-0.002,0.002-0.004,0.003-0.006c0.002-0.003,0.004-0.006,0.005-0.01
		c0.013-0.023,0.024-0.047,0.037-0.07c0.012-0.022,0.023-0.043,0.036-0.064c0.008-0.015,0.016-0.029,0.024-0.043
		c0.004-0.007,0.007-0.014,0.011-0.021c0.021-0.035,0.043-0.068,0.065-0.102c0.007-0.011,0.014-0.022,0.021-0.034
		c0.002-0.001,0.002-0.003,0.004-0.005c0.028-0.042,0.058-0.085,0.088-0.126c0.004-0.006,0.009-0.011,0.014-0.017
		c0.004-0.005,0.008-0.011,0.012-0.016c0.011-0.014,0.021-0.028,0.032-0.042c0.018-0.023,0.036-0.046,0.055-0.068
		c0.007-0.009,0.015-0.017,0.021-0.025c0.004-0.004,0.008-0.009,0.012-0.013c0.007-0.008,0.014-0.016,0.021-0.024
		c0.018-0.021,0.036-0.042,0.056-0.062c0.014-0.016,0.028-0.031,0.043-0.045c0.003-0.003,0.005-0.006,0.008-0.008
		s0.005-0.005,0.007-0.007c0.021-0.021,0.041-0.041,0.062-0.061c0.021-0.021,0.044-0.041,0.065-0.061l0.001,0
		c0.001-0.001,0.001-0.001,0.001-0.001c0.022-0.02,0.043-0.038,0.064-0.056c0.023-0.019,0.046-0.038,0.069-0.056
		c0.003-0.002,0.006-0.004,0.009-0.007s0.006-0.005,0.01-0.007c0.017-0.013,0.033-0.026,0.051-0.039
		c0.022-0.017,0.046-0.033,0.069-0.049c0.007-0.004,0.013-0.009,0.02-0.013c0.002-0.001,0.005-0.003,0.007-0.004
		c0-0.001,0.001-0.001,0.001-0.001c0.015-0.009,0.028-0.019,0.042-0.028c0.023-0.015,0.047-0.029,0.071-0.043
		c0.005-0.003,0.377-0.217,0.382-0.22l2.097,1.135c0,0-0.501,0.29-0.524,0.305s-0.047,0.03-0.07,0.046
		c-0.023,0.016-0.047,0.033-0.069,0.05c-0.023,0.017-0.046,0.035-0.069,0.053c-0.01,0.007-0.019,0.015-0.028,0.023
		c-0.036,0.029-0.072,0.06-0.107,0.091l0,0v0c-0.035,0.032-0.07,0.065-0.104,0.099c-0.004,0.004-0.008,0.009-0.013,0.013
		c-0.032,0.033-0.063,0.066-0.095,0.101c-0.005,0.005-0.01,0.01-0.014,0.016c-0.03,0.034-0.06,0.068-0.089,0.104
		c-0.005,0.006-0.01,0.013-0.015,0.019c-0.028,0.035-0.056,0.071-0.083,0.107c-0.014,0.019-0.026,0.039-0.04,0.058
		c-0.017,0.023-0.033,0.046-0.049,0.07c-0.018,0.028-0.035,0.056-0.053,0.083c-0.011,0.018-0.022,0.036-0.033,0.055
		c-0.01,0.016-0.019,0.033-0.028,0.049c-0.017,0.029-0.032,0.058-0.048,0.087c-0.005,0.008-0.009,0.016-0.013,0.024
		c-0.021,0.041-0.041,0.081-0.061,0.122c-0.001,0.003-0.003,0.007-0.005,0.01c-0.02,0.043-0.039,0.087-0.057,0.131
		c-0.002,0.004-0.004,0.009-0.006,0.013c-0.017,0.043-0.033,0.086-0.049,0.13c-0.002,0.005-0.004,0.011-0.006,0.017
		c-0.015,0.042-0.028,0.085-0.041,0.128c-0.002,0.006-0.004,0.013-0.006,0.02c-0.012,0.043-0.023,0.085-0.033,0.128
		c-0.002,0.007-0.004,0.013-0.005,0.02c-0.01,0.043-0.019,0.086-0.026,0.129c-0.001,0.006-0.002,0.012-0.004,0.019
		c-0.007,0.043-0.014,0.087-0.019,0.13c-0.001,0.006-0.002,0.011-0.002,0.017c-0.005,0.043-0.009,0.087-0.012,0.131
		c-0.001,0.021-0.002,0.043-0.003,0.065c-0.001,0.026-0.001,0.051-0.001,0.077c0,0.027,0.001,0.054,0.002,0.08
		c0.001,0.027,0.003,0.054,0.005,0.08c0.002,0.029,0.006,0.058,0.009,0.086c0.003,0.022,0.006,0.044,0.01,0.066
		c0,0,0.007,0.044,0.02,0.119l7.244,44.772c0.034,0.213,0.859,1.574,0.673,1.467l-1.981-1.68c-0.419-0.355-0.697-0.849-0.785-1.392
		l-7.108-43.931c-0.034-0.213-0.086-0.533-0.086-0.533c-0.004-0.022-0.007-0.044-0.01-0.066c-0.002-0.019-0.004-0.038-0.006-0.057
		c0-0.001-0.001-0.002-0.001-0.003c0-0.002,0-0.005,0-0.007c-0.001-0.006-0.002-0.013-0.002-0.019
		c-0.002-0.027-0.004-0.053-0.005-0.08c-0.001-0.021-0.002-0.043-0.002-0.064C207.146,145.848,207.146,145.845,207.146,145.841z"/>
	<g>
		
			<linearGradient id="SVGID_3_" gradientUnits="userSpaceOnUse" x1="2489.1104" y1="148.9663" x2="2569.4971" y2="148.9663" gradientTransform="matrix(-1 0 0 1 2778.5859 0)">
			<stop  offset="0.0394" style="stop-color:#FFFFFF"/>
			<stop  offset="0.3172" style="stop-color:#FCFDFE"/>
			<stop  offset="0.5068" style="stop-color:#F3F7FB"/>
			<stop  offset="0.6701" style="stop-color:#E4EDF7"/>
			<stop  offset="0.8186" style="stop-color:#CEDEF0"/>
			<stop  offset="0.9557" style="stop-color:#B3CBE8"/>
			<stop  offset="1" style="stop-color:#A8C4E5"/>
		</linearGradient>
		<path fill="url(#SVGID_3_)" d="M210.529,144.524c-0.943,0.545-1.577,1.798-1.415,2.799l7.35,45.424
			c0.161,1.002,1.058,1.371,2.002,0.826l69.569-40.166c0.944-0.545,1.578-1.798,1.415-2.799l-7.349-45.425
			c-0.162-1.001-1.058-1.371-2.002-0.826L210.529,144.524z"/>
	</g>
	<linearGradient id="SVGID_4_" gradientUnits="userSpaceOnUse" x1="207.9912" y1="118.4141" x2="280.7539" y2="118.4141">
		<stop  offset="0" style="stop-color:#DDECF8"/>
		<stop  offset="0.4104" style="stop-color:#A3D0F7"/>
		<stop  offset="0.8835" style="stop-color:#A1CFF7"/>
	</linearGradient>
	<path fill="url(#SVGID_4_)" d="M208.118,138.276l1.516,0.881c0.079,0.046,0.177,0.046,0.256,0l69.061-39.872l0,0l0.382-0.22
		c0.019-0.011,0.036-0.021,0.055-0.031c0.023-0.013,0.047-0.025,0.071-0.037c0.058-0.029,0.115-0.053,0.172-0.075
		c0.006-0.002,0.011-0.004,0.017-0.006c0.054-0.02,0.107-0.038,0.161-0.052c0.004-0.001,0.008-0.002,0.013-0.003
		c0.055-0.014,0.107-0.025,0.161-0.032c0.003,0,0.007-0.001,0.011-0.002c0.05-0.007,0.1-0.011,0.148-0.012
		c0.009,0,0.018-0.001,0.027-0.001c0.048,0,0.095,0.001,0.142,0.006c0.013,0.001,0.024,0.004,0.037,0.006
		c0.033,0.004,0.066,0.01,0.099,0.017c0.027,0.006,0.054,0.014,0.08,0.022c0.022,0.007,0.045,0.014,0.066,0.021
		c0.056,0.021,0.11,0.045,0.162,0.075l-2.024-1.176c-0.053-0.031-0.108-0.055-0.166-0.077c-0.005-0.001-0.009-0.004-0.014-0.006
		c-0.003-0.001-0.007-0.001-0.01-0.003c-0.044-0.015-0.09-0.027-0.136-0.037c-0.003,0-0.006-0.001-0.009-0.002
		c-0.012-0.002-0.025-0.003-0.038-0.006c-0.023-0.003-0.047-0.007-0.07-0.01c-0.005,0-0.01-0.002-0.015-0.002
		c-0.018-0.001-0.035-0.001-0.053-0.002c-0.015,0-0.029-0.001-0.044-0.002c-0.004,0-0.007,0-0.011,0
		c-0.032,0-0.065,0.001-0.098,0.003h-0.002c-0.002,0-0.005,0-0.007,0c-0.027,0.002-0.056,0.005-0.084,0.009
		c-0.007,0.001-0.015,0.002-0.022,0.003c-0.009,0.001-0.019,0.003-0.028,0.005c-0.012,0.002-0.023,0.003-0.035,0.006
		c-0.022,0.004-0.046,0.01-0.068,0.015c-0.003,0-0.005,0.001-0.008,0.001v0c-0.002,0-0.003,0-0.005,0.001
		c-0.026,0.006-0.053,0.014-0.08,0.022c-0.024,0.007-0.05,0.016-0.075,0.024c-0.024,0.009-0.05,0.018-0.074,0.028
		c-0.024,0.01-0.049,0.02-0.073,0.031c-0.023,0.01-0.048,0.022-0.071,0.034c-0.024,0.012-0.048,0.024-0.071,0.037
		c-0.011,0.006-0.104,0.059-0.183,0.104l-0.001,0l-0.103,0.059c-0.001,0-0.004,0.002-0.004,0.002l0,0l-68.953,39.811
		C207.949,137.932,207.948,138.177,208.118,138.276z M277.753,98.147L277.753,98.147L277.753,98.147L277.753,98.147z"/>
	<linearGradient id="SVGID_5_" gradientUnits="userSpaceOnUse" x1="206.2959" y1="162.7427" x2="216.3096" y2="162.7427">
		<stop  offset="0" style="stop-color:#DDECF8"/>
		<stop  offset="0.8835" style="stop-color:#A1CFF7"/>
	</linearGradient>
	<path fill="url(#SVGID_5_)" d="M206.296,140.548c0-0.002,0-0.004,0-0.007c0-0.025,0-0.051,0.001-0.077
		c0.001-0.025,0.002-0.051,0.004-0.077c0-0.004,0-0.007,0.001-0.011c0-0.003,0-0.007,0-0.01c0.002-0.018,0.003-0.036,0.005-0.055
		c0.002-0.025,0.005-0.05,0.008-0.076c0.002-0.012,0.004-0.024,0.006-0.036c0.001-0.005,0.001-0.01,0.002-0.016
		c0.001-0.008,0.002-0.017,0.003-0.024c0.005-0.025,0.009-0.051,0.014-0.077c0.005-0.024,0.01-0.048,0.015-0.072l0.001-0.002
		c0,0,0-0.001,0-0.002c0.006-0.026,0.012-0.051,0.018-0.077c0.007-0.025,0.014-0.05,0.021-0.076
		c0.002-0.007,0.004-0.014,0.006-0.021c0.001-0.004,0.003-0.009,0.004-0.014c0.004-0.014,0.008-0.027,0.012-0.041
		c0.008-0.024,0.016-0.048,0.023-0.072c0.006-0.018,0.013-0.037,0.02-0.055c0.001-0.002,0.001-0.005,0.002-0.008
		s0.002-0.005,0.003-0.008c0.009-0.023,0.018-0.045,0.026-0.068c0.008-0.022,0.017-0.044,0.026-0.065
		c0.004-0.009,0.008-0.019,0.012-0.028c0.001-0.004,0.003-0.008,0.005-0.012c0.004-0.009,0.007-0.017,0.011-0.026
		c0.01-0.022,0.021-0.045,0.031-0.067s0.021-0.045,0.032-0.067c0.001-0.002,0.002-0.004,0.003-0.006
		c0.002-0.003,0.004-0.007,0.006-0.01c0.012-0.023,0.023-0.047,0.036-0.07c0.012-0.022,0.024-0.043,0.036-0.064
		c0.008-0.015,0.016-0.029,0.024-0.043c0.004-0.006,0.008-0.013,0.012-0.02c0.021-0.035,0.042-0.068,0.064-0.103
		c0.007-0.011,0.014-0.022,0.021-0.033c0.002-0.002,0.003-0.003,0.004-0.005c0.028-0.043,0.058-0.085,0.088-0.126
		c0.005-0.006,0.009-0.011,0.014-0.018c0.004-0.005,0.008-0.01,0.012-0.016c0.011-0.014,0.021-0.028,0.032-0.042
		c0.018-0.023,0.036-0.046,0.055-0.068c0.008-0.008,0.015-0.017,0.021-0.025c0.004-0.004,0.008-0.009,0.012-0.013
		c0.007-0.008,0.014-0.016,0.021-0.024c0.019-0.021,0.037-0.042,0.056-0.062c0.014-0.015,0.028-0.03,0.043-0.045
		c0.003-0.003,0.006-0.006,0.008-0.008c0.003-0.002,0.005-0.005,0.007-0.007c0.021-0.021,0.041-0.041,0.062-0.061
		c0.021-0.021,0.044-0.041,0.065-0.061l0.001-0.001l0.002-0.001c0.021-0.019,0.043-0.038,0.064-0.056
		c0.022-0.02,0.045-0.038,0.068-0.056c0.003-0.002,0.006-0.004,0.009-0.007s0.007-0.005,0.01-0.007
		c0.017-0.013,0.033-0.026,0.051-0.039c0.022-0.017,0.046-0.034,0.069-0.049c0.007-0.005,0.014-0.009,0.02-0.013
		c0.003-0.001,0.005-0.003,0.007-0.005l0.001,0c0.015-0.01,0.028-0.019,0.043-0.028c0.022-0.015,0.046-0.029,0.07-0.043
		c0.005-0.003,1.679-0.97,1.685-0.973l2.067,1.249c0,0-1.774,0.929-1.798,0.944c-0.023,0.015-0.047,0.03-0.07,0.046
		c-0.023,0.016-0.047,0.033-0.069,0.05c-0.023,0.017-0.046,0.035-0.069,0.052c-0.009,0.008-0.019,0.016-0.028,0.023
		c-0.036,0.029-0.072,0.06-0.106,0.091l0,0h-0.001c-0.035,0.032-0.07,0.065-0.104,0.099c-0.005,0.004-0.009,0.008-0.014,0.013
		c-0.032,0.033-0.063,0.066-0.095,0.101c-0.005,0.005-0.009,0.01-0.014,0.016c-0.03,0.034-0.06,0.068-0.088,0.104
		c-0.006,0.006-0.011,0.013-0.016,0.019c-0.028,0.035-0.056,0.071-0.083,0.107c-0.014,0.019-0.026,0.038-0.04,0.057
		c-0.017,0.023-0.033,0.046-0.049,0.07c-0.018,0.027-0.035,0.056-0.053,0.083c-0.011,0.018-0.022,0.036-0.033,0.055
		c-0.01,0.016-0.019,0.033-0.028,0.049c-0.016,0.029-0.032,0.058-0.048,0.087c-0.004,0.008-0.008,0.016-0.013,0.023
		c-0.021,0.041-0.041,0.082-0.061,0.123c-0.001,0.003-0.003,0.007-0.005,0.01c-0.02,0.043-0.039,0.087-0.057,0.131
		c-0.002,0.004-0.004,0.009-0.006,0.014c-0.017,0.043-0.033,0.086-0.049,0.129c-0.002,0.006-0.004,0.011-0.006,0.017
		c-0.015,0.043-0.028,0.086-0.041,0.129c-0.002,0.006-0.004,0.013-0.006,0.02c-0.012,0.042-0.023,0.085-0.033,0.128
		c-0.002,0.006-0.003,0.013-0.005,0.02c-0.01,0.043-0.019,0.086-0.026,0.129c-0.001,0.006-0.002,0.013-0.004,0.019
		c-0.007,0.043-0.014,0.087-0.019,0.13c-0.001,0.005-0.001,0.011-0.002,0.017c-0.005,0.043-0.009,0.087-0.012,0.13
		c-0.001,0.022-0.002,0.044-0.003,0.065c-0.001,0.026-0.001,0.051-0.001,0.077c0,0.027,0.001,0.054,0.002,0.08
		c0.001,0.027,0.003,0.054,0.005,0.08c0.003,0.029,0.006,0.058,0.009,0.086c0.003,0.022,0.007,0.044,0.01,0.066
		c0,0,0.007,0.043,0.02,0.119l7.244,44.772c0.034,0.213,0.859,1.574,0.673,1.467l-1.98-1.68c-0.42-0.355-0.698-0.849-0.786-1.392
		l-7.108-43.931c-0.034-0.213-0.086-0.533-0.086-0.533c-0.004-0.022-0.007-0.044-0.01-0.066c-0.002-0.019-0.004-0.038-0.006-0.056
		c0-0.001-0.001-0.002-0.001-0.003c0-0.002,0-0.005,0-0.008c-0.001-0.006-0.002-0.012-0.002-0.019
		c-0.002-0.026-0.004-0.053-0.005-0.08c-0.001-0.021-0.001-0.042-0.002-0.063C206.296,140.555,206.296,140.552,206.296,140.548z"/>
	<g>
		<g>
			<path fill="#283D75" d="M209.762,139.231c-0.944,0.545-1.578,1.798-1.416,2.799l7.35,45.424c0.161,1.002,1.059,1.371,2.002,0.826
				l69.569-40.166c0.944-0.545,1.578-1.798,1.416-2.799l-7.349-45.424c-0.162-1.001-1.058-1.371-2.002-0.826L209.762,139.231z"/>
		</g>
	</g>
	<g>
		<g>
			<path fill="#7EC0F7" d="M212.246,142.154c-0.896,0.507-1.503,1.599-1.356,2.439l6.648,38.108c0.146,0.84,0.99,1.109,1.886,0.603
				l65.986-37.381c0.896-0.507,1.502-1.599,1.355-2.439l-6.646-38.108c-0.146-0.84-0.99-1.11-1.886-0.603L212.246,142.154z"/>
		</g>
	</g>
	<path fill="#FFFFFF" d="M243.858,122.155c0,0.438,0.309,0.614,0.689,0.394c0.382-0.22,0.69-0.753,0.69-1.19s-0.31-0.613-0.69-0.394
		C244.167,121.185,243.858,121.717,243.858,122.155z"/>
</g>
<g>
	<path opacity="0.28" fill="#FFFFFF" d="M221.655,179.788l60.014-34.649c0.992-0.572,1.619-2.119,1.402-3.453l-5.216-32.006
		c-0.218-1.334-1.198-1.952-2.189-1.38l-60.014,34.649c-0.992,0.572-1.619,2.118-1.401,3.453l5.215,32.006
		C219.684,179.743,220.664,180.36,221.655,179.788z"/>
	<path fill="#283D75" d="M214.833,149.976l-0.638-3.911c-0.187-1.148,0.596-2.619,1.747-3.284l59.433-34.313
		c1.152-0.665,2.238-0.273,2.425,0.875l0.638,3.911L214.833,149.976z"/>
	<path fill="#97CBFF" d="M273.227,113.343c0.085,0.519,0.575,0.696,1.096,0.395c0.521-0.3,0.874-0.965,0.789-1.483
		c-0.084-0.519-0.575-0.696-1.096-0.396C273.495,112.159,273.142,112.824,273.227,113.343z"/>
	<path fill="#D84177" d="M269.419,115.541c0.085,0.519,0.575,0.696,1.096,0.396c0.521-0.3,0.874-0.965,0.789-1.483
		c-0.084-0.519-0.574-0.696-1.096-0.396C269.688,114.357,269.335,115.022,269.419,115.541z"/>
	<path fill="#6271F0" d="M265.611,117.739c0.085,0.519,0.575,0.696,1.096,0.395c0.521-0.3,0.874-0.965,0.79-1.483
		c-0.085-0.519-0.575-0.696-1.096-0.396C265.88,116.556,265.527,117.22,265.611,117.739z"/>
</g>
<path opacity="0.34" fill="#283D75" d="M260.404,126.445l12.517-7.227c0.638-0.368,1.268,0.029,1.408,0.887l3.686,22.621
	c0.141,0.858-0.264,1.852-0.9,2.22l-12.517,7.227c-0.638,0.368-1.268-0.029-1.407-0.887l-3.687-22.621
	C259.364,127.807,259.768,126.813,260.404,126.445z"/>
<g>
	<path fill="#FFFFFF" d="M267.61,153.356l12.517-7.226c0.638-0.368,1.041-1.362,0.901-2.22l-3.687-22.621
		c-0.14-0.858-0.771-1.255-1.407-0.887l-12.517,7.227c-0.638,0.368-1.041,1.362-0.901,2.22l3.687,22.621
		C266.343,153.327,266.973,153.724,267.61,153.356z"/>
	<path fill="#D84177" d="M265.769,132.69l9.727-5.616c0.464-0.268,0.757-0.99,0.655-1.613l0,0c-0.102-0.624-0.56-0.912-1.023-0.645
		l-9.726,5.616c-0.464,0.268-0.757,0.99-0.655,1.613l0,0C264.848,132.668,265.306,132.957,265.769,132.69z"/>
	<polygon fill="#A7D1E8" points="265.569,137.094 276.652,130.695 276.361,128.909 265.277,135.308 	"/>
	<polygon fill="#A7D1E8" points="266.236,141.187 277.319,134.788 277.028,133.002 265.945,139.401 	"/>
	<polygon fill="#A7D1E8" points="266.903,145.281 277.986,138.882 277.695,137.095 266.612,143.494 	"/>
	<polygon fill="#A7D1E8" points="273.235,145.859 278.617,142.752 278.326,140.966 272.944,144.073 	"/>
</g>
<g>
	<path fill="#FFFFFF" d="M225.561,174.101l33.775-19.5c0.637-0.368,1.04-1.362,0.9-2.22l-3.687-22.621
		c-0.14-0.858-0.77-1.255-1.407-0.887l-33.774,19.5c-0.638,0.368-1.041,1.362-0.901,2.22l3.687,22.621
		C224.293,174.072,224.923,174.469,225.561,174.101z"/>
	<g>
		<path fill="#D84177" d="M224.176,153.17l30.071-17.361c0.463-0.267,0.756-0.989,0.654-1.613l0,0
			c-0.102-0.624-0.56-0.912-1.022-0.645l-30.07,17.361c-0.464,0.268-0.757,0.989-0.655,1.613l0,0
			C223.255,153.149,223.713,153.438,224.176,153.17z"/>
		<path fill="#97CBFF" d="M225.031,156.965l11.726-6.769c0.366-0.212,0.598-0.783,0.518-1.276l0,0
			c-0.08-0.493-0.442-0.722-0.81-0.51l-11.725,6.77c-0.366,0.212-0.599,0.783-0.519,1.276l0,0
			C224.303,156.949,224.665,157.177,225.031,156.965z"/>
		<path fill="#97CBFF" d="M242.867,146.668l11.726-6.77c0.366-0.211,0.598-0.783,0.518-1.276l0,0
			c-0.08-0.493-0.442-0.722-0.809-0.51l-11.726,6.77c-0.366,0.211-0.599,0.783-0.518,1.276l0,0
			C242.139,146.651,242.501,146.879,242.867,146.668z"/>
		<polygon fill="#A7D1E8" points="225.035,161.442 238.087,153.906 237.796,152.12 224.744,159.656 		"/>
		<polygon fill="#A7D1E8" points="242.871,151.145 255.923,143.609 255.632,141.822 242.58,149.358 		"/>
		<polygon fill="#A7D1E8" points="225.702,165.536 238.754,158 238.463,156.214 225.411,163.75 		"/>
		<polygon fill="#A7D1E8" points="243.538,155.238 256.59,147.702 256.299,145.916 243.247,153.452 		"/>
		<polygon fill="#A7D1E8" points="251.84,154.679 257.221,151.572 256.93,149.786 251.549,152.893 		"/>
		<polygon fill="#A7D1E8" points="234.003,164.977 239.385,161.87 239.094,160.084 233.712,163.191 		"/>
	</g>
</g>
<path fill="#C2E3FF" d="M302.636,265.625c2.713,2.118,8.531,8.172,10.39,5.197c0.119,1.576,0.212,3.153,0.26,4.729
	c0.197,6.426-9.792,6.997-9.989,0.547C303.257,274.828,302.721,266.897,302.636,265.625z"/>
<path fill="#C2E3FF" d="M319.722,252.4c-3.292-2.332-6.778-4.616-10.653-5.839c-1.718-0.543-2.701-0.795-4.126-0.854
	c-0.645-0.025-1.294-0.018-1.938,0.028c-1.443,0.104,0.461-0.181-0.774,0.152c-0.25,0.067-2.337,0.853-1.246,0.344
	c-0.508,0.237-0.988,0.526-1.467,0.819c-1.402,0.858,0.682-0.715-0.535,0.396c-0.418,0.38-0.811,0.779-1.194,1.192
	c-0.453,0.543-0.493,0.574-0.121,0.095c-0.229,0.313-0.446,0.634-0.653,0.96c-0.305,0.51-0.61,1.013-0.885,1.539
	c-0.014,0.027-0.766,1.714-0.382,0.758c-0.272,0.678-0.498,1.376-0.704,2.077c-1.25,4.234-1.573,8.7-2.256,13.696
	c-0.752,5.499-1.673,12.587-1.29,18.716c0.206,3.299-2.958,6.114-6.115,6.114c-3.481,0-4.962-2.759-5.169-6.068
	c-0.477-7.642-0.138-15.509,0.926-23.053c0.219-1.551,0.45-3.101,0.681-4.65c0.079-0.53,0.144-1.065,0.235-1.594
	c0.205-1.174-0.25,1.512-0.09,0.658c0.759-4.046,1.241-7.658,2.957-11.46c2.779-6.157,8.158-11.224,14.935-12.511
	c9.418-1.791,18.537,2.609,26.039,7.923c2.69,1.907,3.964,5.339,2.193,8.366C326.531,252.867,322.431,254.319,319.722,252.4
	L319.722,252.4z"/>
<circle fill="#2C4482" cx="358.041" cy="309.823" r="4.529"/>
<circle fill="#2C4482" cx="354.725" cy="288.021" r="4.529"/>
<circle fill="#2C4482" cx="301.305" cy="287.723" r="4.529"/>
<circle fill="#2C4482" cx="296.425" cy="310.281" r="4.529"/>
<circle fill="#2C4482" cx="326.292" cy="322.165" r="4.529"/>
<path fill="#DCEFFF" d="M315.663,273.668c1.957,1.13,5.141,1.124,7.109-0.013c1.97-1.137,1.979-2.975,0.022-4.104
	s-5.14-1.124-7.109,0.013C313.717,270.702,313.707,272.539,315.663,273.668z"/>
<polygon fill="#D7E8F7" points="320.795,268.86 319.097,292.062 332.089,292.062 330.292,267.618 "/>
<path fill="#D7E8F7" d="M296.493,309.896l28.189-16.311l-2.277-3.321l-30.338,16.539c-1.103,0.638-1.008,1.855,0.209,2.706l0,0
	C293.494,310.36,295.392,310.534,296.493,309.896z"/>
<path fill="#D7E8F7" d="M327.354,293.826l29.685-7.911c1.305-0.348,1.471-1.535,0.37-2.639l0,0
	c-1.101-1.104-3.068-1.723-4.373-1.375l-27.445,7.315L327.354,293.826z"/>
<path fill="#D7E8F7" d="M361.139,305.046l-31.192-14.841l-3.164,3.965l29.659,14.111c1.517,0.722,3.739,0.637,4.938-0.188
	l0.339-0.233C362.917,307.034,362.655,305.768,361.139,305.046z"/>
<path fill="#D7E8F7" d="M330.087,291.914l-25.557-9.407c-1.636-0.602-4.004-0.499-5.264,0.229l-0.357,0.206
	c-1.261,0.728-0.954,1.815,0.682,2.417l26.533,9.767L330.087,291.914z"/>
<path fill="#D7E8F7" d="M329.764,320.211l-0.342-29.721l-5.886,0.461l0.333,29.025c0.019,1.562,1.359,2.891,2.979,2.955l0,0
	C328.47,322.997,329.781,321.772,329.764,320.211z"/>
<path fill="#2C4482" d="M279.693,255.093l-0.043-3.563l4.907-0.166l38.409-22.176c2.211-1.276,6.109-1.115,8.663,0.359l33.065,19.09
	l3.092-0.104l0.08,3.542h-0.002c0.003,0.817-0.482,1.599-1.486,2.178L324.555,278.4c-2.212,1.276-6.11,1.115-8.663-0.359
	l-34.128-19.703c-1.184-0.684-1.872-1.534-2.057-2.378h-0.003v-0.015C279.643,255.658,279.635,255.372,279.693,255.093z"/>
<path fill="#3C5CB0" d="M324.555,274.299l41.824-24.146c2.212-1.277,1.932-3.528-0.622-5.002l-34.127-19.704
	c-2.554-1.474-6.452-1.636-8.663-0.358l-41.825,24.146c-2.211,1.277-1.931,3.528,0.622,5.002l34.128,19.703
	C318.444,275.415,322.343,275.577,324.555,274.299z"/>
<path fill="#4C73DB" d="M304.141,260.176l16.654-9.615c0.881-0.508,0.77-1.404-0.247-1.992l-13.59-7.846
	c-1.017-0.587-2.569-0.65-3.45-0.143l-16.654,9.615c-0.881,0.509-0.769,1.404,0.248,1.992l13.589,7.846
	C301.708,260.621,303.26,260.685,304.141,260.176z"/>
<path fill="#4C73DB" d="M324.077,272.859l16.654-9.615c0.881-0.509,0.769-1.405-0.248-1.992l-13.589-7.846
	c-1.018-0.587-2.569-0.651-3.45-0.143l-16.654,9.615c-0.881,0.508-0.77,1.404,0.247,1.991l13.59,7.847
	C321.644,273.303,323.196,273.368,324.077,272.859z"/>
<path fill="#C2E3FF" d="M336.724,252.764c-5.948-3.936-12.519-7.422-18.913-10.577c-5.033-2.483-10.399-4.466-15.81-5.95
	c-3.312-0.91-4.563-3.675-4.285-6.326l8.807-5.109c5.739,1.668,11.379,3.917,16.76,6.486c6.649,3.174,13.467,6.85,19.614,10.916
	C349.432,246.528,343.313,257.124,336.724,252.764L336.724,252.764z"/>
<g>
	<g>
		<path fill="#5D5D87" d="M365.229,219.137c-8.01-4.389-16.02-8.777-24.028-13.166c-5.44-2.98-12.959-6.184-18.556-1.799
			c-3.022,2.368-2.78,9.115-2.956,12.439c-0.271,5.134-0.027,10.271,0.002,15.406c0.018,3.117,4.854,3.119,4.836,0
			c-0.043-7.474-0.831-15.332,0.858-22.677c1.606-6.983,14.976,1.683,18.311,3.51c6.364,3.487,12.729,6.975,19.092,10.462
			C365.523,224.812,367.963,220.636,365.229,219.137L365.229,219.137z"/>
	</g>
</g>
<path fill="#8AACCE" d="M256.011,196.251l45.12-26.05c0.258-0.149,0.577-0.147,0.833,0.004l13.698,8.084
	c0.545,0.322,0.541,1.112-0.007,1.428l-44.968,25.962c-0.256,0.147-0.57,0.147-0.826,0l-13.851-7.996
	C255.46,197.366,255.46,196.57,256.011,196.251z"/>
<path fill="#FFFFFF" d="M270.572,203.68l44.968-25.962c0.548-0.316,0.552-1.106,0.007-1.428l-13.698-8.084
	c-0.257-0.152-0.575-0.153-0.833-0.004l-45.12,26.05c-0.551,0.317-0.551,1.113,0,1.432l13.851,7.996
	C270.002,203.828,270.316,203.828,270.572,203.68z"/>
<path fill="#A8C4E5" d="M299.62,172.246c0.072,0.042,0.221,0.025,0.33-0.039l3.033-1.75c0.109-0.063,0.14-0.148,0.066-0.19
	l-2.009-1.161c-0.073-0.042-0.221-0.024-0.33,0.039l-3.034,1.75c-0.109,0.063-0.14,0.148-0.066,0.19L299.62,172.246z"/>
<path fill="#A8C4E5" d="M296.101,177.473c0.073,0.042,0.22,0.026,0.331-0.038l3.033-1.75c0.109-0.063,0.139-0.148,0.065-0.19
	l-2.011-1.162c-0.071-0.041-0.219-0.024-0.328,0.039l-3.033,1.75c-0.11,0.064-0.14,0.149-0.067,0.19L296.101,177.473z"/>
<path fill="#A8C4E5" d="M297.88,179.643c0.072,0.043,0.22,0.024,0.329-0.039l3.034-1.75c0.107-0.062,0.14-0.148,0.067-0.19
	l-2.011-1.162c-0.071-0.041-0.221-0.023-0.329,0.039l-3.034,1.751c-0.108,0.063-0.139,0.149-0.067,0.19L297.88,179.643z"/>
<path fill="#A8C4E5" d="M302.693,180.062c0.071,0.042,0.22,0.024,0.328-0.038l3.034-1.75c0.108-0.063,0.138-0.148,0.066-0.19
	l-2.011-1.161c-0.071-0.042-0.221-0.025-0.329,0.038l-3.033,1.751c-0.109,0.063-0.138,0.148-0.066,0.19L302.693,180.062z"/>
<path fill="#A8C4E5" d="M305.811,181.862c0.073,0.043,0.248,0.01,0.393-0.074l3.974-2.293c0.143-0.082,0.201-0.184,0.129-0.226
	l-2.36-1.363c-0.071-0.041-0.249-0.008-0.391,0.074l-3.975,2.294c-0.145,0.083-0.2,0.185-0.13,0.226L305.811,181.862z"/>
<path fill="#A8C4E5" d="M279.7,196.952c0.061,0.035,0.198,0.012,0.308-0.051l3.031-1.75c0.111-0.063,0.151-0.143,0.092-0.178
	l-0.873-0.504c-0.06-0.035-0.199-0.012-0.31,0.052l-3.031,1.749c-0.109,0.063-0.148,0.144-0.089,0.178L279.7,196.952z"/>
<path fill="#A8C4E5" d="M275.647,199.352c0.061,0.035,0.198,0.012,0.308-0.051l3.031-1.75c0.11-0.063,0.151-0.145,0.091-0.179
	l-0.872-0.504c-0.061-0.034-0.199-0.012-0.311,0.052l-3.031,1.75c-0.108,0.063-0.148,0.143-0.089,0.178L275.647,199.352z"/>
<path fill="#A8C4E5" d="M271.351,201.776c0.058,0.033,0.194,0.009,0.304-0.055l3.032-1.749c0.108-0.063,0.152-0.143,0.095-0.177
	l-0.841-0.485c-0.058-0.033-0.196-0.009-0.305,0.055l-3.032,1.75c-0.109,0.063-0.151,0.142-0.094,0.175L271.351,201.776z"/>
<path fill="#A8C4E5" d="M273.993,198.426c0.058,0.034,0.194,0.01,0.304-0.053l3.032-1.75c0.109-0.063,0.152-0.143,0.095-0.176
	l-0.841-0.486c-0.058-0.033-0.196-0.008-0.305,0.055l-3.032,1.75c-0.109,0.063-0.151,0.142-0.094,0.175L273.993,198.426z"/>
<path fill="#A8C4E5" d="M284.943,193.903c0.073,0.042,0.222,0.023,0.331-0.039l19.741-11.393c0.107-0.062,0.14-0.148,0.067-0.189
	l-2.36-1.364c-0.071-0.041-0.223-0.022-0.33,0.039l-19.74,11.392c-0.11,0.063-0.14,0.15-0.068,0.191L284.943,193.903z"/>
<path fill="#A8C4E5" d="M286.966,192.176c0.004,0.002,0.08-0.037,0.167-0.088l15.711-9.066c0.086-0.049,0.155-0.094,0.15-0.096
	l-0.146-0.085c-0.005-0.003-0.081,0.037-0.166,0.087l-15.712,9.066c-0.087,0.051-0.155,0.094-0.15,0.096L286.966,192.176z"/>
<path fill="#A8C4E5" d="M298.534,182.459c0.072,0.042,0.221,0.025,0.33-0.039l3.033-1.75c0.108-0.063,0.14-0.148,0.067-0.19
	l-2.01-1.161c-0.072-0.042-0.223-0.023-0.33,0.039l-3.033,1.75c-0.11,0.063-0.14,0.148-0.067,0.191L298.534,182.459z"/>
<path fill="#A8C4E5" d="M294.358,184.87c0.071,0.042,0.221,0.024,0.328-0.037l3.033-1.751c0.108-0.063,0.14-0.149,0.067-0.19
	l-2.01-1.161c-0.072-0.042-0.222-0.024-0.331,0.038l-3.033,1.751c-0.107,0.062-0.138,0.148-0.065,0.19L294.358,184.87z"/>
<path fill="#A8C4E5" d="M290.181,187.281c0.072,0.042,0.221,0.024,0.329-0.038l3.033-1.751c0.108-0.063,0.139-0.147,0.066-0.189
	l-2.01-1.161c-0.072-0.042-0.222-0.025-0.329,0.037l-3.034,1.751c-0.108,0.063-0.138,0.148-0.065,0.19L290.181,187.281z"/>
<path fill="#A8C4E5" d="M286.004,189.692c0.071,0.041,0.22,0.024,0.329-0.039l3.033-1.75c0.109-0.064,0.14-0.149,0.067-0.191
	l-2.01-1.16c-0.072-0.043-0.221-0.025-0.331,0.038l-3.033,1.751c-0.109,0.063-0.139,0.148-0.066,0.189L286.004,189.692z"/>
<path fill="#A8C4E5" d="M281.826,192.102c0.072,0.041,0.222,0.023,0.331-0.039l3.032-1.75c0.108-0.063,0.139-0.148,0.066-0.19
	l-2.01-1.161c-0.072-0.041-0.221-0.024-0.329,0.038l-3.033,1.75c-0.109,0.063-0.14,0.149-0.067,0.191L281.826,192.102z"/>
<path fill="#A8C4E5" d="M277.648,194.51c0.072,0.042,0.221,0.025,0.33-0.038l3.032-1.75c0.109-0.063,0.14-0.149,0.067-0.19
	l-2.01-1.162c-0.072-0.041-0.222-0.023-0.33,0.039l-3.033,1.75c-0.108,0.063-0.139,0.149-0.066,0.191L277.648,194.51z"/>
<path fill="#A8C4E5" d="M268.24,199.94c0.072,0.042,0.221,0.025,0.329-0.038l8.266-4.77c0.108-0.063,0.139-0.149,0.066-0.19
	l-2.01-1.161c-0.072-0.042-0.221-0.024-0.33,0.038l-8.265,4.77c-0.109,0.063-0.139,0.148-0.066,0.19L268.24,199.94z"/>
<path fill="#A8C4E5" d="M293.723,182.04c0.073,0.043,0.219,0.025,0.328-0.037l3.034-1.751c0.108-0.063,0.14-0.147,0.066-0.19
	l-2.011-1.161c-0.071-0.041-0.219-0.024-0.328,0.039l-3.034,1.751c-0.109,0.063-0.137,0.147-0.066,0.188L293.723,182.04z"/>
<path fill="#A8C4E5" d="M289.545,184.452c0.073,0.041,0.221,0.023,0.328-0.039l3.035-1.751c0.108-0.063,0.139-0.147,0.065-0.189
	l-2.01-1.161c-0.071-0.041-0.22-0.024-0.327,0.038l-3.035,1.751c-0.108,0.063-0.139,0.148-0.067,0.189L289.545,184.452z"/>
<path fill="#A8C4E5" d="M285.368,186.862c0.072,0.042,0.221,0.023,0.329-0.039l3.033-1.75c0.107-0.063,0.141-0.148,0.068-0.191
	l-2.011-1.161c-0.071-0.041-0.223-0.022-0.33,0.04l-3.033,1.75c-0.108,0.063-0.139,0.148-0.067,0.189L285.368,186.862z"/>
<path fill="#A8C4E5" d="M281.191,189.272c0.073,0.042,0.22,0.023,0.329-0.039l3.032-1.75c0.109-0.063,0.141-0.148,0.067-0.189
	l-2.011-1.162c-0.071-0.041-0.219-0.023-0.328,0.039l-3.033,1.75c-0.108,0.063-0.139,0.148-0.067,0.189L281.191,189.272z"/>
<path fill="#A8C4E5" d="M277.013,191.681c0.073,0.042,0.221,0.024,0.329-0.038l3.034-1.752c0.109-0.063,0.14-0.146,0.066-0.189
	l-2.011-1.161c-0.071-0.041-0.218-0.024-0.327,0.038l-3.035,1.752c-0.108,0.063-0.139,0.148-0.067,0.189L277.013,191.681z"/>
<path fill="#A8C4E5" d="M272.837,194.091c0.073,0.042,0.22,0.024,0.328-0.038l3.032-1.75c0.11-0.064,0.142-0.148,0.068-0.191
	l-2.011-1.161c-0.07-0.041-0.219-0.024-0.329,0.04l-3.032,1.75c-0.109,0.063-0.139,0.147-0.067,0.188L272.837,194.091z"/>
<path fill="#A8C4E5" d="M268.66,196.501c0.073,0.042,0.22,0.024,0.328-0.038l3.034-1.752c0.108-0.063,0.139-0.146,0.066-0.188
	l-2.011-1.161c-0.071-0.041-0.219-0.025-0.327,0.037l-3.035,1.752c-0.107,0.063-0.138,0.148-0.066,0.189L268.66,196.501z"/>
<path fill="#A8C4E5" d="M291.942,179.871c0.074,0.042,0.222,0.024,0.331-0.038l3.033-1.75c0.108-0.063,0.138-0.147,0.064-0.19
	l-2.01-1.162c-0.071-0.041-0.22-0.024-0.327,0.038l-3.034,1.75c-0.109,0.063-0.139,0.149-0.067,0.19L291.942,179.871z"/>
<path fill="#A8C4E5" d="M287.767,182.28c0.073,0.043,0.222,0.025,0.33-0.037l3.033-1.75c0.108-0.063,0.139-0.148,0.065-0.191
	l-2.01-1.161c-0.071-0.041-0.22-0.024-0.329,0.039l-3.033,1.751c-0.108,0.063-0.138,0.147-0.066,0.189L287.767,182.28z"/>
<path fill="#A8C4E5" d="M283.589,184.691c0.074,0.042,0.222,0.025,0.331-0.038l3.033-1.75c0.108-0.063,0.139-0.148,0.065-0.19
	l-2.011-1.161c-0.071-0.041-0.22-0.024-0.327,0.038l-3.033,1.751c-0.11,0.063-0.14,0.148-0.068,0.189L283.589,184.691z"/>
<path fill="#A8C4E5" d="M279.413,187.101c0.073,0.042,0.22,0.026,0.329-0.037l3.034-1.751c0.109-0.063,0.14-0.148,0.066-0.19
	l-2.011-1.161c-0.071-0.041-0.22-0.024-0.329,0.039l-3.033,1.75c-0.109,0.063-0.139,0.148-0.066,0.189L279.413,187.101z"/>
<path fill="#A8C4E5" d="M275.235,189.51c0.073,0.043,0.221,0.025,0.328-0.037l3.034-1.75c0.109-0.064,0.139-0.148,0.065-0.191
	l-2.011-1.161c-0.071-0.041-0.219-0.024-0.328,0.039l-3.034,1.751c-0.107,0.062-0.137,0.146-0.065,0.188L275.235,189.51z"/>
<path fill="#A8C4E5" d="M271.057,191.921c0.073,0.042,0.222,0.024,0.332-0.038l3.033-1.751c0.107-0.062,0.139-0.147,0.064-0.19
	l-2.01-1.161c-0.071-0.041-0.221-0.023-0.328,0.038l-3.033,1.751c-0.11,0.063-0.14,0.149-0.068,0.19L271.057,191.921z"/>
<path fill="#A8C4E5" d="M266.881,194.332c0.073,0.042,0.222,0.024,0.33-0.038l3.033-1.75c0.109-0.063,0.139-0.148,0.065-0.191
	l-2.01-1.16c-0.071-0.042-0.22-0.025-0.329,0.038l-3.033,1.751c-0.108,0.063-0.139,0.148-0.067,0.189L266.881,194.332z"/>
<path fill="#A8C4E5" d="M300.277,175.063c0.073,0.042,0.222,0.025,0.331-0.038l5.144-2.969c0.109-0.063,0.14-0.148,0.065-0.19
	l-2.01-1.162c-0.071-0.041-0.22-0.024-0.329,0.039l-5.144,2.968c-0.109,0.063-0.139,0.149-0.067,0.19L300.277,175.063z"/>
<path fill="#A8C4E5" d="M259.937,195.143c0.072,0.042,0.22,0.024,0.329-0.039l5.144-2.968c0.108-0.062,0.14-0.148,0.066-0.19
	l-2.01-1.16c-0.072-0.043-0.222-0.024-0.329,0.037l-5.144,2.969c-0.109,0.063-0.14,0.148-0.066,0.19L259.937,195.143z"/>
<path fill="#A8C4E5" d="M302.058,177.232c0.073,0.042,0.219,0.025,0.329-0.039l6.132-3.539c0.109-0.063,0.141-0.148,0.067-0.19
	l-2.011-1.162c-0.07-0.041-0.219-0.024-0.328,0.039l-6.132,3.539c-0.11,0.064-0.14,0.149-0.068,0.19L302.058,177.232z"/>
<path fill="#A8C4E5" d="M306.869,177.652c0.071,0.042,0.22,0.024,0.329-0.039l4.089-2.359c0.109-0.063,0.139-0.149,0.067-0.19
	l-2.011-1.161c-0.071-0.042-0.221-0.025-0.33,0.038l-4.088,2.359c-0.109,0.063-0.139,0.149-0.067,0.191L306.869,177.652z"/>
<path fill="#A8C4E5" d="M295.443,174.656c0.073,0.042,0.221,0.025,0.331-0.039l3.031-1.75c0.109-0.063,0.14-0.148,0.066-0.19
	l-2.009-1.161c-0.073-0.042-0.221-0.024-0.33,0.039l-3.031,1.749c-0.111,0.064-0.141,0.149-0.067,0.191L295.443,174.656z"/>
<path fill="#A8C4E5" d="M291.285,177.054c0.072,0.042,0.221,0.024,0.33-0.039l3.034-1.75c0.108-0.063,0.139-0.148,0.066-0.19
	l-2.01-1.161c-0.073-0.042-0.222-0.024-0.33,0.038l-3.033,1.75c-0.109,0.063-0.14,0.149-0.067,0.191L291.285,177.054z"/>
<path fill="#A8C4E5" d="M287.11,179.463c0.072,0.042,0.219,0.025,0.328-0.037l3.033-1.751c0.109-0.063,0.139-0.148,0.066-0.19
	l-2.01-1.161c-0.072-0.042-0.221-0.025-0.329,0.038l-3.033,1.751c-0.11,0.063-0.139,0.147-0.065,0.189L287.11,179.463z"/>
<path fill="#A8C4E5" d="M282.932,181.875c0.072,0.042,0.221,0.024,0.33-0.038l3.031-1.75c0.11-0.063,0.14-0.148,0.067-0.19
	l-2.01-1.161c-0.072-0.042-0.221-0.025-0.33,0.039l-3.032,1.749c-0.108,0.063-0.14,0.149-0.066,0.19L282.932,181.875z"/>
<path fill="#A8C4E5" d="M278.756,184.284c0.073,0.043,0.219,0.026,0.329-0.037l3.032-1.75c0.11-0.063,0.14-0.148,0.067-0.191
	l-2.01-1.16c-0.073-0.042-0.221-0.025-0.33,0.039l-3.033,1.75c-0.109,0.063-0.138,0.146-0.064,0.189L278.756,184.284z"/>
<path fill="#A8C4E5" d="M274.577,186.694c0.072,0.042,0.221,0.025,0.328-0.037l3.035-1.752c0.108-0.063,0.138-0.147,0.065-0.189
	l-2.01-1.161c-0.073-0.042-0.22-0.024-0.328,0.038l-3.035,1.751c-0.107,0.062-0.139,0.147-0.065,0.19L274.577,186.694z"/>
<path fill="#A8C4E5" d="M270.399,189.104c0.072,0.043,0.221,0.025,0.33-0.037l3.033-1.751c0.109-0.063,0.141-0.149,0.067-0.191
	l-2.009-1.161c-0.073-0.041-0.222-0.023-0.331,0.039l-3.033,1.751c-0.109,0.063-0.14,0.147-0.067,0.19L270.399,189.104z"/>
<path fill="#A8C4E5" d="M266.224,191.514c0.073,0.042,0.22,0.025,0.328-0.037l3.036-1.752c0.107-0.063,0.137-0.147,0.064-0.189
	l-2.01-1.16c-0.072-0.043-0.22-0.025-0.328,0.037l-3.035,1.752c-0.108,0.063-0.138,0.146-0.064,0.189L266.224,191.514z"/>
<path fill="#A8C4E5" d="M263.795,193.64c0.05-0.029,0.112-0.051,0.178-0.058c0.064-0.008,0.115,0,0.149,0.02l2.01,1.161
	c0.034,0.02,0.05,0.05,0.037,0.087c-0.015,0.037-0.051,0.074-0.101,0.104l-0.792,0.457l2.636,1.522
	c0.034,0.02,0.048,0.051,0.034,0.087c-0.013,0.037-0.05,0.074-0.102,0.104l-2.043,1.179c-0.052,0.03-0.114,0.052-0.179,0.06
	s-0.118,0-0.151-0.02l-4.779-2.762c-0.033-0.02-0.047-0.049-0.033-0.086c0.013-0.039,0.051-0.074,0.102-0.104L263.795,193.64z"/>
<path opacity="0.4" fill="#A8C4E5" d="M255.213,213.426l6.46,4.427c2.381,1.632,5.985,1.421,8.01-0.47l0,0
	c2.024-1.891,1.732-4.772-0.649-6.404l-6.46-4.428c-2.382-1.631-5.986-1.42-8.01,0.47l0,0
	C252.539,208.912,252.831,211.793,255.213,213.426z"/>
<path fill="#283D75" d="M256.829,211.938l6.46,4.426c2.382,1.633,5.985,1.422,8.01-0.469l0,0c2.024-1.891,1.732-4.772-0.649-6.404
	l-6.46-4.428c-2.382-1.631-5.985-1.42-8.01,0.47l0,0C254.155,207.422,254.447,210.305,256.829,211.938z"/>
<g>
	<g>
		<path fill="#A8C4E5" d="M258.001,206.297c0.564,0.145,1.071,0.391,1.516,0.77c0.614,0.525,1.51-0.362,0.892-0.891
			c-0.61-0.521-1.292-0.895-2.072-1.094C257.548,204.88,257.214,206.096,258.001,206.297L258.001,206.297z"/>
	</g>
</g>
<path fill="#C2E3FF" d="M317.496,260.971c-5.117-2.919-10.639-5.194-15.972-7.688c-4.536-2.121-7.988-2.354-12.621-3.219
	c-3.332-0.623-5.224-4.646-4.381-7.715c0.961-3.496,4.374-5.006,7.715-4.381c2.42,0.452,4.381,0.569,6.849,1.078
	c2.71,0.557,5.233,1.76,7.728,2.918c5.682,2.642,11.568,5.069,17.014,8.175C330.839,254.139,324.526,264.98,317.496,260.971
	L317.496,260.971z"/>
<path fill="#FFC2B0" d="M344.361,206.993c-4.356,0.12-4.312-3.77-4.868-6.846c0.009,0.053-0.156-1.193-0.052-0.896
	c0.276,0.309,0.611,0.52,1.004,0.633c-1.147,0.041-2.292,0-3.434-0.121c-3.838-0.356-7.47-1.521-10.929-3.189
	c-4.838-2.334-11.199-9.421-16.816-8.869c-5.036,0.494-5.002-7.379,0-7.869c5.131-0.504,9.49,2.882,13.506,5.578
	c2.89,1.941,5.84,3.912,9.114,5.151c3.459,1.309,7.069,0.642,10.442,1.675c3.161,0.969,4.939,3.895,4.973,7.149
	c0.004,0.452,0.286,1.314,0.107,1.727c-0.335,0.772-4.647-0.146-4.47-1.804c0.057-0.521,1.993-2.178,2.341-2.59
	C347.063,194.608,349.716,206.846,344.361,206.993z"/>
<path fill="#7E368D" d="M354.708,185.479c2.313,2.502,2.268,6.056,2.549,9.607c0.275,3.472-1.778,6.584-5.054,7.68l-32.635,10.912
	c0,0-9.128-12.688,1.586-17.293c5.573-2.396,9.346-5.706,13.521-8.604C340.81,183.525,349.363,179.698,354.708,185.479z"/>
<path fill="#7E368D" d="M361.24,247.836c2.396-0.854-1.579-34.764-4.423-57.484l-38.634,19.805
	c2.784,14.741,1.886,26.129,1.359,41.127c-0.254,7.242,8.934,12.806,15.425,9.586L361.24,247.836z"/>
<path fill="#FFC2B0" d="M318.332,211.253c-5.777,5.28-11.217,15.263-19.905,15.698c-10.329,0.52-19.513-8.256-29.116-10.893
	c-4.877-1.34-2.807-8.934,2.092-7.588c8.498,2.332,15.852,8.801,24.471,10.407c3.461,0.646,5.04-0.755,7.28-3.177
	c3.16-3.419,6.168-6.862,9.614-10.013C316.5,202.278,322.08,207.829,318.332,211.253L318.332,211.253z"/>
<path fill="#682977" d="M325.683,207.65l-15.063,14.696c-4.896,3.585-11.326-5.43-7.53-8.715l14.665-15.35
	c2.436-2.091,5.727-2.08,7.611,0.025l0,0C327.33,200.5,327.952,205.15,325.683,207.65z"/>
<path opacity="0.46" fill="#FFFFFF" d="M320.905,162.063l0.021,1.413c0,0,0.031,4.26,4.103,1.849s3.671-7.707,3.671-7.707
	S325.5,157.406,320.905,162.063z"/>
<path fill="#513554" d="M324.95,164.712c-3.952,2.317-3.997-1.374-3.997-1.374l-0.023-1.223c4.453-4.293,7.565-4.288,7.565-4.288
	S328.901,162.395,324.95,164.712z"/>
<path fill="#513554" d="M329.234,157.855l0.562-0.292c0.306-0.159,0.568-0.61,0.586-1.008l0,0c0.018-0.398-0.216-0.592-0.522-0.433
	l-0.561,0.292c-0.307,0.159-0.569,0.61-0.587,1.008l0,0C328.694,157.821,328.928,158.014,329.234,157.855z"/>
<path fill="#FCFEFF" d="M327.991,160.057L327.991,160.057c0.127-0.168,0.158-0.376,0.07-0.463l-1.023-1.018
	c-0.088-0.087-0.262-0.022-0.389,0.146l0,0c-0.126,0.168-0.158,0.376-0.07,0.463l1.023,1.018
	C327.69,160.291,327.864,160.225,327.991,160.057z"/>
<path fill="#FFC2B0" d="M341.124,185.969l-5.104-12.557l-7.063,6.682l4.377,11.477C333.89,193.46,342.438,190.303,341.124,185.969z"
	/>
<path fill="#FFC2B0" d="M334.898,156.583c0,0,8.388-4.442,7.57,7.945c-0.568,8.617-6.467,15.701-13.951,18.546
	c-4.66,1.773-9.981-1.3-9.921-5.606c-0.625-6.332-0.221-12.182,2.245-17.066c0.073-5.192,3.588-3.093,9.915-2.979L334.898,156.583z"
	/>
<path fill="#2C4482" d="M338.905,181.295c2.791-1.173,3.622-3.366,5.943-12.213c2.953-11.255-5.829-15.915-12.616-16.468
	c-8.686-0.708-17.243,8.5-9.271,10.189c1.559,0.33,0.543,4.468,0.758,5.954c0.383,2.642,1.912,4.029,2.331,6.594
	c0.397,2.427,5.121,5.69,7.331,6.356C336,182.497,338.106,181.63,338.905,181.295z"/>
<path fill="#FFC2B0" d="M324.203,172.65c-0.328,2.076,0.611,3.949,2.099,4.184c0.162,0.025,0.324,0.031,0.485,0.017
	c1.31-0.115,2.509-1.5,2.801-3.349c0.328-2.076-0.61-3.949-2.098-4.184S324.532,170.575,324.203,172.65z"/>
<path fill="#FFFFFF" d="M326.136,193.509c9.623-1.915,16.4-0.513,17.723-10.188l0,0c-1.521-0.808-3.315-0.298-4.125,1.113
	c-1.421,2.478-4.828,4.162-8.822,3.868c-1.196-0.088-2.298,0.505-2.835,1.525L326.136,193.509z"/>
<path fill="#4C73DB" d="M327.851,254.464c-6.056-3.317-12.11-6.636-18.165-9.952c-2.881-1.579-5.727-3.283-8.702-4.681
	c-2.252-1.058-7.372-3.21-9.604-0.972c-1.779,1.787-1.436,6.96-1.523,9.225c-0.144,3.704-0.024,7.405-0.012,11.109
	c0.011,2.969-4.603,2.973-4.612,0c-0.017-4.53-0.187-9.062,0.144-13.587c0.251-3.435,0.422-8.628,3.676-10.729
	c5.994-3.871,13.591,0.517,18.925,3.439c7.401,4.055,14.802,8.109,22.202,12.164C332.783,251.908,330.458,255.893,327.851,254.464
	L327.851,254.464z"/>
<path fill="#4C73DB" d="M367.856,247.759l13.631-42.968c1.122-3.539-2.806-6.536-5.922-4.52l-39.042,25.26
	c-1.438,0.931-2.469,2.373-2.884,4.034l-11.188,44.776L367.856,247.759z"/>
<path fill="#4C73DB" d="M372.589,233.254l13.98-44.069c1.151-3.63-2.878-6.704-6.074-4.636l-41.282,26.785
	c-1.475,0.954-2.753,2.518-3.179,4.223l-10.138,40.872L372.589,233.254z"/>
<path fill="#3D62C4" d="M381.563,186.631l-40.251,26.115c-1.438,0.93-2.684,2.455-3.099,4.116l-10.827,38.827l-4.934,18.652
	l-1.971-1.198c-0.761-0.557-0.647-2.942-0.419-3.856l4.169-16.68l9.883-39.844c0.415-1.662,1.661-3.186,3.099-4.116l40.251-26.116
	c2.797-1.809,8.974,0.504,8.842,3.537C385.635,186.092,384.066,184.702,381.563,186.631z"/>
<g>
	<g>
		<g>
			<path fill="#FFC2B0" d="M171.979,244.647c6.089-5.249,7.313-14.55,9.694-21.788c1.433-4.354-5.413-6.205-6.834-1.885
				c-1.972,5.995-2.848,14.331-7.872,18.661C163.501,242.625,168.537,247.615,171.979,244.647L171.979,244.647z"/>
		</g>
	</g>
	<g>
		<path fill="#E56A12" d="M180.252,194.21c-2.263,9.522-3.423,19.176-7.3,28.237c-2.366,5.529,5.771,10.35,8.159,4.77
			c4.246-9.924,5.773-20.061,8.252-30.495C190.768,190.81,181.659,188.288,180.252,194.21L180.252,194.21z"/>
	</g>
	<g>
		<g>
			<path fill="#FFC2B0" d="M187.323,245.705c-1.868,25.685-1.563,51.343-1.676,77.069c-0.027,6.095,9.422,6.092,9.449,0
				c0.113-25.727-0.192-51.385,1.676-77.069C197.215,239.622,187.763,239.665,187.323,245.705L187.323,245.705z"/>
		</g>
	</g>
	<g>
		<path fill="#2C4482" d="M188.698,327.971l1.51,4.627c0.518,0.776,2.233,2.092,3.084,1.706c3.523-1.601,12.968-5.01,11.367-9.169
			c-2.013-5.231-15.353,0.937-15.353,0.937L188.698,327.971z"/>
		<path fill="#FFC2B0" d="M192.144,323.341c0,0,5.315-0.717,7.775,1.075c0.967,0.704,0.073,1.792-1.673,2.615
			c-3.44,1.622-7.408,1.156-9.309-1.487l-1.224-0.734L192.144,323.341z"/>
		<path fill="#2C4482" d="M184.154,324.196l1.283,10.933c0.041,0.353,0.228,0.672,0.515,0.88l0,0
			c0.815,0.593,1.963,0.046,2.016-0.96l0.483-9.104c0.019-0.353-0.11-0.696-0.354-0.95l-1.767-1.828
			C185.485,322.291,184.012,322.989,184.154,324.196z"/>
		<path fill="#2C4482" d="M185.417,321.508c0,0-3.195,2.314-0.316,9.113c0.038,0.092,0.058,0.359,0.119,0.277
			c2.822-3.748,4.988,0.001,4.988,0.001l7.939-3.371c0,0-5.217,1.328-9.449-3.052C187.575,323.316,185.417,321.508,185.417,321.508z
			"/>
	</g>
	<path fill="#2C4482" d="M199.723,334.271l1.509,4.626c0.518,0.777,2.234,2.093,3.084,1.706c3.524-1.6,12.969-5.009,11.368-9.168
		c-2.013-5.231-15.353,0.937-15.353,0.937L199.723,334.271z"/>
	<path fill="#FFC2B0" d="M203.167,329.641c0,0,5.315-0.717,7.776,1.075c0.967,0.703,0.073,1.792-1.674,2.615
		c-3.439,1.621-7.407,1.155-9.308-1.488l-1.224-0.733L203.167,329.641z"/>
	<g>
		<g>
			<path fill="#FFC2B0" d="M201.548,252.672c0.361,25.77-0.986,51.008-5.293,76.404c-1.011,5.958,8.094,8.51,9.111,2.512
				c4.451-26.245,6.004-52.28,5.631-78.916C210.912,246.584,201.462,246.576,201.548,252.672L201.548,252.672z"/>
		</g>
	</g>
	<path fill="#D65600" d="M208.326,259.81c-6.798,12.906-12.631,6.684-20.595,0.807c-7.965-5.878-8.759-17.492-4.531-27.198
		c0,0,11.876-13.828,19.84-7.951S216.219,244.823,208.326,259.81z"/>
	<path fill="#E56A12" d="M181.059,202.886c0,0,3.514,28.063,4.089,30.423c0,0,2.852,8.113,23.081,0.444l5.59-25.054L181.059,202.886
		z"/>
	<path fill="#E56A12" d="M213.564,218.182c0.775-0.475,1.888-7.157,1.888-7.157c-0.414-7.958-4.611-6.896-9.652-14.827
		c-0.811-1.275-6.691-4.737-14.979-6.235c-4.017-0.726-7.988,1.511-9.609,5.257c-0.948,2.191-0.022,8.729-0.022,8.73
		c2.484,11.994,3.091,7.425,3.87,13.57c0.481,3.833,0.823,6.605,0.855,6.995c0.001,0.018,0.003,0.043,0.003,0.048l14.373,11.332
		l7.564-13.658l0,0L213.564,218.182z"/>
	<path fill="#D65600" d="M182.817,246.412c0,0,0.896,40.065,1.234,40.611c2.12,3.407,3.166,10.316,24.535,5.305
		c2.463-0.577,3.416-3.255,3.305-5.401l0.349-41.222l-10.236,4.39L182.817,246.412z"/>
	<path fill="#283D75" d="M182.939,233.147L182.939,233.147c-0.113,0.617,0.124,1.241,0.618,1.627
		c1.785,1.39,6.562,4.352,14.067,3.539c6.425-0.695,10.186-2.105,11.996-2.98c0.78-0.378,1.153-1.277,0.854-2.092l-0.183-0.498
		c-0.328-0.896-1.336-1.341-2.216-0.971c-3.397,1.43-11.485,4.365-17.162,2.663c-2.619-0.784-4.302-1.618-5.384-2.366
		C184.532,231.377,183.159,231.952,182.939,233.147z"/>
	<path fill="#FFC2B0" d="M192.784,192.299l2.881-12.835l7.829,5.269l-2.246,10.014C201.019,196.645,192.219,196.66,192.784,192.299z
		"/>
	<path fill="#FFC2B0" d="M198.357,163.952c0,0-6.866-6.771-8.032,4.23c-0.812,7.653,3.61,14.811,10.179,18.505
		c4.09,2.3,9.556,0.453,10.171-3.336c1.573-5.457,2.106-10.656,0.559-15.336c0.741-4.569-2.88-3.288-8.825-4.199L198.357,163.952z"
		/>
	<path fill="#715154" d="M191.661,187.329c0,0-8.126-3.936-6.189-15.712c2.096-12.744,10.36-10.607,16.979-10.607
		c2.93,0,8.075,2.491,9.354,5.303c1.506,3.314,1.204,5.355-2.707,5.333c-1.551-0.009-1.244,4.202-1.69,5.593
		c-0.795,2.475-2.487,3.56-3.304,5.953c-0.773,2.265-4.54,5.571-6.786,5.615C193.315,188.884,191.661,187.329,191.661,187.329z"/>
	<path fill="#FFC2B0" d="M206.683,180.364c-0.021,2.115-1.267,3.818-2.782,3.803c-0.166-0.001-0.328-0.023-0.485-0.064
		c-1.28-0.332-2.239-1.908-2.221-3.793c0.021-2.115,1.267-3.818,2.782-3.803S206.704,178.249,206.683,180.364z"/>
	<g>
		<path fill="#FFFFFF" d="M192.372,190.145c0.573,2.125,2.233,3.875,4.44,4.311c2.379,0.469,5.196-0.225,7.576-0.467
			c1.512-0.153,1.501,2.21,0,2.362c-3.053,0.311-6.557,1.182-9.501-0.038c-2.389-0.99-4.124-3.059-4.794-5.539
			C189.698,189.304,191.976,188.677,192.372,190.145L192.372,190.145z"/>
	</g>
	<g>
		<g>
			<path fill="#715154" d="M205.425,170.538c0.814,3.968,1.525,8.658-0.245,12.445c-1.933,4.129-1.564,4.793,0.077,8.986
				c0.511,1.306,2.642,0.738,2.124-0.585c0.138,0.353-1.294-2.974-1.216-2.532c-0.299-1.682,0.388-3.271,0.916-4.758
				c0.486-1.367,1.019-2.426,1.216-3.895c0.454-3.36-0.07-6.946-0.749-10.248C207.264,168.564,205.14,169.152,205.425,170.538
				L205.425,170.538z"/>
		</g>
	</g>
	<path fill="#2C4482" d="M195.178,330.496l1.283,10.933c0.042,0.353,0.229,0.672,0.516,0.88l0,0
		c0.815,0.593,1.962,0.046,2.016-0.961l0.483-9.104c0.019-0.353-0.11-0.696-0.355-0.95l-1.766-1.829
		C196.509,328.59,195.036,329.288,195.178,330.496z"/>
	<path fill="#2C4482" d="M196.441,327.807c0,0-3.195,2.315-0.317,9.114c0.039,0.092,0.059,0.358,0.12,0.277
		c2.822-3.748,4.987,0,4.987,0l7.94-3.371c0,0-5.217,1.329-9.449-3.051C198.6,329.615,196.441,327.807,196.441,327.807z"/>
	<g>
		<g>
			<path fill="#FFC2B0" d="M204.446,201.779c0.037,7.261,0.778,14.221,3.727,20.921c2.242,5.094,4.803,13.066,10.442,15.248
				c11.125,4.304,11.825-26.095,11.92-30.945c0.089-4.572-6.998-4.564-7.087,0c-0.105,5.409-0.549,10.78-1.554,16.1
				c-0.367,1.942-0.884,3.846-1.506,5.72c-0.282,0.849-0.692,1.594-1.154,2.353c0.727-1.192,1.985,0.922,0.709-0.95
				c-5.858-8.596-8.358-18.186-8.411-28.445C211.509,197.209,204.422,197.208,204.446,201.779L204.446,201.779z"/>
		</g>
	</g>
	<g>
		<path fill="#FF8C3E" d="M202.692,201.779c0.156,11.942,4.9,20.927,9.538,31.622c2.413,5.564,10.557,0.758,8.159-4.77
			c-3.942-9.091-8.115-16.704-8.248-26.853C212.062,195.704,202.612,195.686,202.692,201.779L202.692,201.779z"/>
	</g>
	<ellipse fill="#FFFFFF" cx="191.84" cy="168.893" rx="4.783" ry="4.584"/>
	<path fill="#715154" d="M189.613,167.215c2.374-0.474,4.672,1.106,5.202,3.469c0.776,3.461,1.396,10.167-2.442,17.996
		c-5.614,11.454,4.153,27.355-0.834,34.419c0,0-1.183-4.6-4.954-11.664c-3.771-7.063-4.934-19.224-4.156-27.535
		c0.771-8.253,4.89-15.526,4.89-15.526C187.916,167.798,188.44,167.449,189.613,167.215z"/>
	<path fill="#FFC2B0" d="M228.1,209.453L228.1,209.453c2.471-0.222,4.311-2.424,4.089-4.894l0,0
		c-0.222-2.471-2.424-4.311-4.894-4.09l0,0c-2.471,0.222-4.311,2.424-4.089,4.895l0,0
		C223.427,207.834,225.629,209.674,228.1,209.453z"/>
	<path fill="#FFC2B0" d="M225.931,206.819l0.513-0.047c0.549-0.049,0.958-0.538,0.908-1.086l-0.985-10.994
		c-0.049-0.549-0.538-0.958-1.087-0.909l-0.513,0.046c-0.549,0.05-0.958,0.539-0.909,1.088l0.985,10.994
		C224.893,206.459,225.382,206.868,225.931,206.819z"/>
	<path fill="#FFC2B0" d="M168.322,244.859h0.348c2.056,0,3.738-1.683,3.738-3.739v-2.795c0-2.057-1.683-3.738-3.738-3.738h-0.348
		c-2.057,0-3.739,1.682-3.739,3.738v2.795C164.583,243.176,166.266,244.859,168.322,244.859z"/>
	<path fill="#B24902" d="M183.021,255.164c0,0,3.732,4.503,5.2,5.481c0,0-5.088-0.892-5.116-2.038L183.021,255.164z"/>
</g>
<g>
	<path fill="#2C4482" d="M391.844,161.236l-41.419-23.913c-2.684-1.549-4.879-5.745-4.879-9.323v-20.332
		c0-3.578,2.195-5.238,4.879-3.689l41.419,23.913c2.684,1.549,4.879,5.745,4.879,9.323v20.331
		C396.723,161.126,394.527,162.786,391.844,161.236z"/>
	<path fill="#02B1B9" d="M390.156,162.924l-41.419-23.913c-2.684-1.549-4.879-5.745-4.879-9.323v-20.331
		c0-3.579,2.195-5.238,4.879-3.689l41.419,23.913c2.684,1.549,4.88,5.745,4.88,9.323v20.331
		C395.036,162.813,392.84,164.473,390.156,162.924z"/>
	<path fill="#FFFFFF" d="M372.671,132.603l-23.202-13.396c-0.589-0.34-1.071-1.261-1.071-2.046l0,0c0-0.786,0.482-1.15,1.071-0.81
		l23.202,13.396c0.59,0.34,1.071,1.261,1.071,2.047l0,0C373.742,132.579,373.261,132.943,372.671,132.603z"/>
	<path fill="#FFFFFF" d="M372.671,140.783l-23.202-13.396c-0.589-0.34-1.071-1.261-1.071-2.047l0,0c0-0.785,0.482-1.15,1.071-0.81
		l23.202,13.396c0.59,0.34,1.071,1.261,1.071,2.047l0,0C373.742,140.758,373.261,141.123,372.671,140.783z"/>
	<path fill="#FFFFFF" d="M388.144,141.536l-8.795-5.078c-0.589-0.34-1.07-1.261-1.07-2.046l0,0c0-0.786,0.481-1.15,1.07-0.81
		l8.795,5.078c0.589,0.34,1.071,1.261,1.071,2.046l0,0C389.215,141.512,388.732,141.876,388.144,141.536z"/>
	<path fill="#02B1B9" d="M347.248,136.902l-0.473,10.877c-0.024,0.88,1.295,1.957,2.056,1.677l9.355-4.944L347.248,136.902z"/>
</g>
<g>
	<path fill="#2C4482" d="M132.463,177.959l39.974-23.078c2.59-1.496,4.709-5.544,4.709-8.998v-19.622
		c0-3.453-2.119-5.056-4.709-3.56l-39.974,23.078c-2.59,1.496-4.709,5.544-4.709,8.998v19.622
		C127.754,177.853,129.873,179.455,132.463,177.959z"/>
	<path fill="#02B1B9" d="M134.092,179.587l39.973-23.078c2.59-1.495,4.709-5.544,4.709-8.998V127.89c0-3.454-2.119-5.055-4.709-3.56
		l-39.973,23.078c-2.59,1.496-4.709,5.544-4.709,8.998v19.622C129.383,179.481,131.502,181.083,134.092,179.587z"/>
	<path fill="#FFFFFF" d="M150.966,150.325l22.394-12.929c0.568-0.328,1.033-1.217,1.033-1.975l0,0c0-0.758-0.465-1.109-1.033-0.781
		l-22.394,12.928c-0.568,0.329-1.033,1.217-1.033,1.975l0,0C149.933,150.302,150.397,150.653,150.966,150.325z"/>
	<path fill="#FFFFFF" d="M136.463,166.234l22.393-12.928c0.568-0.328,1.033-1.217,1.033-1.975l0,0c0-0.758-0.465-1.11-1.033-0.782
		l-22.393,12.929c-0.569,0.328-1.034,1.217-1.034,1.975l0,0C135.429,166.211,135.894,166.563,136.463,166.234z"/>
	<path fill="#FFFFFF" d="M136.034,158.946l8.487-4.9c0.568-0.328,1.034-1.217,1.034-1.975l0,0c0-0.758-0.466-1.11-1.034-0.781
		l-8.487,4.9c-0.568,0.329-1.034,1.217-1.034,1.975l0,0C135,158.923,135.466,159.274,136.034,158.946z"/>
	<path fill="#02B1B9" d="M175.503,154.475l0.455,10.498c0.024,0.85-1.249,1.889-1.983,1.619l-9.028-4.771L175.503,154.475z"/>
</g>
<path fill="#B6D1ED" d="M302.42,138.282c3.532,2.039,9.276,2.029,12.83-0.023c3.554-2.052,3.572-5.368,0.04-7.407
	c-3.531-2.039-9.275-2.029-12.83,0.023C298.906,132.926,298.888,136.243,302.42,138.282z"/>
<polygon fill="#B6D1ED" points="322.168,121.846 317.898,134.934 299.849,135.23 295.728,122.617 "/>
<path fill="#9DBEE3" d="M300.856,122.365l4.12,12.564h0.003c0.233,1.861,1.088,2.352,2.568,3.207
	c1.071,0.618,2.347,1.152,3.702,1.384c-3.049,0.513-6.443-0.063-8.83-1.441c-1.481-0.855-2.335-1.289-2.569-3.15h-0.002
	l-4.121-12.564H300.856z"/>
<path fill="#FFFFFF" d="M299.349,126.502c5.218,3.013,13.703,2.997,18.954-0.034c5.25-3.031,5.276-7.93,0.059-10.943
	c-5.217-3.012-13.703-2.997-18.953,0.034C294.157,118.59,294.131,123.49,299.349,126.502z"/>
<path fill="#353559" d="M300.788,125.475c4.479,2.585,11.762,2.572,16.269-0.03s4.53-6.807,0.052-9.393
	c-4.479-2.585-11.763-2.572-16.27,0.029C296.332,118.684,296.31,122.889,300.788,125.475z"/>
<g>
	<path fill="#4C73DB" d="M309.257,117.001c0.523-10.426,8.32-27.978,8.32-27.978c-11.153,4.044-11.235,15.31-11.235,15.31
		L309.257,117.001z"/>
	<path fill="#4C73DB" d="M306.144,107.999c0.582-10.422-5.524-28.647-5.524-28.647c10.663,5.201,9.554,16.412,9.554,16.412
		L306.144,107.999z"/>
	<path fill="#4C73DB" d="M322.799,94.473c-9.351,2.703-14.092,19.631-14.092,19.631v0.034c-1.606-21.119-15.293-25.93-15.293-25.93
		c5.192,6.67,11.242,33.419,11.242,33.419c2.575,2.529,5.612,2.195,8.923,0.17C313.17,113.79,322.799,94.473,322.799,94.473z"/>
</g>
<g>
	<path fill="#682977" d="M236.008,36.548l23.777-13.765c0.978-0.564,1.847-0.567,2.495-0.123l0.003-0.003l4.03,2.265
		c0,0-1.568,2.374-2.726,5.168v21.473c0,2.725-1.692,5.889-3.735,7.069l-19.375,11.181c-1.807,3.041-3.132,5.03-3.132,5.03
		l-3.848-2.16v-0.007c0-0.39-1.157-1.477-1.157-3.076V43.617C232.341,40.893,233.965,37.728,236.008,36.548z"/>
	<path fill="#7E368D" d="M240.079,74.791l23.842-13.765c2.044-1.18,3.7-4.345,3.7-7.069V27.973c0-2.724-1.656-3.977-3.7-2.797
		l-23.842,13.765c-2.043,1.18-3.699,4.345-3.699,7.069v25.983C236.379,74.718,238.036,75.97,240.079,74.791z"/>
	<path opacity="0.32" fill="#7E368D" d="M243.215,76.151l23.842-13.765c2.043-1.18,3.699-4.345,3.699-7.069V29.333
		c0-2.725-1.656-3.977-3.699-2.797l-23.842,13.765c-2.044,1.18-3.7,4.344-3.7,7.069v25.983
		C239.515,76.078,241.171,77.331,243.215,76.151z"/>
	<g>
		<g>
			<polygon fill="#FFFFFF" points="258.555,54.834 264.877,43.931 257.993,40.005 256.665,42.336 261.2,44.923 256.234,53.489 			
				"/>
		</g>
		<g>
			<polygon fill="#FFFFFF" points="246.042,61.498 247.372,59.167 242.901,56.618 247.933,47.938 245.612,46.593 239.224,57.61 			
				"/>
		</g>
		<g>
			
				<rect x="250.406" y="42.044" transform="matrix(-0.9652 0.2613 -0.2613 -0.9652 508.0945 34.5958)" fill="#FFFFFF" width="2.683" height="18.072"/>
		</g>
	</g>
</g>
<g>
	<path fill="#D65600" d="M198.219,90.603L221.75,77.03c0.964-0.557,1.863-0.559,2.502-0.121l0.023-0.003l3.817,2.233
		c0,0-1.705,2.341-2.847,5.096v21.174c0,2.687-1.499,5.808-3.515,6.971l-19.021,11.025c-1.782,2.999-3.215,4.96-3.215,4.96
		l-3.92-2.13v-0.006c0-0.385-1.142-1.456-1.142-3.033V97.574C194.435,94.887,196.204,91.767,198.219,90.603z"/>
	<path fill="#E56A12" d="M202.401,128.314l23.51-13.574c2.016-1.164,3.648-4.284,3.648-6.971V82.148
		c0-2.687-1.633-3.921-3.648-2.758l-23.51,13.574c-2.015,1.163-3.648,4.284-3.648,6.971v25.622
		C198.753,128.242,200.387,129.477,202.401,128.314z"/>
	<path opacity="0.32" fill="#E56A12" d="M205.704,130.457l23.51-13.574c2.015-1.163,3.648-4.284,3.648-6.971V84.291
		c0-2.687-1.634-3.921-3.648-2.758l-23.51,13.574c-2.016,1.163-3.648,4.284-3.648,6.971v25.622
		C202.056,130.385,203.688,131.62,205.704,130.457z"/>
	<g>
		<path fill="#FFFFFF" d="M211.69,116.024l-1.368,0.79c-1.912,1.104-2.78,0.758-2.78-1.934c0-1.77,0.217-2.817,0.217-4.388
			c0-0.873-0.456-1.532-1.868-0.766v-2.144c1.412-0.865,1.868-2.051,1.868-2.923c0-1.57-0.217-2.368-0.217-4.137
			c0-2.692,0.868-4.042,2.78-5.146l1.368-0.79v1.944l-0.412,0.238c-0.913,0.527-1.151,1.039-1.151,2.41
			c0,1.346,0.087,2.493,0.087,4.013c0,1.895-0.521,2.918-1.607,3.845v0.1c1.086-0.328,1.607,0.094,1.607,1.988
			c0,1.521-0.087,2.768-0.087,4.114c0,1.371,0.238,1.607,1.151,1.08l0.412-0.238V116.024z"/>
	</g>
	<g>
		<path fill="#FFFFFF" d="M218.479,110.162l0.412-0.238c0.913-0.527,1.151-1.039,1.151-2.41c0-1.346-0.087-2.493-0.087-4.013
			c0-1.895,0.521-2.919,1.608-3.845v-0.099c-1.087,0.328-1.608-0.094-1.608-1.989c0-1.521,0.087-2.767,0.087-4.113
			c0-1.371-0.238-1.607-1.151-1.081l-0.412,0.238v-1.944l1.368-0.79c1.912-1.104,2.78-0.758,2.78,1.935
			c0,1.77-0.217,2.817-0.217,4.388c0,0.872,0.456,1.531,1.868,0.766v2.144c-1.412,0.865-1.868,2.051-1.868,2.923
			c0,1.57,0.217,2.368,0.217,4.137c0,2.692-0.868,4.042-2.78,5.146l-1.368,0.79V110.162z"/>
	</g>
</g>
<line fill="none" stroke="#FFFFFF" stroke-width="1.0424" stroke-linecap="round" stroke-linejoin="round" stroke-miterlimit="10" x1="433.554" y1="140.705" x2="515.979" y2="189.249"/>
</svg>
